<svg width="17" height="16" viewBox="0 0 17 16" fill="none" xmlns="http://www.w3.org/2000/svg">
<g clip-path="url(#clip0_172_1492)">
<path d="M8.5 0C6.91775 0 5.37104 0.469192 4.05544 1.34824C2.73985 2.22729 1.71447 3.47672 1.10897 4.93853C0.503466 6.40034 0.34504 8.00887 0.653721 9.56072C0.962403 11.1126 1.72433 12.538 2.84315 13.6569C3.96197 14.7757 5.38743 15.5376 6.93928 15.8463C8.49113 16.155 10.0997 15.9965 11.5615 15.391C13.0233 14.7855 14.2727 13.7602 15.1518 12.4446C16.0308 11.129 16.5 9.58225 16.5 8C16.4977 5.87897 15.6541 3.84547 14.1543 2.34568C12.6545 0.845885 10.621 0.00229405 8.5 0V0ZM14.4607 7.33333H12.142C11.9908 5.59659 11.4706 3.91215 10.616 2.39267C11.649 2.78333 12.5544 3.45114 13.2326 4.32274C13.9109 5.19434 14.3358 6.23601 14.4607 7.33333ZM6.95667 9.33333H10.0433C9.78084 10.7298 9.25723 12.0643 8.5 13.2667C7.74266 12.0643 7.21905 10.7299 6.95667 9.33333ZM6.86867 7.33333C7.05538 5.69585 7.61332 4.12257 8.5 2.73333C9.38679 4.12252 9.94475 5.69582 10.1313 7.33333H6.86867ZM6.384 2.39267C5.52945 3.91215 5.00918 5.59659 4.858 7.33333H2.53934C2.66423 6.23601 3.08915 5.19434 3.7674 4.32274C4.44565 3.45114 5.351 2.78333 6.384 2.39267ZM2.65467 9.33333H4.92734C5.15166 10.8341 5.64513 12.282 6.384 13.6073C5.45876 13.2567 4.63433 12.6832 3.9838 11.9376C3.33326 11.1921 2.87673 10.2975 2.65467 9.33333ZM10.616 13.6073C11.3552 12.2821 11.8487 10.8341 12.0727 9.33333H14.3453C14.1233 10.2975 13.6667 11.1921 13.0162 11.9376C12.3657 12.6832 11.5412 13.2567 10.616 13.6073Z" fill="#121212"/>
</g>
<defs>
<clipPath id="clip0_172_1492">
<rect width="16" height="16" fill="white" transform="translate(0.5)"/>
</clipPath>
</defs>
</svg>
