<svg width="54" height="54" viewBox="0 0 54 54" fill="none" xmlns="http://www.w3.org/2000/svg">
<path d="M27 5.21761C34.0944 5.21761 34.9347 5.24472 37.7367 5.37255C40.3272 5.49078 41.7339 5.92351 42.6703 6.28738C43.8243 6.71332 44.8683 7.39248 45.7253 8.27494C46.6078 9.13198 47.2869 10.1759 47.7129 11.3299C48.0767 12.2662 48.5096 13.673 48.6277 16.2636C48.7555 19.0653 48.7826 19.9056 48.7826 27.0003C48.7826 34.095 48.7555 34.935 48.6277 37.737C48.5095 40.3275 48.0766 41.7343 47.7129 42.6706C47.2708 43.8165 46.5938 44.8572 45.7253 45.7256C44.8569 46.5941 43.8162 47.2711 42.6703 47.7132C41.7341 48.077 40.3272 48.5099 37.7367 48.628C34.9354 48.7558 34.0952 48.783 27 48.783C19.9048 48.783 19.0648 48.7558 16.2632 48.628C13.6727 48.5098 12.266 48.0769 11.3296 47.7132C10.1756 47.2872 9.13166 46.6081 8.27462 45.7256C7.39217 44.8686 6.71301 43.8247 6.28707 42.6706C5.9232 41.7344 5.49035 40.3275 5.37223 37.737C5.2444 34.9353 5.2173 34.095 5.2173 27.0003C5.2173 19.9056 5.2444 19.0656 5.37223 16.2636C5.49046 13.673 5.9232 12.2663 6.28707 11.3299C6.71305 10.1758 7.39229 9.13188 8.27483 8.27483C9.13188 7.39238 10.1758 6.71322 11.3298 6.28728C12.2661 5.92341 13.6729 5.49057 16.2635 5.37244C19.0652 5.24461 19.9055 5.21751 27.0002 5.21751L27 5.21761ZM27.0002 0.430176C19.7842 0.430176 18.8791 0.460762 16.0456 0.590066C13.2174 0.71916 11.2861 1.16825 9.59604 1.82511C7.82317 2.49226 6.21717 3.53811 4.89003 4.88971C3.53812 6.21677 2.49198 7.82278 1.82458 9.59573C1.16825 11.2859 0.71916 13.2172 0.590594 16.0454C0.460762 18.8789 0.430176 19.784 0.430176 27C0.430176 34.2159 0.460762 35.1211 0.590594 37.9546C0.719687 40.7827 1.16877 42.7141 1.82563 44.4041C2.49279 46.177 3.53864 47.783 4.89024 49.1101C6.21738 50.4617 7.82338 51.5076 9.59625 52.1747C11.2864 52.8316 13.2177 53.2807 16.0458 53.4098C18.8797 53.5391 19.7845 53.5696 27.0004 53.5696C34.2162 53.5696 35.1215 53.5391 37.955 53.4098C40.7831 53.2807 42.7145 52.8316 44.4045 52.1747C46.1695 51.4921 47.7724 50.4483 49.1106 49.1101C50.4487 47.772 51.4925 46.1691 52.1751 44.4041C52.832 42.714 53.2811 40.7826 53.4102 37.9546C53.5395 35.1206 53.5701 34.2158 53.5701 27C53.5701 19.7841 53.5395 18.8789 53.4102 16.0454C53.2811 13.2172 52.832 11.2859 52.1751 9.59583C51.508 7.82296 50.4621 6.21696 49.1105 4.88982C47.7834 3.53794 46.1772 2.49188 44.4042 1.82458C42.7141 1.16825 40.7827 0.71916 37.9546 0.590594C35.1211 0.460762 34.2159 0.430176 27 0.430176H27.0002Z" fill="white"/>
<path d="M27 13.356C24.3015 13.356 21.6636 14.1562 19.4199 15.6554C17.1761 17.1546 15.4273 19.2855 14.3947 21.7786C13.362 24.2717 13.0918 27.0151 13.6182 29.6617C14.1447 32.3084 15.4442 34.7395 17.3523 36.6477C19.2605 38.5558 21.6916 39.8553 24.3382 40.3817C26.9849 40.9082 29.7283 40.638 32.2214 39.6053C34.7145 38.5726 36.8454 36.8238 38.3446 34.5801C39.8438 32.3364 40.644 29.6984 40.644 26.9999C40.644 23.3813 39.2065 19.9109 36.6478 17.3522C34.089 14.7934 30.6186 13.356 27 13.356ZM27 35.8564C25.2484 35.8564 23.5361 35.337 22.0797 34.3638C20.6232 33.3906 19.4881 32.0074 18.8178 30.3891C18.1474 28.7708 17.9721 26.99 18.3138 25.272C18.6556 23.554 19.4991 21.976 20.7377 20.7374C21.9763 19.4988 23.5544 18.6553 25.2724 18.3136C26.9904 17.9718 28.7711 18.1472 30.3894 18.8176C32.0077 19.4879 33.3909 20.6231 34.3641 22.0795C35.3373 23.536 35.8567 25.2483 35.8567 26.9999C35.8566 29.3488 34.9235 31.6015 33.2626 33.2624C31.6017 34.9234 29.349 35.8564 27 35.8564Z" fill="white"/>
<path d="M41.1831 16.0053C42.9439 16.0053 44.3714 14.5778 44.3714 12.817C44.3714 11.0561 42.9439 9.62866 41.1831 9.62866C39.4222 9.62866 37.9948 11.0561 37.9948 12.817C37.9948 14.5778 39.4222 16.0053 41.1831 16.0053Z" fill="white"/>
</svg>
