<svg width="54" height="54" viewBox="0 0 54 54" fill="none" xmlns="http://www.w3.org/2000/svg">
<path d="M51.0295 2.97043C49.0498 0.990265 46.6646 0 43.8758 0H10.1251C7.33623 0 4.95104 0.990265 2.97047 2.97043C0.990281 4.95096 0 7.33599 0 10.1249V43.8747C0 46.6634 0.990281 49.0487 2.97047 51.0292C4.95104 53.0097 7.33623 54 10.1251 54H43.8754C46.6643 54 49.0495 53.0097 51.0292 51.0292C53.0097 49.0487 54 46.6635 54 43.8747V10.1249C53.9999 7.33599 53.0096 4.95059 51.0295 2.97043ZM16.4532 45.2105H8.33193V20.8121H16.4532V45.2105ZM15.7153 16.2949C14.8717 17.1036 13.7583 17.5079 12.3753 17.5079H12.3398C11.004 17.5079 9.92042 17.1036 9.08813 16.2949C8.25571 15.4863 7.83975 14.4844 7.83975 13.2892C7.83975 12.0705 8.26778 11.0625 9.12298 10.2654C9.97879 9.4686 11.0861 9.07 12.4453 9.07C13.8046 9.07 14.8945 9.4686 15.715 10.2654C16.5352 11.0625 16.9572 12.0705 16.9805 13.2892C16.9803 14.484 16.559 15.4858 15.7153 16.2949ZM45.6684 45.2105H37.5472V32.1679C37.5472 28.4887 36.1882 26.6485 33.4693 26.6485C32.4382 26.6485 31.5705 26.9355 30.8677 27.5098C30.1639 28.0838 29.6368 28.7811 29.2857 29.6021C29.1213 30.0234 29.0395 30.6795 29.0395 31.5699V45.2104H20.9183C20.9886 30.492 20.9886 22.3588 20.9183 20.8118H29.0395V24.2565C30.7471 21.5867 33.1718 20.2491 36.3172 20.2491C39.1297 20.2491 41.3917 21.1751 43.1026 23.0263C44.8136 24.8779 45.6689 27.6087 45.6689 31.2172L45.6684 45.2105Z" fill="white"/>
</svg>
