<svg width="83" height="30" viewBox="0 0 83 30" fill="none" xmlns="http://www.w3.org/2000/svg">
<circle cx="10" cy="15" r="10" fill="#E23328"/>
<path d="M31.632 24V7.056H35.4V24H31.632ZM34.536 24V20.688H42.912V24H34.536ZM45.0851 24V7.056H48.8531V24H45.0851ZM57.3964 24L50.8684 7.056H54.9004L59.8684 20.76H58.2124L63.2524 7.056H67.2364L60.6364 24H57.3964ZM69.2258 24V7.056H72.9938V24H69.2258ZM72.1058 24V20.736H81.3938V24H72.1058ZM72.1058 16.92V13.776H80.5538V16.92H72.1058ZM72.1058 10.296V7.056H81.2738V10.296H72.1058Z" fill="#242424"/>
</svg>
