<svg width="152" height="20" viewBox="0 0 152 20" fill="none" xmlns="http://www.w3.org/2000/svg">
<path d="M37.1565 12.8932C37.1547 13.3667 37.012 13.8438 36.5961 14.2142C36.1811 14.5855 35.463 14.868 34.2735 14.868H31.8795V10.9606H34.1669C35.2339 10.9606 35.9908 11.1813 36.4657 11.5247C36.9389 11.8709 37.153 12.3256 37.1565 12.8932Z" fill="#9D0A0E"/>
<path d="M35.2172 8.21465C35.663 7.88822 35.878 7.42547 35.8807 6.73225C35.8789 6.25605 35.745 5.84801 35.4084 5.54399C35.0709 5.23908 34.4982 5.02295 33.573 5.02295H31.8795V8.72582H33.0417C34.0479 8.72582 34.7687 8.54377 35.2172 8.21465Z" fill="#9D0A0E"/>
<path d="M39.7391 13.1802C39.7453 11.3741 38.5637 10.0011 36.6719 9.47375C37.183 9.2083 37.5865 8.88366 37.8826 8.48817C38.2773 7.95727 38.4668 7.30709 38.4641 6.5484C38.4668 5.61753 38.1064 4.66782 37.3337 3.95666C36.56 3.2464 35.3864 2.78634 33.7845 2.78724H29.3605V17.1055H34.5529C36.405 17.1055 37.7055 16.5943 38.5425 15.8365C39.3805 15.0823 39.74 14.0922 39.7391 13.1802ZM44.6707 19.8802H23.9143V0H44.6707V19.8802Z" fill="#9D0A0E"/>
<path d="M11.3011 8.21465C11.7461 7.88822 11.9619 7.42547 11.9655 6.73225C11.9646 6.25605 11.8298 5.84801 11.4932 5.54399C11.1549 5.23908 10.5821 5.02295 9.65608 5.02295H7.96434V8.72582H9.12653C10.1319 8.72582 10.8526 8.54377 11.3011 8.21465Z" fill="#9D0A0E"/>
<path d="M12.5497 11.5247C12.0756 11.1813 11.3179 10.9606 10.2517 10.9606H7.96434V14.868H10.3583C11.5478 14.868 12.2642 14.5855 12.6801 14.2142C13.0959 13.8438 13.2396 13.3667 13.2404 12.8932C13.2369 12.3256 13.0228 11.8709 12.5497 11.5247Z" fill="#9D0A0E"/>
<path d="M15.8239 13.1802C15.8301 11.3741 14.6467 10.0011 12.7576 9.47375C13.2669 9.2083 13.6705 8.88366 13.9656 8.48817C14.3621 7.95727 14.5498 7.30709 14.5489 6.5484C14.5498 5.61753 14.1903 4.66782 13.4176 3.95666C12.6449 3.2464 11.4712 2.78634 9.86935 2.78724H5.4444V17.1055H10.6368C12.4898 17.1055 13.7894 16.5943 14.6265 15.8365C15.4635 15.0823 15.8257 14.0922 15.8239 13.1802ZM20.7555 19.8802H0V0H20.7555V19.8802Z" fill="#9D0A0E"/>
<path d="M64.4649 13.2726L64.1318 13.4797C62.5247 14.4788 60.7766 15.0142 59.1888 15.0133C55.7895 14.9998 53.5514 12.9497 53.5426 9.96699C53.5461 7.04792 55.8837 4.88754 59.1024 4.88036C60.7422 4.88125 62.2269 5.31262 63.9917 6.2973L64.316 6.47845V3.81407L64.1768 3.75847C62.1872 2.95943 60.6462 2.6034 59.1245 2.6043C56.771 2.60341 54.7295 3.39437 53.2748 4.73598C51.8209 6.07848 50.9565 7.97341 50.9583 10.1499C50.9592 11.6664 51.5733 13.443 52.8897 14.8536C54.2017 16.2643 56.2238 17.292 58.9967 17.2911H59.0064C61.3061 17.2911 62.9009 16.7701 64.3424 16.0464L64.4649 15.9854V13.2726ZM68.5867 19.8802H47.8312V0H68.5867V19.8802Z" fill="#9D0A0E"/>
<path d="M89.7902 0.510886H92.3657V19.7797H90.0342L77.3762 4.93891V19.7797H74.829V0.510886H77.0239L89.7902 15.4767V0.510886Z" fill="#9D0A0E"/>
<path d="M97.2504 0.510886H107.984V2.96508H99.961V8.84126H107.713V11.3103H99.961V17.2974H108.241V19.7524H97.2504V0.510886Z" fill="#9D0A0E"/>
<path d="M136.911 0.510886H139.614L131.959 19.8633H131.364L125.174 4.19297L118.919 19.8633H118.337L110.707 0.510886H113.437L118.654 13.7934L123.907 0.510886H126.47L131.747 13.7934L136.911 0.510886Z" fill="#9D0A0E"/>
<path d="M146.959 11.7063L144.899 10.4323C143.607 9.62938 142.687 8.8397 142.141 8.06251C141.594 7.28532 141.32 6.39097 141.32 5.37945C141.32 3.86178 141.838 2.63 142.873 1.68331C143.907 0.735847 145.251 0.261719 146.905 0.261719C148.485 0.261719 149.936 0.713975 151.256 1.61692V4.74833C149.891 3.41265 148.422 2.74482 146.851 2.74482C145.965 2.74482 145.237 2.95337 144.668 3.37048C144.099 3.7868 143.814 4.32029 143.814 4.97094C143.814 5.54739 144.024 6.08868 144.443 6.59171C144.863 7.09629 145.537 7.6251 146.466 8.17811L148.537 9.42552C150.846 10.8299 152 12.6171 152 14.7869C152 16.332 151.492 17.5872 150.476 18.5526C149.459 19.518 148.137 20 146.511 20C144.642 20 142.939 19.4165 141.402 18.2456V14.7416C142.865 16.6296 144.56 17.5731 146.484 17.5731C147.334 17.5731 148.041 17.3325 148.606 16.8514C149.17 16.3702 149.453 15.768 149.453 15.0439C149.453 13.8715 148.621 12.7592 146.959 11.7063Z" fill="#9D0A0E"/>
</svg>
