<svg width="122" height="40" viewBox="0 0 122 40" fill="none" xmlns="http://www.w3.org/2000/svg">
<g clip-path="url(#clip0_2_291)">
<path d="M27.6671 21.3196C28.0807 21.1135 28.5356 20.866 28.9492 20.6598C29.1146 20.5774 29.6936 20.3712 29.7763 20.2062C29.8176 20.1238 29.7763 19.8763 29.7763 19.7526V18.7629V11.7114V4.8248V3.91758C29.7763 3.87635 29.8176 3.58769 29.7763 3.54645C29.7349 3.50521 29.4041 3.54645 29.3627 3.54645H28.4529C28.122 3.54645 28.1634 3.58769 27.9566 3.83511C27.1709 4.86604 26.3851 5.89696 25.5993 6.96913C25.2271 7.46397 24.8549 7.91758 24.5241 8.41243C24.2759 8.74232 24.2759 8.78356 23.821 8.78356L23.9451 6.06191C23.9864 5.40212 23.9864 4.74232 24.0278 4.08253C24.0278 3.83511 24.0692 3.58769 24.0692 3.34026C24.0692 3.25779 24.0278 3.01037 24.0692 2.96913C24.1519 2.84542 24.8963 2.92789 25.1031 2.92789H40.5702C40.6529 2.92789 41.0251 2.88665 41.1078 2.92789C41.1905 2.96913 41.1492 3.21655 41.1492 3.34026C41.1905 3.87635 41.1905 4.45366 41.2319 4.98975C41.2732 6.18562 41.3146 7.34026 41.3973 8.53614V8.78356C41.1905 8.78356 41.0251 8.8248 40.8597 8.70109C40.6942 8.57738 40.5702 8.32995 40.4461 8.165C39.9498 7.50521 39.4536 6.80418 38.9159 6.14439L37.4271 4.165C37.3444 4.04129 37.2203 3.75263 37.0549 3.67016C36.9309 3.58769 36.6827 3.62892 36.5173 3.62892H35.8556C35.7729 3.62892 35.442 3.58769 35.3593 3.62892C35.318 3.67016 35.3593 3.67016 35.318 3.75263C35.2353 4.08253 35.318 4.4949 35.318 4.8248V19.1753C35.318 19.464 35.2353 19.8763 35.318 20.165C35.4007 20.4537 36.0624 20.6598 36.3519 20.7836C36.6414 20.9485 37.1376 21.0722 37.3858 21.3196C37.4685 21.4021 37.5512 21.8145 37.4685 21.9382C37.4271 21.9794 37.2203 21.9382 37.179 21.9382H28.0807C27.998 21.9382 27.7085 21.9794 27.6671 21.9382C27.6258 21.7733 27.6671 21.4434 27.6671 21.3196ZM43.0102 20.5774V14.5568V4.70109V3.09284C43.0102 2.84542 43.0929 2.47428 43.0102 2.22686C42.9275 1.9382 42.4312 1.89696 42.1417 1.77325C41.9763 1.73202 41.4387 1.6083 41.3559 1.44336V1.11346H41.48C41.6454 1.03098 41.9763 1.03098 42.1831 0.989747C42.5553 0.907273 42.9275 0.866036 43.2583 0.783562C44.0854 0.618613 44.9539 0.453665 45.781 0.329954C46.2773 0.247479 46.7736 0.123768 47.2698 0.0412939C47.3939 0.0412939 47.8902 -0.0411803 47.9315 0.0412939C47.9729 0.082531 47.9315 0.247479 47.9315 0.288717V8.8248C49.5031 7.25779 52.2326 6.39181 54.4244 6.92789C56.3268 7.3815 56.9471 9.1547 56.9471 10.9691C56.9885 13.2784 56.9471 15.5464 56.9471 17.8557V19.7114C56.9471 19.9176 56.8644 20.4124 56.9471 20.6186C56.9885 20.7011 57.1539 20.7423 57.2366 20.8248C57.5261 20.9897 57.857 21.1547 58.1465 21.3196C58.1878 21.3609 58.3119 21.4021 58.3119 21.4434C58.3532 21.4846 58.3532 21.8557 58.3119 21.897C58.2705 21.9794 58.2705 21.9382 58.1465 21.9382C57.6915 22.0207 57.1953 21.9382 56.7817 21.9382H50.8264C50.7851 21.9382 50.5783 21.9794 50.537 21.9382C50.4956 21.897 50.4956 21.4434 50.537 21.4021C50.661 21.2372 51.1573 21.0722 51.3227 20.9485C51.4468 20.866 51.819 20.7423 51.9017 20.6186C51.9844 20.4949 51.9017 20.0413 51.9017 19.9176V18.2269C51.9017 15.8351 51.9431 13.4021 51.9017 11.0104C51.9017 10.3093 51.7776 9.48459 51.0746 9.11346C50.7024 8.90727 50.2061 8.86604 49.7925 8.86604C49.4617 8.86604 49.1309 8.94851 48.8414 9.03098C48.5932 9.11346 48.1383 9.27841 47.9729 9.48459C47.8488 9.64954 47.9315 9.89696 47.9315 10.1031V19.8351C47.9315 20.0413 47.8488 20.4537 47.9315 20.6186C47.9729 20.7011 48.1383 20.7836 48.2624 20.8248C48.5519 20.9897 48.9241 21.1547 49.2136 21.3196C49.2549 21.3609 49.3376 21.3609 49.3376 21.4021C49.379 21.4434 49.379 21.8145 49.3376 21.8557C49.2963 21.897 49.2549 21.897 49.1722 21.897C48.7173 21.9382 48.221 21.897 47.7661 21.897H41.8109C41.7695 21.897 41.5627 21.9382 41.5214 21.897C41.48 21.8557 41.5214 21.4434 41.5627 21.3609C41.6868 21.1959 42.1417 21.031 42.3071 20.9485C42.5966 20.8248 42.8034 20.7011 43.0102 20.5774ZM62.6542 14.8867C62.737 16.7011 63.3159 18.7217 64.9702 19.7114C65.8387 20.2062 66.9139 20.3712 67.9064 20.2887C69.1058 20.165 70.0983 19.5877 71.1322 19.0516C71.1322 19.2165 71.1736 19.5052 71.1322 19.6702C71.0495 19.8351 70.8427 20.0413 70.7187 20.165C70.5532 20.33 70.3465 20.5361 70.1397 20.7011C69.4366 21.2784 68.6509 21.6908 67.8237 21.9794C66.2522 22.5155 64.4325 22.4743 62.8197 22.0619C61.5376 21.732 60.3797 21.1135 59.5112 20.1238C58.6427 19.1341 58.1465 17.8557 57.9397 16.5361C57.4848 13.6908 58.0224 10.433 60.3797 8.53614C62.4475 6.88665 65.7559 6.55676 68.1959 7.54645C71.1736 8.74232 71.6698 12.1238 71.6698 14.9279H63.7709C63.3987 14.8867 63.0265 14.8867 62.6542 14.8867ZM62.5715 14.1856C63.3987 14.1444 64.2258 14.1031 65.0942 14.0207C65.5905 13.9794 66.1282 13.9794 66.6244 13.9382C66.7071 13.9382 66.9139 13.9382 66.9966 13.897C67.1207 13.8145 67.038 12.9897 67.038 12.8248C66.9966 11.3403 66.9553 9.52583 66.0868 8.24748C65.4665 7.34026 64.5153 7.50521 63.9363 8.32995C62.737 9.9382 62.5715 12.33 62.5715 14.1856ZM-0.0413513 29.2372C-0.0413513 26.9279 0.413564 24.5361 1.6956 22.598C2.93628 20.7011 4.92136 19.464 7.07187 18.8454C9.67729 18.1031 12.5722 18.1856 15.2603 18.6805C15.8393 18.8042 16.4183 18.9279 16.9559 19.0928C17.0386 19.1341 17.4109 19.2165 17.4522 19.299V19.4227C17.5763 19.9176 17.4936 20.5361 17.4936 21.031C17.5349 22.3093 17.5349 23.6289 17.5763 24.9073C17.4109 24.9073 17.1214 24.9485 16.9973 24.9073C16.9146 24.866 16.8319 24.6598 16.7905 24.5774C16.4597 24.0825 16.1288 23.5877 15.8393 23.0516C15.1363 21.9382 14.3919 20.8248 13.6888 19.7114C13.3166 19.0928 12.2827 19.0928 11.621 19.0928C10.8766 19.0928 10.1322 19.2165 9.51187 19.5877C8.10577 20.4537 7.44407 22.1444 7.07187 23.6702C6.49289 26.1031 6.53424 28.6598 6.65831 31.1341C6.78238 33.031 6.9478 35.0516 7.69221 36.7836C8.14712 37.8557 8.93289 38.8042 10.1322 39.0516C10.5044 39.1341 10.8766 39.1341 11.2902 39.0928C11.5383 39.0516 12.4068 39.0104 12.5309 38.7629C12.5722 38.6805 12.5309 38.4743 12.5309 38.3918V37.6908V33.3196V31.6289C12.5309 31.3403 12.6136 31.2166 12.3654 31.0516C12.0759 30.8867 11.7451 30.7217 11.4556 30.5155C11.2488 30.3918 10.8353 30.2681 10.7112 30.1031C10.6285 30.0207 10.5871 29.5671 10.6698 29.4846C10.7112 29.4021 10.7112 29.4434 10.8353 29.4434C11.2075 29.3609 11.7037 29.4434 12.0759 29.4434H18.4861C18.8997 29.4434 19.3546 29.4021 19.7681 29.4434H19.9336C19.9749 29.4846 19.9749 30.0619 19.9336 30.1444C19.8509 30.2681 19.4373 30.433 19.2719 30.5155C18.9824 30.6805 18.6515 30.8454 18.362 31.0516C18.0312 31.2166 18.0725 31.2165 18.0725 31.5877V38.3093C18.0725 38.3918 18.1139 38.598 18.0725 38.6805C17.9898 38.8867 17.1214 39.0104 16.8732 39.0928C16.1702 39.299 15.4258 39.464 14.6814 39.5877C13.2339 39.8351 11.7864 39.9176 10.339 39.8763C8.02306 39.7939 5.58306 39.299 3.68068 37.897C2.02645 36.7011 0.951191 34.8867 0.45492 32.9073C0.0827165 31.7526 -0.0413513 30.4743 -0.0413513 29.2372ZM19.0237 25.4846C19.0237 25.4021 18.9824 25.0722 19.0237 25.031C19.0651 24.9897 19.1064 25.031 19.1478 24.9897C19.3959 24.866 19.7268 24.866 20.0163 24.8248C20.9675 24.6598 21.9186 24.4949 22.9112 24.33C23.6556 24.2062 24.4 24.0413 25.1031 23.9588C25.3098 23.9176 25.558 23.9176 25.7648 24.0001C25.9715 24.0413 25.8888 24.0001 25.9302 24.165C26.0129 24.6598 25.9302 25.2372 25.9302 25.732V34.3506C25.9302 35.3815 25.6407 37.2784 26.6332 37.897C27.1295 38.2269 27.8325 38.2269 28.4115 38.1031C28.8664 38.0207 29.7349 37.6908 29.9003 37.1959C29.9417 37.0722 29.9003 36.9073 29.9003 36.7836V35.9176V30.1856V27.5464V26.6805C29.9003 26.598 29.9417 26.3506 29.9003 26.2681C29.7763 26.1444 29.3627 26.0207 29.2386 25.9794C28.9905 25.897 28.7837 25.7733 28.5356 25.6908C28.4529 25.6495 28.1634 25.6083 28.122 25.5258C28.0807 25.4846 28.0807 25.1135 28.122 25.0722C28.1634 25.031 28.1634 25.0722 28.2048 25.031C28.4115 24.9073 28.7837 24.9485 28.9905 24.9073C30.6861 24.6186 32.4231 24.2475 34.16 24.0001C34.3668 23.9588 34.5736 23.9588 34.7803 24.0001C34.9871 24.0413 34.9044 23.9588 34.9458 24.165C35.0285 24.5774 34.9458 25.1547 34.9458 25.6083V37.4846C34.9458 37.6083 34.9044 37.8145 34.9458 37.9794C34.9871 38.1031 34.9458 38.0619 35.1525 38.1444C35.5661 38.3093 36.021 38.5155 36.4346 38.6805C36.5587 38.7217 36.6 38.7217 36.6414 38.8042C36.6827 38.8867 36.6827 39.1753 36.6414 39.1753C36.5587 39.2578 36.1451 39.2165 36.0624 39.2578C35.1525 39.3815 34.2427 39.464 33.2915 39.5877C32.4644 39.6702 31.6373 39.7939 30.8515 39.8763C30.6861 39.9176 30.5207 39.9176 30.3553 39.8763C30.2725 39.8763 30.0244 39.8763 29.9831 39.8351C29.9417 39.7526 29.9831 39.4227 29.9831 39.3403V38.6392C29.9831 38.5155 30.0658 38.1856 29.9831 38.0619C29.9003 37.9382 29.7349 38.1031 29.6109 38.1856C29.28 38.4743 28.9078 38.7629 28.5356 38.9691C27.1709 39.7939 25.4753 40.165 23.9037 39.8351C22.7458 39.5877 21.7532 38.9279 21.257 37.8145C20.8848 37.031 20.802 36.165 20.802 35.3403V30.433V27.6289V26.6805C20.802 26.598 20.8434 26.3506 20.802 26.2681C20.7193 26.1444 20.2231 26.0207 20.099 25.9382C19.6854 25.7733 19.3546 25.6495 19.0237 25.4846ZM58.0224 23.9176C58.1051 23.9176 58.4773 23.9176 58.5187 24.0001C58.56 24.0413 58.5187 24.33 58.5187 24.3712V28.0001C58.5187 28.1238 58.4773 28.33 58.5187 28.4537V28.5361C58.6841 28.7011 58.7254 28.165 58.7668 28.1238C59.139 26.598 59.842 24.8248 61.4136 24.2062C61.7031 24.0825 61.9926 24.0413 62.282 24.0001C62.5302 24.0001 63.2332 23.9176 63.3573 24.1238C63.3987 24.2062 63.3573 24.4124 63.3573 24.4949V28.7011C62.3648 28.4949 61.2481 28.5361 60.297 28.7423C59.842 28.8248 59.4285 28.9485 59.0149 29.1547C58.8081 29.2372 58.7668 29.1959 58.7254 29.3609C58.6841 29.5258 58.7254 29.8145 58.7254 29.9794V37.9382C58.7254 38.0207 58.6841 38.1444 58.7254 38.2269C58.8081 38.3506 59.0976 38.433 59.2217 38.4743C59.4285 38.598 59.6766 38.7217 59.8834 38.8454C59.9661 38.8867 60.0902 38.9279 60.1315 39.0104C60.1729 39.0516 60.1729 39.5464 60.1315 39.5877C60.0902 39.6289 59.842 39.5877 59.7593 39.5877H52.8942C52.6875 39.5877 52.3153 39.6702 52.1498 39.5877H52.0258C51.9844 39.5464 52.0258 39.0928 52.0258 39.0516C52.1085 38.8042 52.6461 38.6392 52.8942 38.5155C53.0597 38.433 53.3905 38.3093 53.4732 38.1444C53.5146 38.0619 53.4732 37.8145 53.4732 37.732V36.866V26.2681C53.4732 26.2269 53.5146 26.0207 53.4732 25.9794C53.4319 25.9382 53.2251 25.897 53.1424 25.897C52.8942 25.8145 52.6461 25.732 52.398 25.6908C52.1498 25.6083 51.5295 25.5671 51.7363 25.1547C51.7776 25.031 51.9431 25.0722 52.1085 25.031C53.9281 24.7011 55.7065 24.3712 57.5261 24.0413C57.6915 23.9588 57.857 23.9588 58.0224 23.9176ZM73.6136 24.2887V20.9897V20.0413C73.6136 19.9176 73.6549 19.6702 73.6136 19.5464C73.5722 19.464 73.4068 19.4227 73.2827 19.3815C72.9519 19.2578 72.621 19.1341 72.2488 19.0104C72.0007 18.9279 71.8766 18.9691 71.8766 18.6805C71.8766 18.433 71.8353 18.5155 72.042 18.4743C72.497 18.3093 73.0346 18.3093 73.4895 18.2269C74.8542 17.9794 76.1776 17.732 77.5424 17.4846C77.8319 17.4434 78.1214 17.3609 78.4109 17.4021C78.7417 17.4434 78.7831 17.3609 78.7831 17.6495C78.8244 18.3093 78.7831 19.0104 78.7831 19.6702V37.732C78.7831 37.897 78.7417 37.897 78.8658 37.9794C79.1139 38.1444 79.5275 38.2269 79.7756 38.3093C79.941 38.3506 80.396 38.433 80.4787 38.5568C80.52 38.598 80.52 39.0516 80.4787 39.0928C80.4373 39.1341 80.1892 39.1341 80.1478 39.1341C79.5688 39.2165 79.0312 39.299 78.4522 39.3403C77.1702 39.5052 75.8881 39.6702 74.5648 39.8351C74.358 39.8763 73.8617 39.9588 73.779 39.7939C73.6963 39.6289 73.779 39.0928 73.779 38.9279C73.779 38.8042 73.8617 38.2681 73.779 38.1856C73.6963 38.1031 72.7865 38.9279 72.6624 39.0104C72.1661 39.3403 71.6285 39.5877 71.0495 39.7526C70.1397 40.0001 69.1058 40.0001 68.1959 39.7939C64.2258 38.8867 63.3987 34.1856 63.7295 30.7629C63.8949 28.9485 64.4739 27.1341 65.7146 25.8145C66.8726 24.6186 68.4441 24.0001 70.057 23.8763C71.2976 23.7526 72.497 23.8351 73.6136 24.2887ZM73.6136 37.4434V27.299V25.4021C73.6136 25.1547 73.5722 25.1135 73.2827 24.9485C72.7037 24.6186 71.9593 24.4949 71.339 24.7423C70.3878 25.1135 69.9329 26.2269 69.6848 27.1341C69.1885 28.7836 69.1471 30.5568 69.1885 32.2887C69.2298 33.7733 69.2712 35.5877 70.0983 36.9073C70.8427 38.0619 72.5383 38.3506 73.6136 37.4434ZM87.3024 23.9176C87.5092 23.9588 87.7573 23.8763 87.84 24.0825C87.8814 24.2062 87.84 24.4949 87.84 24.6186V37.5258C87.84 37.6908 87.7987 37.9382 87.84 38.1031C87.8814 38.2681 88.0468 38.3093 88.2122 38.3918C88.4604 38.5155 88.6671 38.6392 88.9153 38.7629C88.998 38.8042 89.2461 38.8867 89.2875 39.0104C89.2875 39.0516 89.3288 39.5464 89.2875 39.5877H89.1634C88.9153 39.6289 88.5844 39.5877 88.2949 39.5877H82.0088C81.8434 39.5877 81.3885 39.6702 81.2644 39.5877C81.1817 39.5464 81.1404 39.0516 81.2231 38.9691C81.3058 38.8454 81.5953 38.7629 81.7193 38.7217C81.9675 38.598 82.2156 38.433 82.4637 38.3093C82.6705 38.1856 82.6292 38.2269 82.6292 38.0619C82.7119 37.4434 82.6292 36.7423 82.6292 36.1238V32.866V26.9279C82.6292 26.7629 82.6705 26.4743 82.6292 26.3093C82.5878 26.1444 82.381 26.1444 82.2156 26.0619C81.9261 25.9382 81.678 25.8557 81.3885 25.732C81.3058 25.6908 80.9749 25.6495 80.8922 25.5258C80.8509 25.4846 80.8509 25.0722 80.8922 25.031C80.9336 24.9897 81.0163 25.031 81.0576 24.9897C81.3885 24.866 81.7607 24.866 82.1329 24.7836C82.6705 24.7011 83.1668 24.5774 83.7044 24.4949C84.7383 24.33 85.7309 24.1238 86.7648 23.9588C86.9715 24.0001 87.137 23.9588 87.3024 23.9176ZM87.8814 20.0825C87.7987 22.5568 84.4488 23.6289 82.9187 21.6908C82.2156 20.7836 82.1742 19.5464 82.7946 18.598C83.4149 17.6495 84.6143 17.2372 85.7309 17.4846C86.9715 17.732 87.8814 18.8042 87.8814 20.0825ZM105.995 38.1856V28.2475V26.3506C105.995 26.3093 106.037 26.1031 105.995 26.0619C105.954 25.9794 105.706 25.9382 105.623 25.9382L104.879 25.6908C104.755 25.6495 104.424 25.6083 104.341 25.4846C104.258 25.4021 104.3 25.1959 104.3 25.0722C104.3 24.8248 104.382 24.866 104.631 24.8248L107.36 24.33L110.09 23.8351C110.255 23.7939 110.379 23.7526 110.544 23.7526C110.627 23.7526 111.041 23.7526 111.123 23.7939C111.165 23.8351 111.123 24.0825 111.123 24.165V24.9485C111.123 25.0722 111.041 25.4434 111.123 25.5671C111.206 25.732 111.372 25.5671 111.496 25.4434C111.868 25.1547 112.24 24.9073 112.654 24.7011C114.142 23.8763 115.921 23.5052 117.616 23.7526C118.774 23.9176 119.725 24.5361 120.139 25.6495C120.428 26.433 120.47 27.2578 120.47 28.0825V37.4846C120.47 37.6495 120.428 37.9382 120.47 38.1031C120.511 38.2681 120.635 38.3093 120.842 38.3918C121.049 38.5155 121.297 38.6392 121.504 38.7629C121.586 38.8042 121.876 38.8867 121.917 39.0104C121.959 39.0928 121.959 39.5052 121.917 39.5464C121.876 39.6289 121.959 39.5464 121.835 39.5877C121.669 39.6702 121.297 39.5877 121.09 39.5877H115.176C114.928 39.5877 113.977 39.7114 113.853 39.5464C113.812 39.5052 113.812 39.0516 113.853 38.9691C113.894 38.8867 114.142 38.8042 114.225 38.7629C114.473 38.6392 114.68 38.5155 114.928 38.3918C115.011 38.3506 115.259 38.2681 115.3 38.1856C115.342 38.1031 115.3 37.9382 115.3 37.8557V36.9485V34.0619V28.4949C115.3 27.8351 115.342 27.0928 114.928 26.5155C114.597 26.0207 114.018 25.897 113.439 25.8557C112.984 25.8557 112.571 25.897 112.157 26.0207C111.951 26.1031 111.33 26.2681 111.206 26.5155C111.165 26.598 111.206 26.7629 111.206 26.8454V37.5258C111.206 37.6495 111.165 37.9382 111.206 38.0619C111.247 38.2269 111.496 38.2681 111.62 38.3506C111.826 38.4743 112.075 38.598 112.281 38.7217C112.364 38.7629 112.53 38.8454 112.571 38.8867C112.612 38.9279 112.612 39.4227 112.571 39.464C112.571 39.5052 112.53 39.464 112.488 39.464C112.323 39.5464 111.909 39.464 111.744 39.464H104.796C104.589 39.464 104.548 39.5052 104.506 39.3815C104.465 39.299 104.465 38.9279 104.506 38.8454C104.548 38.7629 104.796 38.6805 104.879 38.6392C105.292 38.598 105.623 38.3918 105.995 38.1856ZM97.2278 30.598C97.2278 29.5258 97.2692 28.4124 97.1865 27.299C97.0624 26.1031 96.7315 24.7836 95.3668 24.5361C94.9532 24.4537 94.2088 24.33 93.9193 24.6598C93.6298 24.9485 93.4231 25.3609 93.1749 25.6908L91.0658 28.5361C90.9417 28.7011 90.8176 29.031 90.6522 29.1135C90.6109 29.1547 90.1973 29.1547 90.1973 29.1135C90.1559 29.0722 90.1973 28.7836 90.1973 28.7011V25.3609C90.1973 25.2372 90.1559 25.031 90.1973 24.9073C90.28 24.7011 91.1898 24.5774 91.3966 24.4949C92.5546 24.2062 93.7539 24.0001 94.9532 23.9176C96.6488 23.7939 98.5512 23.8351 100.123 24.5774C101.363 25.1547 102.149 26.1856 102.356 27.5052C102.48 28.165 102.439 28.9073 102.439 29.5671V37.8145C102.439 37.9382 102.356 38.2681 102.439 38.3506C102.48 38.3918 102.687 38.433 102.728 38.433C103.059 38.5155 103.348 38.598 103.679 38.6805C103.886 38.7217 103.927 38.7217 103.927 38.9279C103.927 39.1341 103.969 39.1341 103.721 39.2165C103.431 39.3403 103.142 39.464 102.852 39.5464C101.322 40.0001 98.9234 40.1238 97.8068 38.7217C97.7241 38.598 97.4759 38.0619 97.3519 38.0207C97.1865 37.9794 96.6902 38.6392 96.5248 38.7629C95.8631 39.3403 94.9946 39.6702 94.1261 39.7939C92.5132 40.0001 90.7763 39.6702 89.7837 38.2681C88.9566 37.0722 88.7912 35.2165 89.4115 33.897C90.5281 31.3815 93.8366 31.1341 96.2353 30.7217C96.5248 30.7217 96.8556 30.6392 97.2278 30.598ZM97.2278 37.4434V31.3403C95.9871 31.4227 94.7051 31.5052 94.2502 32.866C93.9193 33.7733 93.9193 34.8454 94.0434 35.7939C94.1261 36.4537 94.2915 37.2784 94.9119 37.6908C95.5736 38.1444 96.6902 38.0619 97.2278 37.4434ZM44.8712 30.598C44.8712 29.5258 44.9125 28.4124 44.8298 27.299C44.7058 26.1031 44.3749 24.7836 43.0102 24.5361C42.5966 24.4537 41.8522 24.33 41.5627 24.6598C41.2732 24.9485 41.0664 25.3609 40.8183 25.6908L38.7092 28.5361C38.5851 28.7011 38.461 29.031 38.2956 29.1135C38.2542 29.1547 37.8407 29.1547 37.8407 29.1135C37.7993 29.0722 37.8407 28.7836 37.8407 28.7011V25.4021C37.8407 25.2784 37.7993 25.0722 37.8407 24.9485C37.9234 24.7423 38.7919 24.6186 39.04 24.5361C40.198 24.2475 41.3973 24.0413 42.5553 23.9588C44.2509 23.8351 46.1532 23.8763 47.7248 24.6186C48.9654 25.1959 49.7512 26.2269 49.958 27.5464C50.082 28.2062 50.0407 28.9485 50.0407 29.6083V37.8557C50.0407 37.9794 49.958 38.3093 50.0407 38.3918C50.082 38.433 50.2888 38.4743 50.3302 38.4743C50.661 38.5568 50.9505 38.6392 51.2814 38.7217C51.4881 38.7629 51.5295 38.7629 51.5295 38.9691C51.5295 39.1753 51.5709 39.1753 51.3227 39.2578C51.0332 39.3815 50.7437 39.5052 50.4542 39.5877C48.9241 40.0413 46.5254 40.165 45.4088 38.7629C45.3261 38.6392 45.078 38.1031 44.9539 38.0619C44.7885 38.0207 44.2922 38.6805 44.1681 38.8042C43.5064 39.3815 42.638 39.7114 41.7695 39.8351C40.1566 40.0413 38.4197 39.7114 37.4271 38.3093C36.6 37.1135 36.4346 35.2578 37.0549 33.9382C38.1715 31.4227 41.48 31.1753 43.8373 30.7629C44.1681 30.7217 44.499 30.6392 44.8712 30.598ZM44.8712 37.4434V31.3403C43.6305 31.4227 42.3485 31.5052 41.8936 32.866C41.5627 33.7733 41.5627 34.8454 41.6868 35.7939C41.7695 36.4537 41.9349 37.2784 42.5553 37.6908C43.217 38.1444 44.3336 38.0619 44.8712 37.4434Z" fill="#242424"/>
</g>
<defs>
<clipPath id="clip0_2_291">
<rect width="122" height="40" fill="white"/>
</clipPath>
</defs>
</svg>
