<svg width="122" height="46" viewBox="0 0 122 46" fill="none" xmlns="http://www.w3.org/2000/svg">
<path d="M7.96886 34.1085C6.21812 34.1085 4.70887 33.825 3.4411 33.2581C2.19345 32.671 1.04642 31.7903 0 30.6161L3.07888 27.5488C3.76307 28.3384 4.5177 28.9559 5.34276 29.4013C6.18794 29.8265 7.16392 30.039 8.27071 30.039C9.27688 30.039 10.0516 29.8568 10.595 29.4924C11.1584 29.128 11.4401 28.6218 11.4401 27.974C11.4401 27.3868 11.259 26.9111 10.8968 26.5466C10.5346 26.1822 10.0516 25.8684 9.44792 25.6052C8.86435 25.342 8.21034 25.0889 7.4859 24.846C6.78158 24.603 6.07726 24.3297 5.37294 24.026C4.66862 23.7021 4.01461 23.3073 3.41091 22.8416C2.82733 22.3557 2.35443 21.7585 1.99221 21.0499C1.62999 20.321 1.44888 19.41 1.44888 18.3167C1.44888 17.0007 1.7608 15.867 2.38462 14.9154C3.02857 13.9638 3.914 13.2451 5.04091 12.7592C6.16781 12.2531 7.46577 12 8.93478 12C10.4239 12 11.7822 12.2632 13.0098 12.7896C14.2574 13.316 15.2837 14.0347 16.0886 14.9458L13.0098 18.013C12.3658 17.3449 11.7118 16.8489 11.0477 16.5249C10.4038 16.201 9.66928 16.039 8.84422 16.039C8.01916 16.039 7.36516 16.201 6.88219 16.5249C6.39923 16.8286 6.15775 17.274 6.15775 17.8612C6.15775 18.4078 6.33886 18.8532 6.70108 19.1974C7.0633 19.5213 7.5362 19.8048 8.11978 20.0477C8.72348 20.2907 9.37749 20.5336 10.0818 20.7766C10.8063 21.0195 11.5206 21.303 12.225 21.6269C12.9293 21.9508 13.5732 22.3659 14.1568 22.872C14.7605 23.3579 15.2435 23.9855 15.6057 24.7549C15.9679 25.504 16.149 26.4353 16.149 27.5488C16.149 29.5936 15.4246 31.2032 13.9757 32.3774C12.5268 33.5315 10.5245 34.1085 7.96886 34.1085Z" fill="#242424"/>
<path d="M20.5261 33.7744V12.9111H25.1444V33.7744H20.5261ZM17.2057 22.9631V19.0152H28.4648V22.9631H17.2057Z" fill="#242424"/>
<path d="M36.9663 34.1085C35.4571 34.1085 34.0887 33.7744 32.8612 33.1063C31.6538 32.4179 30.6979 31.4866 29.9936 30.3124C29.2893 29.1381 28.9371 27.8221 28.9371 26.3644C28.9371 24.9067 29.2893 23.6009 29.9936 22.4469C30.6979 21.2928 31.6538 20.3818 32.8612 19.7137C34.0686 19.0253 35.437 18.6811 36.9663 18.6811C38.4957 18.6811 39.8641 19.0152 41.0715 19.6833C42.2789 20.3514 43.2348 21.2726 43.9391 22.4469C44.6434 23.6009 44.9956 24.9067 44.9956 26.3644C44.9956 27.8221 44.6434 29.1381 43.9391 30.3124C43.2348 31.4866 42.2789 32.4179 41.0715 33.1063C39.8641 33.7744 38.4957 34.1085 36.9663 34.1085ZM36.9663 29.8872C37.6304 29.8872 38.214 29.7455 38.7171 29.462C39.2201 29.1584 39.6025 28.7433 39.8641 28.2169C40.1458 27.6703 40.2867 27.0528 40.2867 26.3644C40.2867 25.6761 40.1458 25.0788 39.8641 24.5727C39.5824 24.0463 39.19 23.6414 38.6869 23.3579C38.2039 23.0542 37.6304 22.9024 36.9663 22.9024C36.3224 22.9024 35.7489 23.0542 35.2458 23.3579C34.7427 23.6414 34.3503 24.0463 34.0686 24.5727C33.7868 25.0991 33.646 25.7064 33.646 26.3948C33.646 27.0629 33.7868 27.6703 34.0686 28.2169C34.3503 28.7433 34.7427 29.1584 35.2458 29.462C35.7489 29.7455 36.3224 29.8872 36.9663 29.8872Z" fill="#242424"/>
<path d="M55.4448 34.0781C54.4587 34.0781 53.5532 33.8858 52.7281 33.5011C51.9031 33.1164 51.2289 32.59 50.7057 31.9219C50.1825 31.2336 49.8807 30.4541 49.8002 29.5835V23.3579C49.8807 22.4873 50.1825 21.6978 50.7057 20.9892C51.2289 20.2805 51.9031 19.7238 52.7281 19.3189C53.5532 18.914 54.4587 18.7115 55.4448 18.7115C56.8333 18.7115 58.0608 19.0456 59.1273 19.7137C60.214 20.3818 61.0592 21.2928 61.6629 22.4469C62.2867 23.6009 62.5986 24.9168 62.5986 26.3948C62.5986 27.8727 62.2867 29.1887 61.6629 30.3427C61.0592 31.4967 60.214 32.4078 59.1273 33.0759C58.0608 33.744 56.8333 34.0781 55.4448 34.0781ZM54.5996 29.8872C55.2637 29.8872 55.8372 29.7354 56.3201 29.4317C56.8232 29.128 57.2156 28.7129 57.4974 28.1866C57.7791 27.6602 57.9199 27.0629 57.9199 26.3948C57.9199 25.7064 57.7791 25.0991 57.4974 24.5727C57.2156 24.0463 56.8232 23.6414 56.3201 23.3579C55.8372 23.0542 55.2737 22.9024 54.6298 22.9024C53.9858 22.9024 53.4123 23.0542 52.9092 23.3579C52.4263 23.6414 52.0439 24.0463 51.7622 24.5727C51.4805 25.0991 51.3396 25.7064 51.3396 26.3948C51.3396 27.0629 51.4704 27.6602 51.732 28.1866C52.0137 28.7129 52.4061 29.128 52.9092 29.4317C53.4123 29.7354 53.9758 29.8872 54.5996 29.8872ZM46.993 40V19.0152H51.6113V22.8113L50.8566 26.3948L51.5509 29.9783V40H46.993Z" fill="#242424"/>
<path d="M70.3781 33.7744L63.5261 12.3341H68.235L73.2457 28.8243H71.4044L76.2944 12.3341H80.0072L84.8971 28.8243H83.086L88.0666 12.3341H92.7453L85.8932 33.7744H82.1805L77.2603 17.2842H79.011L74.0909 33.7744H70.3781Z" fill="#242424"/>
<path d="M98.8261 34.0781C97.4779 34.0781 96.2705 33.744 95.2039 33.0759C94.1575 32.4078 93.3224 31.4967 92.6986 30.3427C92.0949 29.1887 91.793 27.8727 91.793 26.3948C91.793 24.9168 92.0949 23.6009 92.6986 22.4469C93.3224 21.2928 94.1575 20.3818 95.2039 19.7137C96.2705 19.0456 97.4779 18.7115 98.8261 18.7115C99.8122 18.7115 100.698 18.9038 101.482 19.2885C102.287 19.6732 102.941 20.2097 103.444 20.898C103.948 21.5662 104.229 22.3355 104.29 23.2061V29.5835C104.229 30.4541 103.948 31.2336 103.444 31.9219C102.961 32.59 102.318 33.1164 101.513 33.5011C100.708 33.8858 99.8122 34.0781 98.8261 34.0781ZM99.7619 29.8872C100.748 29.8872 101.543 29.5633 102.146 28.9154C102.75 28.2473 103.052 27.4071 103.052 26.3948C103.052 25.7064 102.911 25.0991 102.629 24.5727C102.368 24.0463 101.985 23.6414 101.482 23.3579C100.999 23.0542 100.436 22.9024 99.7921 22.9024C99.1481 22.9024 98.5746 23.0542 98.0715 23.3579C97.5885 23.6414 97.1961 24.0463 96.8943 24.5727C96.6126 25.0991 96.4717 25.7064 96.4717 26.3948C96.4717 27.0629 96.6126 27.6602 96.8943 28.1866C97.176 28.7129 97.5684 29.128 98.0715 29.4317C98.5746 29.7354 99.138 29.8872 99.7619 29.8872ZM102.871 33.7744V29.7961L103.565 26.2126L102.871 22.6291V19.0152H107.399V33.7744H102.871Z" fill="#242424"/>
<path d="M110.349 33.7744V19.0152H114.967V33.7744H110.349ZM114.967 25.6659L113.035 24.1475C113.417 22.4266 114.061 21.0904 114.967 20.1388C115.872 19.1873 117.13 18.7115 118.74 18.7115C119.444 18.7115 120.058 18.8228 120.581 19.0456C121.125 19.248 121.598 19.5719 122 20.0174L119.253 23.5098C119.052 23.2871 118.8 23.115 118.499 22.9935C118.197 22.872 117.855 22.8113 117.472 22.8113C116.708 22.8113 116.094 23.0542 115.631 23.5401C115.188 24.0058 114.967 24.7144 114.967 25.6659Z" fill="#242424"/>
<path d="M7.96886 34.1085C6.21812 34.1085 4.70887 33.825 3.4411 33.2581C2.19345 32.671 1.04642 31.7903 0 30.6161L3.07888 27.5488C3.76307 28.3384 4.5177 28.9559 5.34276 29.4013C6.18794 29.8265 7.16392 30.039 8.27071 30.039C9.27688 30.039 10.0516 29.8568 10.595 29.4924C11.1584 29.128 11.4401 28.6218 11.4401 27.974C11.4401 27.3868 11.259 26.9111 10.8968 26.5466C10.5346 26.1822 10.0516 25.8684 9.44792 25.6052C8.86435 25.342 8.21034 25.0889 7.4859 24.846C6.78158 24.603 6.07726 24.3297 5.37294 24.026C4.66862 23.7021 4.01461 23.3073 3.41091 22.8416C2.82733 22.3557 2.35443 21.7585 1.99221 21.0499C1.62999 20.321 1.44888 19.41 1.44888 18.3167C1.44888 17.0007 1.7608 15.867 2.38462 14.9154C3.02857 13.9638 3.914 13.2451 5.04091 12.7592C6.16781 12.2531 7.46577 12 8.93478 12C10.4239 12 11.7822 12.2632 13.0098 12.7896C14.2574 13.316 15.2837 14.0347 16.0886 14.9458L13.0098 18.013C12.3658 17.3449 11.7118 16.8489 11.0477 16.5249C10.4038 16.201 9.66928 16.039 8.84422 16.039C8.01916 16.039 7.36516 16.201 6.88219 16.5249C6.39923 16.8286 6.15775 17.274 6.15775 17.8612C6.15775 18.4078 6.33886 18.8532 6.70108 19.1974C7.0633 19.5213 7.5362 19.8048 8.11978 20.0477C8.72348 20.2907 9.37749 20.5336 10.0818 20.7766C10.8063 21.0195 11.5206 21.303 12.225 21.6269C12.9293 21.9508 13.5732 22.3659 14.1568 22.872C14.7605 23.3579 15.2435 23.9855 15.6057 24.7549C15.9679 25.504 16.149 26.4353 16.149 27.5488C16.149 29.5936 15.4246 31.2032 13.9757 32.3774C12.5268 33.5315 10.5245 34.1085 7.96886 34.1085Z" fill="#242424"/>
<path d="M20.5261 33.7744V12.9111H25.1444V33.7744H20.5261ZM17.2057 22.9631V19.0152H28.4648V22.9631H17.2057Z" fill="#242424"/>
<path d="M36.9663 34.1085C35.4571 34.1085 34.0887 33.7744 32.8612 33.1063C31.6538 32.4179 30.6979 31.4866 29.9936 30.3124C29.2893 29.1381 28.9371 27.8221 28.9371 26.3644C28.9371 24.9067 29.2893 23.6009 29.9936 22.4469C30.6979 21.2928 31.6538 20.3818 32.8612 19.7137C34.0686 19.0253 35.437 18.6811 36.9663 18.6811C38.4957 18.6811 39.8641 19.0152 41.0715 19.6833C42.2789 20.3514 43.2348 21.2726 43.9391 22.4469C44.6434 23.6009 44.9956 24.9067 44.9956 26.3644C44.9956 27.8221 44.6434 29.1381 43.9391 30.3124C43.2348 31.4866 42.2789 32.4179 41.0715 33.1063C39.8641 33.7744 38.4957 34.1085 36.9663 34.1085ZM36.9663 29.8872C37.6304 29.8872 38.214 29.7455 38.7171 29.462C39.2201 29.1584 39.6025 28.7433 39.8641 28.2169C40.1458 27.6703 40.2867 27.0528 40.2867 26.3644C40.2867 25.6761 40.1458 25.0788 39.8641 24.5727C39.5824 24.0463 39.19 23.6414 38.6869 23.3579C38.2039 23.0542 37.6304 22.9024 36.9663 22.9024C36.3224 22.9024 35.7489 23.0542 35.2458 23.3579C34.7427 23.6414 34.3503 24.0463 34.0686 24.5727C33.7868 25.0991 33.646 25.7064 33.646 26.3948C33.646 27.0629 33.7868 27.6703 34.0686 28.2169C34.3503 28.7433 34.7427 29.1584 35.2458 29.462C35.7489 29.7455 36.3224 29.8872 36.9663 29.8872Z" fill="#242424"/>
<path d="M55.4448 34.0781C54.4587 34.0781 53.5532 33.8858 52.7281 33.5011C51.9031 33.1164 51.2289 32.59 50.7057 31.9219C50.1825 31.2336 49.8807 30.4541 49.8002 29.5835V23.3579C49.8807 22.4873 50.1825 21.6978 50.7057 20.9892C51.2289 20.2805 51.9031 19.7238 52.7281 19.3189C53.5532 18.914 54.4587 18.7115 55.4448 18.7115C56.8333 18.7115 58.0608 19.0456 59.1273 19.7137C60.214 20.3818 61.0592 21.2928 61.6629 22.4469C62.2867 23.6009 62.5986 24.9168 62.5986 26.3948C62.5986 27.8727 62.2867 29.1887 61.6629 30.3427C61.0592 31.4967 60.214 32.4078 59.1273 33.0759C58.0608 33.744 56.8333 34.0781 55.4448 34.0781ZM54.5996 29.8872C55.2637 29.8872 55.8372 29.7354 56.3201 29.4317C56.8232 29.128 57.2156 28.7129 57.4974 28.1866C57.7791 27.6602 57.9199 27.0629 57.9199 26.3948C57.9199 25.7064 57.7791 25.0991 57.4974 24.5727C57.2156 24.0463 56.8232 23.6414 56.3201 23.3579C55.8372 23.0542 55.2737 22.9024 54.6298 22.9024C53.9858 22.9024 53.4123 23.0542 52.9092 23.3579C52.4263 23.6414 52.0439 24.0463 51.7622 24.5727C51.4805 25.0991 51.3396 25.7064 51.3396 26.3948C51.3396 27.0629 51.4704 27.6602 51.732 28.1866C52.0137 28.7129 52.4061 29.128 52.9092 29.4317C53.4123 29.7354 53.9758 29.8872 54.5996 29.8872ZM46.993 40V19.0152H51.6113V22.8113L50.8566 26.3948L51.5509 29.9783V40H46.993Z" fill="#242424"/>
<path d="M70.3781 33.7744L63.5261 12.3341H68.235L73.2457 28.8243H71.4044L76.2944 12.3341H80.0072L84.8971 28.8243H83.086L88.0666 12.3341H92.7453L85.8932 33.7744H82.1805L77.2603 17.2842H79.011L74.0909 33.7744H70.3781Z" fill="#242424"/>
<path d="M98.8261 34.0781C97.4779 34.0781 96.2705 33.744 95.2039 33.0759C94.1575 32.4078 93.3224 31.4967 92.6986 30.3427C92.0949 29.1887 91.793 27.8727 91.793 26.3948C91.793 24.9168 92.0949 23.6009 92.6986 22.4469C93.3224 21.2928 94.1575 20.3818 95.2039 19.7137C96.2705 19.0456 97.4779 18.7115 98.8261 18.7115C99.8122 18.7115 100.698 18.9038 101.482 19.2885C102.287 19.6732 102.941 20.2097 103.444 20.898C103.948 21.5662 104.229 22.3355 104.29 23.2061V29.5835C104.229 30.4541 103.948 31.2336 103.444 31.9219C102.961 32.59 102.318 33.1164 101.513 33.5011C100.708 33.8858 99.8122 34.0781 98.8261 34.0781ZM99.7619 29.8872C100.748 29.8872 101.543 29.5633 102.146 28.9154C102.75 28.2473 103.052 27.4071 103.052 26.3948C103.052 25.7064 102.911 25.0991 102.629 24.5727C102.368 24.0463 101.985 23.6414 101.482 23.3579C100.999 23.0542 100.436 22.9024 99.7921 22.9024C99.1481 22.9024 98.5746 23.0542 98.0715 23.3579C97.5885 23.6414 97.1961 24.0463 96.8943 24.5727C96.6126 25.0991 96.4717 25.7064 96.4717 26.3948C96.4717 27.0629 96.6126 27.6602 96.8943 28.1866C97.176 28.7129 97.5684 29.128 98.0715 29.4317C98.5746 29.7354 99.138 29.8872 99.7619 29.8872ZM102.871 33.7744V29.7961L103.565 26.2126L102.871 22.6291V19.0152H107.399V33.7744H102.871Z" fill="#242424"/>
<path d="M110.349 33.7744V19.0152H114.967V33.7744H110.349ZM114.967 25.6659L113.035 24.1475C113.417 22.4266 114.061 21.0904 114.967 20.1388C115.872 19.1873 117.13 18.7115 118.74 18.7115C119.444 18.7115 120.058 18.8228 120.581 19.0456C121.125 19.248 121.598 19.5719 122 20.0174L119.253 23.5098C119.052 23.2871 118.8 23.115 118.499 22.9935C118.197 22.872 117.855 22.8113 117.472 22.8113C116.708 22.8113 116.094 23.0542 115.631 23.5401C115.188 24.0058 114.967 24.7144 114.967 25.6659Z" fill="#242424"/>
<path d="M115 8L101 8L101 -5.8542e-07L115 8Z" fill="#4670DD"/>
<path d="M115 8L101 8L101 16L115 8Z" fill="#FFB800"/>
</svg>
