<svg width="161" height="28" viewBox="0 0 161 28" fill="none" xmlns="http://www.w3.org/2000/svg">
<path d="M9.20791 9.91865V12.4542H10.5503V9.84408V8.5017V6.04068H9.20791V8.35255V9.91865ZM9.20791 5.44407H10.5503H13.4587C13.3842 5.14576 13.1604 4.47458 13.0859 4.1017H10.5503H9.20791H6.52316C6.44859 4.4 6.22486 5.14576 6.15028 5.44407H9.20791ZM10.5503 13.2H9.20791H6.22486C6.29944 13.4983 6.52317 14.1695 6.67233 14.5424H9.13333H10.6994H13.0113C13.0859 14.2441 13.3842 13.5729 13.4587 13.2H10.5503ZM18.4554 13.2H16.1435C15.9943 13.9458 15.8452 14.3932 15.7706 14.5424H17.4859C16.4418 16.0339 14.9503 17.1525 13.3096 17.8237C13.9808 17.0034 14.5774 15.8847 15.0249 14.5424C15.174 13.9458 15.3232 13.4237 15.3977 13.1254C15.6215 12.3051 15.696 11.4102 15.7706 10.5153H14.4283C14.3537 11.3356 14.2045 12.2305 13.9808 12.9763C13.9808 12.9763 13.8316 13.4983 13.5333 14.4678V14.5424C13.5333 14.5424 13.5333 14.5424 13.5333 14.617C12.7876 16.5559 11.6689 17.8237 10.4757 18.1966V15.139H9.13333V18.2712C7.86554 17.9729 6.7469 16.6305 5.92656 14.6915C5.92656 14.617 5.92656 14.6169 5.85198 14.5424C5.62825 13.8712 5.4791 13.4237 5.40452 13.2C5.18079 12.3797 5.03163 11.4848 4.95706 10.5898H3.61469C3.68927 11.4848 3.83842 12.3051 3.98758 13.1254C4.06215 13.2746 4.13673 13.8712 4.36046 14.5424C4.80791 15.8102 5.32994 16.8542 6.00112 17.7492C4.43502 17.078 3.01808 15.9593 2.04859 14.5424H3.61469C3.54012 14.3186 3.39097 13.9458 3.24181 13.2H1.22825C0.706211 12.1559 0.40792 11.0373 0.333344 9.91865H8.38757V8.57627H4.88248H3.54011H0.333344C0.40792 7.45763 0.631649 6.41356 1.07911 5.44407H3.16723C3.31639 4.69831 3.39096 4.32542 3.46553 4.1017H1.75029C2.79436 2.53559 4.28587 1.26781 6.00112 0.522043C5.25536 1.41696 4.65875 2.61018 4.2113 4.02713C3.98757 4.62374 3.91299 5.22034 3.83841 5.44407C3.68926 6.26441 3.54011 7.08475 3.54011 7.90509H4.88248C4.95705 7.08475 5.03163 6.33898 5.25536 5.59322C5.25536 5.59322 5.40451 4.92204 5.62824 4.17628V4.1017V4.02713C6.44858 1.78984 7.6418 0.372881 8.98417 0V3.50509H10.3266V0.0745808C11.5944 0.522038 12.713 1.93899 13.5333 4.02713C13.8316 4.92204 13.9808 5.6678 13.9808 5.6678C14.1299 6.41356 14.2791 7.23391 14.3537 7.97967H15.696C15.6215 7.15933 15.5469 6.33899 15.3977 5.51865C15.3232 5.29492 15.2486 4.77289 15.0249 4.17628C14.5774 2.68475 13.9062 1.49153 13.1604 0.522043C15.0249 1.26781 16.5164 2.5356 17.635 4.17628H15.7706C15.8452 4.4 15.9943 4.77289 16.1435 5.51865H18.3808C18.8282 6.48814 19.052 7.53221 19.1265 8.65085H15.7706H14.4283H11.0723V9.99323H14.4283H15.7706H19.1265C19.052 11.1119 18.6791 12.3051 18.2316 13.4237L18.4554 13.2ZM26.6588 9.69491H29.8655L35.0113 21.7017H31.4316L30.5367 19.539H25.913L25.0181 21.7017H21.513L26.6588 9.69491ZM29.5672 17.078L28.2249 13.6475L26.8825 17.078H29.5672ZM39.113 21.9254C38.1435 21.9254 37.3232 21.7017 36.8011 21.2542C36.2791 20.8068 35.9808 19.9865 35.9808 18.8678V15.139H34.8621V12.5288H35.9808V10.217H39.2621V12.5288H41.4248V15.139H39.2621V18.2712C39.2621 18.5695 39.3367 18.8678 39.4859 18.9424C39.635 19.0915 39.8588 19.1661 40.1571 19.1661C40.3808 19.1661 40.6045 19.1661 40.8282 19.0915C41.052 19.017 41.2011 18.9424 41.4248 18.8678V21.4034C41.1265 21.5526 40.7537 21.7017 40.3808 21.7763C40.0079 21.8509 39.635 21.9254 39.113 21.9254ZM42.9164 9.32203H46.1977V21.7763H42.9164V9.32203ZM50.6723 21.9254C50.2249 21.9254 49.7774 21.8509 49.4045 21.7017C49.0316 21.5525 48.7333 21.4034 48.435 21.1797C48.1367 20.9559 47.913 20.6576 47.7638 20.2848C47.6147 19.9119 47.5401 19.539 47.5401 19.0915C47.5401 18.6441 47.6147 18.1966 47.8384 17.8237C47.9876 17.4508 48.2859 17.1526 48.5842 16.9288C48.8825 16.7051 49.2554 16.4814 49.7028 16.4068C50.1503 16.3322 50.6723 16.1831 51.1943 16.1831C51.6418 16.1831 52.0147 16.1831 52.4621 16.2576C52.835 16.3322 53.2079 16.4068 53.4316 16.4814V16.3322C53.4316 15.8847 53.2825 15.5119 52.9842 15.2136C52.6859 14.9152 52.2384 14.8407 51.5672 14.8407C51.0452 14.8407 50.5977 14.9153 50.2249 14.9898C49.852 15.0644 49.4045 15.2136 49.0316 15.3627L48.3605 13.0508C48.8825 12.8271 49.4791 12.678 50.0011 12.5288C50.5977 12.3797 51.2689 12.3051 52.0893 12.3051C52.9096 12.3051 53.6554 12.3797 54.1774 12.6034C54.774 12.8271 55.2215 13.0508 55.5943 13.4237C55.9672 13.7966 56.1909 14.1695 56.3401 14.6915C56.4893 15.139 56.5638 15.7356 56.5638 16.4068V21.7017H53.357V20.7322C53.0587 21.1051 52.6859 21.4034 52.2384 21.5525C51.7909 21.8508 51.2689 21.9254 50.6723 21.9254ZM51.791 19.9119C52.2384 19.9119 52.6859 19.7627 52.9842 19.539C53.2825 19.2407 53.4316 18.8678 53.4316 18.4203V17.9729C53.2825 17.8983 53.0588 17.8237 52.835 17.8237C52.6113 17.7491 52.3876 17.7492 52.1638 17.7492C51.7164 17.7492 51.3435 17.8237 51.0452 18.0475C50.8215 18.2712 50.6723 18.5695 50.6723 18.8678C50.6723 19.1661 50.7469 19.4644 50.9706 19.6136C51.1944 19.8373 51.4927 19.9119 51.791 19.9119ZM58.2791 12.5288H61.5604V13.7966C61.7096 13.5729 61.8588 13.4237 62.0825 13.2C62.2316 13.0509 62.4554 12.8271 62.6791 12.7525C62.9028 12.6034 63.1265 12.5288 63.4248 12.4542C63.7231 12.3797 64.0215 12.3051 64.3198 12.3051C65.2893 12.3051 66.1096 12.6034 66.6316 13.2C67.1537 13.7966 67.452 14.6169 67.452 15.661V21.7017H64.1706V16.7051C64.1706 16.183 64.0215 15.8102 63.7977 15.5119C63.574 15.2136 63.2757 15.139 62.8282 15.139C62.4554 15.139 62.0825 15.2881 61.8588 15.5119C61.635 15.8102 61.4859 16.183 61.4859 16.7051V21.7017H58.2045V12.5288H58.2791ZM72.896 21.9254C71.9266 21.9254 71.1062 21.7017 70.5842 21.2542C70.0621 20.8068 69.7638 19.9865 69.7638 18.8678V15.139H68.6452V12.5288H69.7638V10.217H73.0452V12.5288H75.2079V15.139H73.0452V18.2712C73.0452 18.5695 73.1198 18.8678 73.2689 18.9424C73.4181 19.0915 73.6418 19.1661 73.9401 19.1661C74.1638 19.1661 74.3876 19.1661 74.6113 19.0915C74.835 19.017 74.9842 18.9424 75.2079 18.8678V21.4034C74.9096 21.5526 74.5367 21.7017 74.1638 21.7763C73.791 21.8509 73.3435 21.9254 72.896 21.9254ZM76.5503 9.32203H79.9808V11.7085H76.5503V9.32203ZM76.6249 12.5288H79.9062V21.7763H76.6249V12.5288ZM86.2452 22C85.574 22 84.9028 21.8508 84.3062 21.6271C83.7096 21.4034 83.1876 21.0305 82.7401 20.5831C82.2926 20.1356 81.9943 19.6136 81.696 19.0915C81.4723 18.4949 81.3232 17.8983 81.3232 17.2271C81.3232 16.5559 81.4723 15.9593 81.696 15.3627C81.9198 14.7661 82.2926 14.2441 82.7401 13.7966C83.1876 13.3492 83.7096 12.9763 84.3062 12.7525C84.9028 12.5288 85.574 12.3797 86.3198 12.3797C87.2893 12.3797 88.1096 12.6034 88.7062 12.9763C89.3774 13.3491 89.8994 13.8712 90.2723 14.4678L88.035 16.1085C87.8113 15.8102 87.5876 15.5864 87.2893 15.3627C86.991 15.2136 86.6926 15.139 86.3198 15.139C86.0215 15.139 85.7977 15.2136 85.574 15.2881C85.3503 15.3627 85.1265 15.5119 84.9774 15.7356C84.8282 15.9593 84.6791 16.1085 84.6045 16.4068C84.5299 16.7051 84.4554 16.9288 84.4554 17.2271C84.4554 17.5254 84.5299 17.8237 84.6045 18.0475C84.6791 18.2712 84.8282 18.4949 84.9774 18.7186C85.1265 18.9424 85.3503 19.0915 85.574 19.1661C85.7977 19.2407 86.0215 19.3153 86.3198 19.3153C86.6926 19.3153 87.0655 19.2407 87.2893 19.0915C87.5876 18.9424 87.8113 18.7187 88.1096 18.4203L90.2723 19.9865C89.8249 20.6576 89.3028 21.1051 88.6316 21.5525C88.035 21.7763 87.2147 22 86.2452 22ZM102.205 22C101.31 22 100.564 21.8508 99.8181 21.5525C99.0723 21.2542 98.4011 20.8068 97.8791 20.2848C97.3571 19.7627 96.9096 19.0915 96.5367 18.3458C96.2384 17.6 96.0147 16.7797 96.0147 15.8848C96.0147 14.9898 96.1638 14.2441 96.4621 13.4237C96.7605 12.678 97.2079 12.0068 97.8045 11.4102C98.4011 10.8136 98.9977 10.4407 99.8181 10.0678C100.564 9.76949 101.459 9.62035 102.354 9.62035C102.95 9.62035 103.547 9.69492 104.069 9.7695C104.591 9.91865 105.038 10.0678 105.486 10.2915C105.933 10.5153 106.306 10.8136 106.605 11.1119C106.977 11.4102 107.276 11.7831 107.499 12.1559L104.964 14.0949C104.591 13.6475 104.218 13.3492 103.845 13.0508C103.398 12.8271 102.95 12.678 102.354 12.678C101.906 12.678 101.533 12.7526 101.16 12.9017C100.788 13.0509 100.489 13.2746 100.266 13.5729C100.042 13.8712 99.8181 14.1695 99.6689 14.617C99.5198 15.0644 99.4452 15.4373 99.4452 15.8102C99.4452 16.2576 99.5198 16.7051 99.6689 17.078C99.8181 17.4508 100.042 17.8237 100.266 18.122C100.489 18.4204 100.788 18.6441 101.16 18.7932C101.533 18.9424 101.906 19.0169 102.354 19.0169C102.652 19.0169 102.95 19.0169 103.174 18.9424C103.398 18.8678 103.696 18.7932 103.845 18.6441C104.069 18.4949 104.293 18.3458 104.442 18.1966C104.666 18.0475 104.815 17.8237 104.964 17.6L107.499 19.3898C107.201 19.7627 106.903 20.1356 106.53 20.4339C106.157 20.7322 105.784 21.0305 105.411 21.2542C104.964 21.478 104.516 21.7017 103.994 21.8509C103.472 21.9254 102.876 22 102.205 22ZM113.391 22C112.645 22 111.974 21.8508 111.303 21.6271C110.706 21.4034 110.11 21.0305 109.662 20.5831C109.215 20.1356 108.842 19.6136 108.618 19.0915C108.394 18.5695 108.245 17.8983 108.245 17.2271C108.245 16.5559 108.394 15.9593 108.618 15.3627C108.842 14.7661 109.215 14.2441 109.662 13.7966C110.11 13.3492 110.632 12.9763 111.303 12.7525C111.899 12.5288 112.645 12.3797 113.391 12.3797C114.137 12.3797 114.808 12.5288 115.479 12.7525C116.076 12.9763 116.672 13.3492 117.12 13.7966C117.567 14.2441 117.94 14.7661 118.164 15.2881C118.388 15.8847 118.537 16.4814 118.537 17.1525C118.537 17.8237 118.388 18.4203 118.164 19.0169C117.94 19.6136 117.567 20.1356 117.12 20.5831C116.672 21.0305 116.15 21.4034 115.479 21.6271C114.808 21.8508 114.137 22 113.391 22ZM113.391 19.2407C113.689 19.2407 113.988 19.1661 114.211 19.0915C114.435 19.017 114.659 18.8678 114.808 18.6441C114.957 18.4949 115.106 18.2712 115.181 17.9729C115.255 17.7492 115.33 17.4509 115.33 17.2271C115.33 16.9288 115.255 16.7051 115.181 16.4068C115.106 16.1831 114.957 15.9593 114.733 15.7356C114.51 15.5119 114.36 15.3627 114.137 15.2881C113.913 15.139 113.615 15.139 113.316 15.139C113.018 15.139 112.72 15.2136 112.496 15.2881C112.272 15.3627 112.049 15.5119 111.899 15.7356C111.75 15.9593 111.601 16.1085 111.527 16.4068C111.452 16.6305 111.377 16.9288 111.377 17.1525C111.377 17.4508 111.452 17.6746 111.527 17.9729C111.601 18.1966 111.75 18.4203 111.974 18.6441C112.123 18.7932 112.347 19.017 112.571 19.0915C112.869 19.1661 113.167 19.2407 113.391 19.2407ZM123.011 21.9254C122.042 21.9254 121.221 21.6271 120.699 21.0305C120.177 20.4339 119.879 19.6136 119.879 18.5695V12.5288H123.16V17.5254C123.16 18.0475 123.31 18.4203 123.533 18.7186C123.757 19.017 124.055 19.0915 124.503 19.0915C124.876 19.0915 125.174 18.9424 125.472 18.7186C125.771 18.4949 125.845 18.0475 125.845 17.5254V12.5288H129.127V21.7763H125.845V20.5085C125.547 20.8814 125.174 21.2542 124.727 21.5525C124.205 21.7763 123.682 21.9254 123.011 21.9254ZM130.767 12.5288H134.049V13.7966C134.198 13.5729 134.347 13.4237 134.571 13.2C134.72 13.0509 134.943 12.8271 135.167 12.7525C135.391 12.6034 135.615 12.5288 135.913 12.4542C136.211 12.3797 136.51 12.3051 136.808 12.3051C137.777 12.3051 138.598 12.6034 139.12 13.2C139.642 13.7966 139.94 14.6169 139.94 15.661V21.7017H136.659V16.7051C136.659 16.183 136.51 15.8102 136.286 15.5119C136.062 15.2136 135.764 15.139 135.316 15.139C134.943 15.139 134.571 15.2881 134.347 15.5119C134.123 15.7356 133.974 16.183 133.974 16.7051V21.7017H130.693V12.5288H130.767ZM146.205 22C145.533 22 144.862 21.8508 144.266 21.6271C143.669 21.4034 143.147 21.0305 142.699 20.5831C142.252 20.1356 141.954 19.6136 141.655 19.0915C141.432 18.4949 141.282 17.8983 141.282 17.2271C141.282 16.5559 141.432 15.9593 141.655 15.3627C141.879 14.7661 142.252 14.2441 142.699 13.7966C143.147 13.3492 143.669 12.9763 144.266 12.7525C144.862 12.5288 145.533 12.3797 146.279 12.3797C147.249 12.3797 148.069 12.6034 148.666 12.9763C149.337 13.3491 149.859 13.8712 150.232 14.4678L147.994 16.1085C147.771 15.8102 147.547 15.5864 147.249 15.3627C146.95 15.2136 146.652 15.139 146.279 15.139C145.981 15.139 145.757 15.2136 145.533 15.2881C145.31 15.3627 145.086 15.5119 144.937 15.7356C144.788 15.9593 144.638 16.1085 144.564 16.4068C144.489 16.6305 144.415 16.9288 144.415 17.2271C144.415 17.5254 144.489 17.8237 144.564 18.0475C144.638 18.2712 144.788 18.4949 144.937 18.7186C145.086 18.9424 145.31 19.0915 145.533 19.1661C145.757 19.2407 145.981 19.3153 146.279 19.3153C146.652 19.3153 147.025 19.2407 147.249 19.0915C147.547 18.9424 147.771 18.7187 148.069 18.4203L150.232 19.9865C149.784 20.6576 149.262 21.1051 148.591 21.5525C147.994 21.7763 147.174 22 146.205 22ZM151.499 9.32203H154.93V11.7085H151.499V9.32203ZM151.499 12.5288H154.781V21.7763H151.499V12.5288ZM156.72 9.32203H160.001V21.7763H156.72V9.32203Z" fill="#004D7F"/>
</svg>
