<svg width="61" height="28" viewBox="0 0 61 28" fill="none" xmlns="http://www.w3.org/2000/svg">
<g clip-path="url(#clip0_107_959)">
<path d="M18.9778 8H14.2333C12.6155 8 11.064 8.63214 9.91998 9.75736C8.77601 10.8826 8.13333 12.4087 8.13333 14C8.13333 15.5913 8.77601 17.1174 9.91998 18.2426C11.064 19.3679 12.6155 20 14.2333 20H19.5403C19.7507 20 19.9524 19.9178 20.1011 19.7715C20.2498 19.6253 20.3333 19.4269 20.3333 19.22V5.44667C20.3348 4.24655 20.7392 3.0805 21.4836 2.12969C22.2281 1.17887 23.271 0.496533 24.4503 0.18868C25.6296 -0.119173 26.8793 -0.0353003 28.0051 0.427266C29.1309 0.889833 30.07 1.70519 30.6762 2.74667L36.6 12.94V5.44667C36.6014 4.24655 37.0058 3.0805 37.7503 2.12969C38.4948 1.17887 39.5377 0.496533 40.717 0.18868C41.8963 -0.119173 43.1459 -0.0353003 44.2718 0.427266C45.3976 0.889833 46.3366 1.70519 46.9429 2.74667L52.8667 12.94V0H56.2556L56.9333 0.666667L57.6111 0H61V22.5533C60.9986 23.7534 60.5942 24.9195 59.8497 25.8703C59.1052 26.8211 58.0623 27.5035 56.883 27.8113C55.7037 28.1192 54.4541 28.0353 53.3282 27.5727C52.2024 27.1102 51.2634 26.2948 50.6571 25.2533L44.7333 15.06V22.5533C44.7319 23.7534 44.3275 24.9195 43.583 25.8703C42.8386 26.8211 41.7957 27.5035 40.6164 27.8113C39.4371 28.1192 38.1874 28.0353 37.0616 27.5727C35.9357 27.1102 34.9967 26.2948 34.3904 25.2533L28.4667 15.06V22.5533C28.4667 23.9979 27.8833 25.3833 26.8448 26.4047C25.8063 27.4262 24.3978 28 22.9292 28H14.2333C10.4584 28 6.83812 26.525 4.16885 23.8995C1.49958 21.274 0 17.713 0 14C0 10.287 1.49958 6.72601 4.16885 4.10051C6.83812 1.475 10.4584 0 14.2333 0H18.9778V3.33333L18.3 4L18.9778 4.66667V8Z" fill="#CC0000"/>
<path d="M18.9778 4H14.2333C11.5369 4 8.95102 5.05357 7.0444 6.92893C5.13778 8.80429 4.06665 11.3478 4.06665 14C4.06665 16.6522 5.13778 19.1957 7.0444 21.0711C8.95102 22.9464 11.5369 24 14.2333 24H22.9292C23.1224 24 23.3136 23.9626 23.492 23.8899C23.6705 23.8172 23.8326 23.7106 23.9692 23.5763C24.1058 23.4419 24.2141 23.2825 24.288 23.1069C24.3619 22.9314 24.4 22.7433 24.4 22.5533V5.44667C24.4005 5.12834 24.5078 4.81907 24.7052 4.56681C24.9026 4.31454 25.1791 4.13336 25.4918 4.05134C25.8045 3.96932 26.136 3.99104 26.4349 4.11313C26.7338 4.23522 26.9834 4.45088 27.145 4.72667L37.9217 23.2733C38.0833 23.5491 38.3329 23.7648 38.6318 23.8869C38.9307 24.009 39.2621 24.0307 39.5748 23.9487C39.8876 23.8666 40.164 23.6855 40.3614 23.4332C40.5588 23.1809 40.6661 22.8717 40.6667 22.5533V5.44667C40.6672 5.12834 40.7745 4.81907 40.9719 4.56681C41.1693 4.31454 41.4458 4.13336 41.7585 4.05134C42.0712 3.96932 42.4027 3.99104 42.7015 4.11313C43.0004 4.23522 43.25 4.45088 43.4117 4.72667L54.1883 23.2733C54.35 23.5491 54.5996 23.7648 54.8984 23.8869C55.1973 24.009 55.5288 24.0307 55.8415 23.9487C56.1542 23.8666 56.4307 23.6855 56.6281 23.4332C56.8255 23.1809 56.9328 22.8717 56.9333 22.5533V0" stroke="white" stroke-width="2"/>
</g>
<defs>
<clipPath id="clip0_107_959">
<rect width="61" height="28" fill="white"/>
</clipPath>
</defs>
</svg>
