<svg width="86" height="28" viewBox="0 0 86 28" fill="none" xmlns="http://www.w3.org/2000/svg">
<path d="M3.87433 14.835L0.336826 16.93C0.0791928 17.08 -0.0446694 17.375 0.0197389 17.675L0.113874 18.05C0.73814 20.23 2.06099 22.365 3.59192 23.91C5.97999 26.315 9.27968 28.01 13.4414 28C17.1127 27.995 20.6849 26.52 23.2811 23.91C24.812 22.365 25.9713 20.475 26.6452 18.41C26.6848 18.29 26.7244 18.175 26.7591 18.055L26.8532 17.68C26.9276 17.39 26.7938 17.085 26.5362 16.935L22.9986 14.84C22.8054 14.73 22.5775 14.715 22.3793 14.815C22.2852 14.855 22.1514 14.985 22.1267 15.16C22.1019 15.32 22.0523 15.625 22.0177 15.815C21.9087 16.36 21.7898 16.81 21.433 17.63C20.1548 20.6 17.0037 22.85 13.4365 22.85C9.20536 22.85 5.63813 19.83 4.82559 15.81C4.77109 15.555 4.75127 15.415 4.70668 15.155C4.672 14.945 4.59273 14.855 4.4986 14.81C4.29051 14.71 4.0626 14.725 3.87433 14.835Z" fill="#2D1996"/>
<path d="M3.87433 13.165L0.336826 11.07C0.0791928 10.92 -0.0446694 10.625 0.0197389 10.325L0.113874 9.94998C0.73814 7.76998 2.06099 5.63498 3.59192 4.08998C5.97999 1.68498 9.27968 -0.010017 13.4414 -1.70218e-05C17.1127 0.00498298 20.6849 1.47998 23.2811 4.08998C24.812 5.63498 25.9713 7.52498 26.6452 9.58998C26.6848 9.70998 26.7244 9.82498 26.7591 9.94498L26.8532 10.32C26.9276 10.61 26.7938 10.915 26.5362 11.065L22.9986 13.16C22.8054 13.27 22.5775 13.285 22.3793 13.185C22.2852 13.145 22.1514 13.015 22.1267 12.84C22.1019 12.68 22.0523 12.375 22.0177 12.185C21.9087 11.64 21.7898 11.19 21.433 10.37C20.1548 7.39998 17.0037 5.14998 13.4365 5.14998C9.20536 5.14998 5.63813 8.16998 4.82559 12.19C4.77109 12.445 4.75127 12.585 4.70668 12.845C4.672 13.055 4.59273 13.145 4.4986 13.19C4.29051 13.29 4.0626 13.275 3.87433 13.165Z" fill="#2D1996"/>
<path d="M9.0271 7.90998C8.94782 8.01998 8.97755 8.15998 9.15591 8.40998L13.065 13.58C13.1889 13.745 13.3028 13.87 13.3177 14.01C13.3028 14.145 13.1889 14.27 13.065 14.44L9.15591 19.61C9.01719 19.805 8.94782 20 9.0271 20.105C9.13114 20.255 9.39868 20.12 9.57209 20.025L19.1095 14.445L19.5058 14.2C19.7189 14.055 19.7189 13.96 19.5058 13.825L19.1095 13.58L9.57209 7.98998C9.38877 7.87998 9.12619 7.75998 9.0271 7.90998Z" fill="#2D1996"/>
<path d="M29.5088 5.15497V13.35H31.6838V10.12H33.3981V13.35H35.5731V5.15497H33.3981V8.25497H31.6838V5.15497H29.5088Z" fill="#2D1996"/>
<path d="M39.4771 10.74C39.4771 10.805 39.4722 10.87 39.4672 10.93C39.4623 10.995 39.4474 11.055 39.4325 11.115C39.3532 11.35 39.2294 11.515 39.0708 11.63C38.9073 11.735 38.7389 11.795 38.5655 11.795C38.4515 11.795 38.3376 11.76 38.2236 11.69C38.1097 11.62 38.0155 11.505 37.9363 11.345C37.857 11.185 37.8124 10.975 37.8124 10.71C37.8174 10.435 37.8719 10.21 37.9709 10.035C38.075 9.85997 38.2137 9.72497 38.3822 9.62497C38.5506 9.52997 38.729 9.45997 38.9222 9.41997C39.1154 9.38497 39.2988 9.36497 39.4821 9.35497V10.74H39.4771ZM41.662 13.22C41.6125 12.945 41.5778 12.66 41.558 12.345C41.5382 12.035 41.5332 11.72 41.5332 11.4V8.44997C41.5382 8.04497 41.5035 7.64997 41.4341 7.26497C41.3697 6.87497 41.236 6.51997 41.0427 6.20497C40.8495 5.88997 40.5671 5.63997 40.2005 5.44997C39.8338 5.25997 39.3483 5.15997 38.7538 5.15997C38.3871 5.16497 38.0502 5.19497 37.7331 5.25997C37.421 5.31997 37.1386 5.39497 36.8958 5.48997C36.6531 5.57997 36.4598 5.66997 36.3112 5.75997L36.6976 7.18497C36.9256 7.03497 37.1782 6.92997 37.4408 6.84497C37.7084 6.76997 37.9908 6.72997 38.3029 6.72997C38.6695 6.73497 38.9519 6.83497 39.1353 7.03497C39.3186 7.22997 39.4127 7.48997 39.4127 7.80497V7.98497C38.9618 7.98497 38.5209 8.04497 38.0948 8.16497C37.6687 8.27497 37.2872 8.44997 36.9404 8.68997C36.5936 8.91997 36.3261 9.22497 36.1229 9.59997C35.9198 9.96997 35.8157 10.415 35.8108 10.935C35.8157 11.41 35.9049 11.825 36.0833 12.19C36.2617 12.55 36.5094 12.835 36.8166 13.04C37.1287 13.245 37.4805 13.35 37.8818 13.355C38.2335 13.355 38.5506 13.28 38.8479 13.135C39.1452 12.98 39.4028 12.755 39.6208 12.445H39.6505L39.7645 13.225H41.662V13.22Z" fill="#2D1996"/>
<path d="M61.5543 8.81C61.4998 8.815 61.4503 8.82 61.4057 8.825C61.3611 8.825 61.3016 8.83 61.2422 8.83C60.9796 8.825 60.7467 8.775 60.5485 8.67C60.3405 8.565 60.177 8.42 60.058 8.235C59.9391 8.055 59.8797 7.84 59.8797 7.6C59.8846 7.235 59.9936 6.955 60.2116 6.77C60.4247 6.585 60.7269 6.495 61.0985 6.49C61.1827 6.49 61.262 6.495 61.3313 6.505C61.4106 6.51 61.4849 6.525 61.5593 6.54V8.81H61.5543ZM63.6104 5.27C63.3429 5.22 63.0109 5.185 62.6195 5.16C62.2281 5.135 61.807 5.125 61.3561 5.125C60.9845 5.125 60.6278 5.145 60.286 5.19C59.9441 5.23 59.632 5.3 59.3496 5.385C59.0671 5.47 58.8392 5.58 58.6559 5.705C58.3537 5.91 58.1258 6.155 57.9623 6.44C57.8038 6.72 57.7195 7.065 57.7146 7.47C57.7195 7.855 57.8087 8.185 57.9772 8.455C58.1506 8.73 58.3785 8.945 58.6609 9.11C58.9433 9.275 59.2554 9.395 59.5923 9.465V9.495C59.3743 9.56 59.1811 9.645 59.0226 9.74C58.8591 9.84 58.7302 9.94 58.6212 10.06C58.4478 10.26 58.3042 10.495 58.1803 10.77C58.0564 11.05 57.9573 11.33 57.8731 11.62C57.7938 11.91 57.7195 12.175 57.6502 12.42C57.6006 12.595 57.5412 12.76 57.4718 12.91C57.4024 13.055 57.3232 13.195 57.2439 13.32H59.4833C59.5329 13.23 59.5775 13.13 59.6171 13.03C59.6567 12.93 59.6914 12.825 59.7112 12.72C59.7905 12.39 59.8747 12.065 59.954 11.735C60.0382 11.405 60.1423 11.115 60.2612 10.855C60.39 10.6 60.5485 10.405 60.7467 10.285C60.821 10.24 60.9053 10.205 60.9994 10.17C61.0935 10.135 61.2075 10.12 61.3363 10.12H61.5345V13.315H63.6104V5.27Z" fill="#2D1996"/>
<path d="M64.1357 5.15497V13.285H72.494L72.598 15.525H74.2231L74.3073 11.72L73.5493 11.685V5.15497H71.4436V11.505H69.9127V5.15497H67.7922V11.505H66.2563V5.15497H64.1357Z" fill="#2D1996"/>
<path d="M76.0412 8.46997C76.0412 8.26997 76.066 8.05497 76.1007 7.84497C76.1403 7.63497 76.1948 7.43497 76.279 7.24997C76.3534 7.06997 76.4574 6.92497 76.5813 6.80997C76.7051 6.69997 76.8538 6.63997 77.0272 6.63997C77.2353 6.64497 77.4087 6.72497 77.5375 6.88497C77.6712 7.04497 77.7654 7.26497 77.8248 7.53497C77.8843 7.80997 77.919 8.11997 77.914 8.46497H76.0412V8.46997ZM79.762 9.96997C79.7868 9.85997 79.8017 9.71997 79.8116 9.54497C79.8215 9.36997 79.8264 9.14497 79.8264 8.85997C79.8215 7.64997 79.5886 6.71997 79.1229 6.07497C78.6572 5.42997 78.0032 5.09997 77.151 5.09497C76.5466 5.09497 76.0065 5.26997 75.5359 5.60997C75.0602 5.94497 74.6837 6.43497 74.4112 7.06997C74.1337 7.70497 73.995 8.46997 73.9851 9.36497C73.9851 10.2 74.1139 10.91 74.3666 11.495C74.6242 12.075 74.9958 12.525 75.4962 12.835C75.9867 13.14 76.5961 13.295 77.3096 13.295C77.7208 13.295 78.1172 13.265 78.4986 13.2C78.8801 13.135 79.2121 13.045 79.4895 12.94L79.1972 11.41C79.009 11.475 78.791 11.535 78.5333 11.59C78.2757 11.64 77.9982 11.67 77.696 11.67C77.3839 11.67 77.1015 11.615 76.8538 11.5C76.6011 11.39 76.4079 11.215 76.2592 10.96C76.1155 10.71 76.0313 10.38 76.0214 9.96997H79.762Z" fill="#2D1996"/>
<path d="M82.2098 8.46997C82.2098 8.26997 82.2346 8.05497 82.2692 7.84497C82.3089 7.63497 82.3683 7.43497 82.4426 7.25497C82.5219 7.07497 82.621 6.92497 82.7498 6.81497C82.8687 6.70497 83.0174 6.64997 83.1908 6.64497C83.3989 6.64997 83.5723 6.72997 83.7011 6.88997C83.8349 7.05497 83.929 7.26997 83.9884 7.53997C84.0479 7.81497 84.0776 8.12497 84.0776 8.46997H82.2098ZM85.9356 9.96997C85.9603 9.85997 85.9752 9.71997 85.9901 9.54497C86 9.37497 86.0049 9.14497 86.0049 8.85997C86 7.64997 85.7621 6.71997 85.3014 6.07497C84.8357 5.42997 84.1767 5.10497 83.3245 5.09497C82.7201 5.09997 82.18 5.26997 81.7094 5.60997C81.2387 5.94497 80.8622 6.43497 80.5847 7.06997C80.3072 7.70497 80.1685 8.46997 80.1636 9.36497C80.1636 10.2 80.2924 10.905 80.55 11.495C80.8027 12.075 81.1792 12.525 81.6747 12.83C82.1652 13.135 82.7696 13.29 83.488 13.295C83.8993 13.29 84.2956 13.26 84.6722 13.2C85.0537 13.135 85.3856 13.045 85.668 12.94L85.3757 11.41C85.1874 11.475 84.9694 11.54 84.7118 11.59C84.4542 11.645 84.1767 11.67 83.8794 11.67C83.5624 11.67 83.2799 11.615 83.0372 11.5C82.7895 11.39 82.5913 11.215 82.4426 10.96C82.294 10.715 82.2147 10.38 82.2048 9.96997H85.9356Z" fill="#2D1996"/>
<path d="M31.545 19.42H32.0454C32.3228 19.42 32.5805 19.455 32.8034 19.53C33.0313 19.605 33.2097 19.72 33.3434 19.88C33.4772 20.04 33.5466 20.24 33.5515 20.49C33.5466 20.75 33.4772 20.955 33.3335 21.11C33.1948 21.26 33.0115 21.37 32.7935 21.435C32.5705 21.5 32.3327 21.53 32.0801 21.53C31.9859 21.53 31.8967 21.53 31.8026 21.52C31.7085 21.51 31.6242 21.5 31.5499 21.485V19.42H31.545ZM31.5598 16.165C31.7233 16.13 31.9017 16.11 32.0949 16.11C32.4764 16.11 32.7786 16.19 33.0016 16.345C33.2196 16.5 33.3335 16.73 33.3434 17.04C33.3385 17.26 33.279 17.445 33.1651 17.59C33.0462 17.735 32.8926 17.845 32.6944 17.925C32.4962 18 32.2832 18.04 32.0503 18.04H31.5598V16.165ZM29.5334 22.835C29.7663 22.86 30.0487 22.88 30.3906 22.9C30.7324 22.92 31.0892 22.925 31.4657 22.925C31.7927 22.925 32.1445 22.915 32.521 22.875C32.8975 22.84 33.2691 22.775 33.6407 22.675C34.0024 22.585 34.3393 22.445 34.6415 22.265C34.9437 22.085 35.1865 21.85 35.3649 21.56C35.5482 21.27 35.6423 20.915 35.6473 20.495C35.6473 20.175 35.573 19.89 35.4293 19.63C35.2856 19.365 35.0775 19.15 34.8001 18.97C34.5226 18.795 34.1857 18.67 33.7943 18.605V18.57C34.0668 18.505 34.3145 18.39 34.5424 18.235C34.7703 18.07 34.9537 17.865 35.0973 17.615C35.2361 17.36 35.3054 17.065 35.3054 16.73C35.3054 16.375 35.2262 16.075 35.0775 15.83C34.9289 15.59 34.7307 15.395 34.478 15.25C34.2253 15.105 33.9529 14.995 33.6457 14.915C33.3434 14.84 33.0264 14.79 32.7142 14.765C32.4021 14.735 32.0999 14.725 31.8224 14.725C31.4162 14.73 31.0099 14.745 30.6185 14.77C30.2221 14.8 29.8604 14.84 29.5334 14.89V22.835Z" fill="#2D1996"/>
<path d="M44.4415 18.065C44.4465 17.865 44.4663 17.655 44.506 17.44C44.5456 17.23 44.605 17.0299 44.6794 16.8549C44.7586 16.6749 44.8577 16.525 44.9816 16.415C45.1054 16.305 45.2541 16.245 45.4275 16.24C45.6356 16.245 45.809 16.325 45.9378 16.485C46.0716 16.645 46.1657 16.865 46.2252 17.135C46.2846 17.41 46.3143 17.72 46.3143 18.065H44.4415ZM48.1673 19.565C48.1921 19.455 48.207 19.3149 48.2218 19.1399C48.2268 18.9699 48.2367 18.7399 48.2367 18.4599C48.2317 17.2449 47.9939 16.3199 47.5331 15.6749C47.0674 15.0299 46.4134 14.7 45.5563 14.7C44.9519 14.7 44.4118 14.8699 43.9411 15.2099C43.4655 15.5449 43.0939 16.035 42.8165 16.67C42.539 17.305 42.4003 18.065 42.3904 18.965C42.3904 19.8 42.5192 20.505 42.7719 21.09C43.0295 21.675 43.4061 22.1149 43.8965 22.4249C44.392 22.735 44.9964 22.8899 45.7148 22.8899C46.1261 22.8899 46.5224 22.855 46.899 22.79C47.2805 22.725 47.6124 22.64 47.8899 22.53L47.5976 21C47.4093 21.07 47.1913 21.13 46.9337 21.18C46.676 21.235 46.3986 21.26 46.0963 21.26C45.7842 21.26 45.5018 21.2049 45.2541 21.0949C45.0064 20.9799 44.8082 20.8 44.6595 20.555C44.5109 20.305 44.4316 19.975 44.4217 19.565H48.1673Z" fill="#2D1996"/>
<path d="M48.7966 22.885H50.7586L50.8428 20.035C50.8478 19.775 50.8527 19.48 50.8627 19.155C50.8726 18.825 50.8775 18.455 50.8874 18.03C50.8924 17.605 50.9023 17.115 50.9072 16.555H50.9419C50.9865 16.765 51.041 17.015 51.0955 17.305C51.155 17.59 51.2095 17.885 51.2689 18.2C51.3284 18.51 51.3878 18.82 51.4473 19.115C51.5018 19.41 51.5563 19.675 51.6058 19.91L52.2549 22.76H54.0187L54.6479 19.945C54.742 19.5199 54.8312 19.09 54.9204 18.665C55.0096 18.24 55.0888 17.8399 55.1582 17.4699C55.2276 17.0999 55.287 16.7999 55.3316 16.5599H55.3613C55.3762 17.1299 55.3861 17.63 55.396 18.055C55.4059 18.48 55.4158 18.85 55.4257 19.17C55.4307 19.49 55.4406 19.775 55.4505 20.03L55.5496 22.895H57.576L57.0409 14.7H54.3357L53.7709 17.315C53.7214 17.54 53.6768 17.775 53.6273 18.01C53.5777 18.25 53.5331 18.505 53.4737 18.78C53.4192 19.055 53.3597 19.3699 53.2903 19.7099H53.2408C53.1665 19.3599 53.0971 19.045 53.0327 18.775C52.9733 18.4999 52.9089 18.2499 52.8593 18.0149C52.7999 17.7799 52.7503 17.545 52.6958 17.315L52.0963 14.7H49.3912L48.7966 22.885Z" fill="#2D1996"/>
<path d="M62.2878 18.3799C62.2333 18.3899 62.1837 18.3949 62.1391 18.3949C62.0945 18.3999 62.04 18.3999 61.9756 18.3999C61.718 18.3949 61.4851 18.3449 61.2771 18.2349C61.0739 18.1299 60.9104 17.9899 60.7915 17.7999C60.6726 17.6199 60.6132 17.4049 60.6082 17.1649C60.6132 16.7999 60.7221 16.5249 60.9401 16.3349C61.1532 16.1499 61.4505 16.0549 61.827 16.0549C61.9063 16.0549 61.9855 16.0599 62.0648 16.0699C62.1391 16.0749 62.2135 16.0899 62.2878 16.1049V18.3799ZM64.3488 14.8399C64.0813 14.7899 63.7493 14.7499 63.3579 14.7249C62.9616 14.6999 62.5454 14.6899 62.0945 14.6899C61.723 14.6899 61.3662 14.7099 61.0244 14.7549C60.6825 14.7949 60.3704 14.8649 60.0929 14.9499C59.8105 15.0349 59.5777 15.1449 59.3894 15.2699C59.0921 15.4749 58.8642 15.7199 58.7007 16.0049C58.5372 16.2899 58.458 16.6349 58.453 17.0349C58.458 17.4249 58.5471 17.7499 58.7156 18.0249C58.884 18.2949 59.1169 18.5149 59.3993 18.6799C59.6817 18.8449 59.9889 18.9649 60.3307 19.0349V19.0649C60.1127 19.1299 59.9195 19.2149 59.761 19.3099C59.5975 19.4049 59.4687 19.5099 59.3597 19.6299C59.1863 19.8299 59.0376 20.0649 58.9138 20.3399C58.7949 20.6149 58.6908 20.8999 58.6066 21.1899C58.5273 21.4799 58.453 21.7499 58.3836 21.9899C58.3341 22.1649 58.2746 22.3299 58.2053 22.4749C58.1359 22.6249 58.0566 22.7649 57.9724 22.8849H60.2118C60.2614 22.7949 60.306 22.6999 60.3506 22.5999C60.3902 22.4999 60.4249 22.3999 60.4497 22.2849C60.5289 21.9599 60.6132 21.6349 60.6924 21.3049C60.7766 20.9799 60.8757 20.6899 61.0046 20.4299C61.1284 20.1699 61.287 19.9799 61.4851 19.8599C61.5595 19.8199 61.6437 19.7799 61.7428 19.7449C61.8369 19.7099 61.9509 19.6949 62.0797 19.6949H62.2779V22.8849H64.3538V14.8399H64.3488Z" fill="#2D1996"/>
<path d="M38.3723 18.3849C38.4268 18.3949 38.4763 18.3999 38.5259 18.3999C38.5705 18.3999 38.62 18.4049 38.6844 18.4049C38.947 18.3999 39.1749 18.3499 39.383 18.2399C39.5861 18.1349 39.7496 17.9949 39.8685 17.8049C39.9874 17.6249 40.0518 17.4099 40.0518 17.1699C40.0469 16.8049 39.9379 16.5249 39.7248 16.3399C39.5069 16.1549 39.2096 16.0599 38.833 16.0599C38.7538 16.0599 38.6745 16.0649 38.6002 16.0749C38.5259 16.0799 38.4515 16.0949 38.3772 16.1099V18.3849H38.3723ZM36.3162 14.8449C36.5837 14.7949 36.9157 14.7549 37.3071 14.7299C37.6985 14.7049 38.1196 14.6899 38.5705 14.6899C38.942 14.6899 39.2988 14.7149 39.6406 14.7599C39.9825 14.8049 40.2946 14.8699 40.577 14.9549C40.8594 15.0399 41.0873 15.1449 41.2756 15.2749C41.5729 15.4799 41.8057 15.7249 41.9692 16.0099C42.1327 16.2949 42.217 16.6399 42.217 17.0399C42.212 17.4249 42.1228 18.0099 41.9544 18.2799C41.2062 19.7049 39.7942 19.7949 38.397 19.6049V22.8899H36.3162V14.8449Z" fill="#2D1996"/>
<path d="M54.4249 11.735C53.8651 11.735 53.2953 10.885 53.2953 9.25497C53.2953 7.44997 53.979 6.77497 54.4101 6.77497C55.0145 6.77497 55.4703 7.80997 55.4703 9.18497C55.4703 11.2 54.7915 11.735 54.4249 11.735ZM54.4844 5.15497C52.4629 5.15497 51.1599 6.75497 51.1599 9.22997C51.1599 11.81 52.3539 13.35 54.3556 13.35C55.5744 13.35 57.6255 12.8 57.6255 9.11497C57.6255 6.63497 56.4513 5.15497 54.4844 5.15497Z" fill="#2D1996"/>
<path d="M46.5375 5.15497H45.933H45.175C43.4706 5.15497 41.7712 6.53997 41.7712 9.44997C41.7712 11.81 43.0049 13.285 44.9966 13.35C45.8389 13.38 46.8 13.01 46.8 13.01L46.4334 11.43C46.4334 11.43 46.1361 11.58 45.5614 11.6C44.3178 11.64 43.8868 10.315 43.8868 9.33997C43.8868 7.93497 44.3823 7.10997 45.5168 7.02497C45.7992 6.99997 46.5077 6.97997 46.5077 6.97997H47.6027V13.215H49.7232V6.97997H51.3978V5.15497H46.5375Z" fill="#2D1996"/>
</svg>
