<svg width="140" height="33" viewBox="0 0 140 33" fill="none" xmlns="http://www.w3.org/2000/svg">
<path fill-rule="evenodd" clip-rule="evenodd" d="M13.1378 7.5603C12.4876 7.38293 11.8101 7.7319 11.6282 8.33663C11.443 8.9496 11.811 9.5832 12.4596 9.76388C13.0983 9.92558 13.7708 9.56918 13.9634 8.96198C14.1536 8.35643 13.7749 7.72365 13.1378 7.5603ZM20.3114 23.4201C11.094 29.2727 -1.35744 24.6692 2.60592 10.8488C5.00616 2.61773 15.1389 0.488402 21.072 3.97898C31.5059 10.037 24.581 22.6025 20.6225 21.1052C15.9999 19.2324 17.8684 13.511 17.8684 9.77048C20.6151 8.99993 23.1973 8.96198 24.5414 9.92888C25.6263 10.9222 21.9552 13.1282 19.764 13.5985C19.6677 13.9763 19.5648 14.3253 19.4636 14.7073C22.7948 13.4434 22.9215 14.7164 19.103 15.92C18.9895 16.3424 18.8783 16.7624 18.7721 17.1996C22.2606 15.8771 23.5216 14.5984 22.3058 13.7156C24.967 12.2801 26.1301 10.2416 24.5069 9.22268C22.5248 8.17493 20.1797 8.09573 17.7992 8.67818C17.4469 7.04303 16.697 5.83275 15.3735 5.27258C14.4433 4.91205 12.9971 5.22555 12.0497 6.08933C12.0546 6.08933 12.0521 6.08933 8.86169 4.5342C8.86827 4.53998 8.86334 4.51853 9.87331 7.88205C8.7802 8.82338 8.00893 10.2919 7.44097 11.8074C7.39652 11.9163 7.47966 11.9435 7.6805 11.9163C8.55137 10.5254 9.17036 9.14595 10.7738 8.47358C10.8965 8.32013 10.9763 8.0652 10.9598 7.8606C9.74244 5.55638 10.9656 7.8606 9.73009 5.59268C11.9188 7.17915 9.73009 5.59928 11.9254 7.2072C13.7009 5.26928 16.2139 5.99445 16.2904 9.0552C10.5886 10.9007 5.41608 16.0982 4.75099 20.3528C4.64069 21.1052 4.98476 21.9384 6.63184 21.8039C9.73174 21.5135 12.9057 19.079 15.1627 16.5033C14.9619 16.1725 14.7594 15.8045 14.5594 15.4762C10.3491 21.2174 5.40126 21.9706 5.59964 20.7438C6.58492 15.8144 11.4776 11.8759 16.3604 10.1195C16.2797 13.5061 15.0796 20.2884 20.0077 21.7049C26.8676 23.5447 32.6155 5.96475 18.5647 1.9371C10.2857 -0.581623 2.55489 4.55153 0.920978 11.6622C-1.09404 21.224 3.04959 26.2763 10.1705 27.7134C14.3231 28.493 18.8479 27.4981 22.0894 25.5024C21.9453 25.462 20.2628 23.4308 20.3114 23.4201Z" fill="#F48120"/>
<path fill-rule="evenodd" clip-rule="evenodd" d="M34.8824 2.95267V1.32412C35.8941 1.25564 36.988 1.11209 38.1717 0.851395V7.92824C38.3322 7.43407 38.6211 6.98444 39.0623 6.61567C39.501 6.22462 39.8986 6.03157 40.2501 6.03157C41.5053 5.96392 42.3227 6.67672 42.6956 8.13202C43.0866 9.61619 43.3006 11.4139 43.3401 13.5795C43.4463 19.5979 42.456 22.6033 40.3546 22.6033C39.9529 22.5415 39.5372 22.3311 39.1092 21.9565C38.6861 21.5952 38.3733 21.2421 38.1717 20.8337V26.8504H39.1092V28.408H35.1854V26.8504H36.1632V20.8337C35.9352 21.2536 35.6298 21.6505 35.2298 22.0333C34.8438 22.3666 34.4355 22.5844 34.0033 22.6033C32.711 22.6487 31.8896 21.8493 31.529 20.1704C31.1677 18.5188 30.9932 16.4653 30.9932 14.053C31.0607 8.67817 32.078 6.02249 34.0461 6.03239C34.4487 6.03239 34.8635 6.22544 35.2891 6.56617C35.7047 6.92999 36.0019 7.38622 36.1632 7.95052V2.95267H34.8824ZM36.1632 12.2842C36.1632 9.64259 35.6669 8.33744 34.6808 8.35312C34.3688 8.35312 34.0708 8.61052 33.8041 9.09232C33.4979 9.58897 33.3374 10.3752 33.3374 11.413C33.2971 12.6835 33.2708 13.6224 33.2708 14.2535C33.2708 16.1857 33.3374 17.7012 33.4708 18.7894C33.6049 19.8784 34.0338 20.4328 34.7483 20.4583C35.6932 20.4583 36.1632 19.4791 36.1632 17.5642V12.2842ZM38.1717 17.5659C38.1717 19.5525 38.6672 20.5557 39.6426 20.5557C40.0336 20.5268 40.3546 20.1523 40.6221 19.4807C40.795 19.0624 40.9168 18.3818 40.9571 17.4298C40.9958 16.0982 41.0246 15.0777 41.0246 14.3401C41.0246 13.7833 41.018 13.3279 41.0016 12.9772C40.9966 12.6291 40.9843 12.2537 40.9571 11.8165C40.9958 10.5097 40.8592 9.57577 40.5217 9.07417C40.2344 8.60392 39.9118 8.35394 39.5767 8.35394C38.6408 8.35394 38.1725 9.35962 38.1725 11.3487V17.5659H38.1717ZM44.4521 14.3203C44.4521 12.2133 44.8052 10.3067 45.5436 8.60227C46.2671 6.89864 47.3718 6.03157 48.8452 6.03157C50.3021 6.03157 51.3886 6.84337 52.1377 8.47274C52.876 10.1054 53.2382 12.0524 53.2382 14.3203C53.2382 16.5627 52.8702 18.5179 52.1204 20.1514C51.3697 21.7849 50.279 22.6025 48.8452 22.6025C47.3718 22.5835 46.2679 21.6942 45.5436 20.0153C44.8052 18.2845 44.4521 16.3927 44.4521 14.3203ZM46.9964 14.3203C46.9964 14.7221 46.9964 15.133 46.9964 15.5298C46.9964 15.9439 46.9964 16.3663 46.9964 16.7962C47.11 18.1112 47.2647 19.1507 47.4648 19.8792C47.6656 20.5664 48.1208 20.9682 48.8065 20.9682C49.5004 20.9682 49.9761 20.5788 50.2346 19.8338C50.498 19.0616 50.642 18.0625 50.6931 16.7953C50.7087 16.2319 50.7202 15.411 50.7202 14.3195C50.7202 13.1843 50.7087 12.3502 50.6931 11.8148C50.642 10.5748 50.4988 9.56257 50.2346 8.78129C49.9761 7.99507 49.5004 7.63454 48.8065 7.65434C48.1208 7.65434 47.6566 8.01569 47.4483 8.75489C47.2433 9.49409 47.0902 10.513 46.9964 11.8148C46.9964 12.2174 46.9964 12.6274 46.9964 13.0441C46.9964 13.4607 46.9964 13.8922 46.9964 14.3203ZM57.7374 14.7229V20.6902H58.6749V22.1941H54.3774V20.6902H55.3298V7.92824H54.3774V6.43417H58.6749V7.92824H57.7374V12.9657H60.6924V7.92824H59.7187V6.43417H64.0845V7.92824H63.0762V20.6902H64.0837V22.1941H59.7178V20.6902H60.6916V14.7229H57.7374ZM71.4639 22.1941H67.1647V20.6902H68.1039V8.08499C67.5606 7.99672 67.1532 8.20132 66.8972 8.67074C66.8124 8.83574 66.7457 9.15914 66.6971 9.63104C66.6552 10.2589 66.6157 10.7176 66.6099 11.0113C66.6099 11.2629 66.5959 11.5351 66.5827 11.8165C66.5687 12.1209 66.549 12.3519 66.5309 12.5359H65.0896V6.43417H73.5398V12.5359H72.0672C72.0672 11.8651 72.0524 11.3487 72.0434 11.0113C71.9849 10.3801 71.9454 9.92392 71.9075 9.63104C71.9075 9.22019 71.8392 8.88277 71.7026 8.67074C71.4491 8.20132 71.0482 7.99672 70.4852 8.08499V20.6902H71.4639V22.1941ZM82.8741 20.8618V22.2461C82.3785 22.4672 81.9365 22.6033 81.5357 22.6033C80.5273 22.5415 79.8606 21.9631 79.5527 20.8626C79.3519 21.2421 79.0235 21.6505 78.5625 21.997C78.0991 22.36 77.6653 22.5844 77.2365 22.6033C76.6068 22.6033 76.0248 22.2742 75.475 21.6505C74.9259 21.0119 74.6387 20.0887 74.6239 18.8554C74.5983 16.8902 75.1005 15.4399 76.1178 14.4746C77.1278 13.511 78.2802 12.8378 79.5527 12.4682V9.14099C79.5527 8.27309 79.1914 7.85152 78.4819 7.81769C78.146 7.81769 77.8917 7.88369 77.7476 8.01734C77.5847 8.15182 77.4776 8.33744 77.4365 8.55442C77.4101 8.65589 77.4241 8.88194 77.476 9.22514C77.4916 9.32744 77.5246 9.42727 77.5509 9.51472C77.5912 9.63187 77.6118 9.70942 77.6118 9.81089C77.6521 10.1731 77.6521 10.4428 77.6118 10.6087C77.5353 11.1127 77.383 11.4675 77.1278 11.7307C76.8883 11.9641 76.6199 12.0854 76.3253 12.0854C75.9919 12.0532 75.7104 11.8602 75.475 11.5096C75.2354 11.1523 75.1202 10.6309 75.1202 9.90164C75.1482 9.15997 75.3285 8.50079 75.6758 7.92907C76.0248 7.33342 76.4858 6.87802 77.0685 6.52079C77.6521 6.17182 78.2185 6.02249 78.7494 6.03239C79.4606 6.03239 80.1833 6.36157 80.8928 6.99187C81.6147 7.64362 81.9637 8.87204 81.9637 10.6755V18.7192C81.9637 18.8826 81.9703 19.0278 81.9834 19.1441C81.9966 19.2646 82.0032 19.4716 82.0032 19.7018C82.0032 20.1531 82.0435 20.4493 82.1365 20.5615C82.2938 20.7677 82.5391 20.8618 82.8741 20.8618ZM79.5519 14.3401C78.053 14.7774 77.1813 15.9769 76.9311 17.9734C76.7805 19.3594 77.0875 20.1523 77.8818 20.2884C78.253 20.2999 78.6243 20.1077 78.9963 19.6333C79.3766 19.1994 79.5519 18.4643 79.5519 17.4677V14.3401ZM87.3058 14.7229V20.6902H88.2442V22.1941H83.945V20.6902H84.8825V7.92824H83.945V6.43417H88.2442V7.92824H87.3058V12.9657H90.2526V7.92824H89.2912V6.43417H93.643V7.92824H92.6372V20.6902H93.643V22.1941H89.2912V20.6902H90.2526V14.7229H87.3058ZM94.7518 22.1941V20.6968H95.6885V7.92824H94.7518V6.43417H98.9843V7.92824H98.0435V13.266C98.5975 13.3749 99 13.2338 99.2148 12.8032C99.4387 12.3667 99.5473 12.0112 99.5473 11.7298C99.5992 11.4271 99.6222 11.0847 99.6346 10.7027C99.6469 10.3084 99.6519 9.84307 99.6519 9.33982C99.7482 7.06364 100.497 5.96392 101.937 6.03157C102.51 6.03157 103.018 6.29309 103.432 6.83842C103.848 7.36312 104.059 8.06437 104.084 8.95702C104.111 9.69622 103.996 10.2415 103.758 10.5682C103.529 10.8834 103.268 11.0583 102.972 11.0583C102.678 11.0583 102.417 10.9123 102.192 10.6078C101.953 10.3133 101.84 9.90082 101.862 9.35879C101.917 8.99167 101.962 8.70044 102.036 8.53544C102.096 8.40179 102.143 8.28547 102.17 8.21782C102.218 8.11964 102.218 8.00414 102.17 7.92742C102.143 7.80284 102.06 7.72282 101.902 7.68074C101.768 7.64857 101.649 7.66672 101.534 7.79047C101.282 7.92742 101.179 8.31929 101.232 8.95619C101.294 10.3603 101.246 11.4477 101.079 12.2174C100.905 13.0193 100.524 13.5778 99.921 13.9359C101.841 14.374 102.734 15.8284 102.572 18.3628C102.523 18.6994 102.499 18.9997 102.474 19.2101C102.451 19.4692 102.465 19.6787 102.502 19.9006C102.546 20.1506 102.642 20.3239 102.804 20.4583C103.074 20.62 103.362 20.6951 103.687 20.6885V22.1925C103.204 22.4647 102.718 22.6009 102.204 22.6009C101.552 22.539 101.053 22.1925 100.709 21.5523C100.36 20.9385 100.178 19.819 100.159 18.244C100.159 17.1583 100.078 16.4629 99.9219 16.0825C99.5597 15.1033 98.9374 14.6668 98.0435 14.7889V20.6951H98.9843V22.1925H94.7518V22.1941ZM113.404 20.8618V22.2461C112.931 22.4672 112.469 22.6033 112.066 22.6033C111.059 22.5415 110.386 21.9631 110.101 20.8626C109.883 21.2421 109.563 21.6505 109.101 21.997C108.625 22.36 108.204 22.5844 107.785 22.6033C107.134 22.6033 106.571 22.2742 106.021 21.6505C105.472 21.0119 105.184 20.0887 105.155 18.8554C105.13 16.8902 105.627 15.4399 106.648 14.4746C107.662 13.511 108.812 12.8378 110.101 12.4682V9.14099C110.101 8.27309 109.715 7.85152 109.018 7.81769C108.678 7.81769 108.438 7.88369 108.277 8.01734C108.115 8.15182 108.021 8.33744 107.966 8.55442C107.938 8.65589 107.95 8.88194 108.008 9.22514C108.039 9.32744 108.069 9.42727 108.077 9.51472C108.123 9.63187 108.142 9.70942 108.142 9.81089C108.201 10.1731 108.201 10.4428 108.142 10.6087C108.071 11.1127 107.93 11.4675 107.663 11.7307C107.416 11.9641 107.15 12.0854 106.854 12.0854C106.54 12.0532 106.247 11.8602 106.021 11.5096C105.765 11.1523 105.65 10.6309 105.65 9.90164C105.678 9.15997 105.876 8.50079 106.206 7.92907C106.57 7.33342 107.015 6.87802 107.607 6.52079C108.2 6.17182 108.747 6.02249 109.29 6.03239C109.982 6.03239 110.712 6.36157 111.444 6.99187C112.145 7.64362 112.507 8.87204 112.507 10.6755V18.7192C112.507 18.8826 112.519 19.0278 112.536 19.1441C112.547 19.2646 112.551 19.4716 112.551 19.7018C112.551 20.1531 112.568 20.4493 112.686 20.5615C112.824 20.7677 113.094 20.8618 113.404 20.8618ZM110.102 14.3401C108.604 14.7774 107.715 15.9769 107.474 17.9734C107.314 19.3594 107.64 20.1523 108.412 20.2884C108.784 20.2999 109.159 20.1077 109.552 19.6333C109.906 19.1994 110.103 18.4643 110.103 17.4677V14.3401H110.102ZM114.831 20.4245C114.797 19.8016 114.946 19.2184 115.269 18.6945C115.555 18.1764 115.932 17.9149 116.3 17.9149C116.7 17.8827 117.063 18.1112 117.439 18.6326C117.765 19.1045 117.95 19.6738 117.95 20.2884C117.95 20.8766 117.779 21.4129 117.445 21.9219C117.141 22.4045 116.765 22.6479 116.358 22.6479C116.004 22.6479 115.679 22.4359 115.342 21.9367C115.003 21.4962 114.861 20.969 114.831 20.4245ZM122.673 8.20049C122.868 7.70302 123.151 7.22699 123.611 6.76994C124.071 6.29392 124.501 6.06539 124.904 6.03157C125.324 5.99857 125.859 6.15697 126.41 6.51997C126.971 6.90442 127.494 7.71704 127.902 8.95702C128.319 10.2259 128.54 12.0178 128.512 14.388C128.481 17.4298 128.149 19.5715 127.465 20.7669C126.781 21.9763 125.94 22.6025 124.944 22.6025C123.961 22.5406 123.178 21.9235 122.672 20.7669V26.8488H123.61V28.4064H119.345V26.8488H120.295V8.20049H119.373V6.63382C119.94 6.56617 120.517 6.44654 121.109 6.28154C121.319 6.22544 121.512 6.17924 121.648 6.14707C121.782 6.08932 121.924 6.07942 122.062 6.07942C122.27 6.01259 122.468 5.95319 122.671 5.89709V8.20049H122.673ZM125.88 14.2065C125.88 13.7362 125.871 13.3072 125.865 12.9104C125.855 12.5293 125.839 12.012 125.839 11.3479C125.867 10.1731 125.745 9.35467 125.478 8.89019C125.171 8.33662 124.784 8.07179 124.414 8.13202C124.096 8.13202 123.745 8.38777 123.418 8.89019C123.074 9.45697 122.878 10.2927 122.854 11.3949C122.792 12.6357 122.759 13.5787 122.759 14.2057C122.759 14.6743 122.766 15.1255 122.785 15.5215C122.801 15.9192 122.806 16.4554 122.806 17.0651C122.867 18.3637 123.013 19.2258 123.294 19.7431C123.593 20.2876 123.961 20.5664 124.366 20.5936C124.738 20.5936 125.077 20.2876 125.44 19.7002C125.708 19.1986 125.838 18.3315 125.838 17.0651C125.838 16.4554 125.855 15.9192 125.864 15.5215C125.871 15.1264 125.88 14.6751 125.88 14.2065ZM135.192 17.2936L136.975 8.01734H135.997V6.43417H139.519V8.01734H138.81L135.997 21.629C135.888 22.195 135.689 23.0117 135.422 24.0867C135.046 25.735 134.561 26.89 133.989 27.5005C133.373 28.0987 132.789 28.3932 132.169 28.3676C131.572 28.3206 131.03 28.0277 130.583 27.4065C130.109 26.8216 129.89 26.0048 129.89 24.9703C129.922 24.2377 130.074 23.6791 130.348 23.2996C130.62 22.9639 130.899 22.784 131.187 22.784C131.511 22.784 131.8 22.9639 132.053 23.2996C132.309 23.6791 132.437 24.1024 132.437 24.6625C132.437 25.3225 132.343 25.7903 132.13 26.0857C132.104 26.1393 132.053 26.1657 132.011 26.2185C131.981 26.2771 131.974 26.3018 131.942 26.353C131.886 26.4619 131.886 26.5963 131.942 26.7564C132.048 26.8636 132.154 26.956 132.263 26.956C132.449 26.9709 132.667 26.8504 132.934 26.5815C133.28 26.1781 133.478 25.8225 133.568 25.4875C133.634 25.1914 133.744 24.6386 133.857 23.8293C133.937 23.4415 134.018 23.0381 134.103 22.6091C134.171 22.1958 134.231 21.8567 134.258 21.6298L130.474 8.01817H129.541V6.43417H133.91V8.01734H133.071L135.192 17.2936Z" fill="#6D6E70"/>
<path d="M45.5281 31.9671C45.3701 32.0463 45.0894 32.0974 44.7379 32.0974C43.5065 32.0974 42.8027 31.0901 42.8027 29.4261C42.8027 27.3479 43.8983 26.6054 44.8573 26.6054C45.2087 26.6054 45.4491 26.6772 45.5602 26.7424L45.3989 27.4626C45.2721 27.4057 45.1437 27.3603 44.8885 27.3603C44.3041 27.3603 43.7065 27.8932 43.7065 29.37C43.7065 30.817 44.249 31.3417 44.8959 31.3417C45.0968 31.3417 45.2976 31.2988 45.4236 31.2427L45.5281 31.9671ZM46.9982 30.6438L46.7085 32.0537H45.8779L47.0772 26.6557H48.0757L49.1877 32.0537H48.3556L48.0675 30.6438H46.9982ZM47.9794 29.9797L47.7563 28.7356C47.6913 28.3833 47.6197 27.8866 47.5555 27.5121H47.5332C47.4765 27.8866 47.3966 28.3981 47.3324 28.7356L47.0921 29.9797H47.9794ZM50.6965 26.6557V28.8882H51.9748V26.6557H52.8317V32.0537H51.9748V29.6728H50.6965V32.0537H49.8413V26.6557H50.6965ZM54.6368 26.6557V29.0466H54.7233L55.7209 26.6557H56.6576L55.3875 29.1613C55.9868 29.3477 56.1851 29.8732 56.3292 30.5283C56.4436 31.053 56.53 31.5719 56.6905 32.0537H55.8435C55.7069 31.6866 55.6279 31.1974 55.5316 30.7651C55.4032 30.124 55.2443 29.6728 54.7167 29.6728H54.6377V32.0537H53.7973V26.6557H54.6368ZM57.9359 27.4403H56.9696V26.6557H59.7666V27.4403H58.7903V32.0537H57.9359V27.4403ZM61.7948 28.9748V29.6076H60.132V28.9748H61.7948ZM65.4857 26.6557V32.0537H64.6304V27.3982H63.3842V32.0537H62.5298V26.6557H65.4857ZM68.5864 29.5927H67.3081V31.3063H68.7625V32.0529H66.4537V26.6557H68.6662V27.3982H67.3089V28.8799H68.5872V29.5927H68.5864ZM70.0795 27.4403H69.1132V26.6557H71.9102V27.4403H70.9339V32.0537H70.0795V27.4403ZM74.6421 29.5927H73.3638V31.3063H74.8183V32.0529H72.5094V26.6557H74.722V27.3982H73.3646V28.8799H74.643V29.5927H74.6421ZM75.5377 26.7349C75.8151 26.6698 76.16 26.6277 76.5444 26.6277C77.1115 26.6277 77.5675 26.7349 77.8869 27.0369C78.1742 27.31 78.3182 27.7274 78.3182 28.1894C78.3182 28.7347 78.1668 29.1101 77.919 29.3989C77.5996 29.7784 77.0794 29.9524 76.6234 29.9524C76.537 29.9524 76.4654 29.9524 76.383 29.9524V32.0529H75.5377V26.7349ZM76.3822 29.2471C76.4464 29.2627 76.5106 29.2627 76.5905 29.2627C77.1502 29.2627 77.4622 28.8799 77.4622 28.2538C77.4622 27.7513 77.2547 27.3256 76.6794 27.3256C76.5682 27.3256 76.4547 27.3405 76.3822 27.3677V29.2471ZM81.5375 26.6557V27.39H79.8501V28.7356C79.9958 28.7141 80.1225 28.7067 80.2657 28.7067C80.7292 28.7067 81.1383 28.8502 81.4255 29.1109C81.7301 29.3914 81.9136 29.8015 81.9136 30.3278C81.9136 30.8368 81.7597 31.2353 81.4971 31.5298C81.1531 31.9019 80.618 32.0908 79.8994 32.0908C79.5076 32.0908 79.2105 32.0686 79.0055 32.0389V26.6557H81.5375ZM79.8501 31.378C79.939 31.397 80.0262 31.4044 80.1225 31.4044C80.4271 31.4044 80.6576 31.284 80.8115 31.0901C80.9547 30.9086 81.0345 30.6578 81.0345 30.3847C81.0345 30.1042 80.9456 29.8658 80.7942 29.6868C80.6361 29.5135 80.4024 29.3914 80.1233 29.3914C80.0369 29.3914 79.9472 29.3997 79.8509 29.4187V31.378H79.8501ZM82.9113 26.6557L83.471 28.7859C83.5574 29.1118 83.6299 29.4195 83.6793 29.6802H83.7113C83.7583 29.4261 83.806 29.0887 83.8628 28.7661L84.2785 26.6557H85.1411L84.4127 29.3477C84.239 29.9879 84.0208 30.8377 83.7113 31.4135C83.4636 31.8532 83.08 32.1494 82.6487 32.1494C82.4948 32.1494 82.3836 32.1337 82.2873 32.1123L82.3194 31.4135C82.3688 31.4218 82.4404 31.4292 82.5351 31.4292C82.8792 31.4292 83.1442 30.9969 83.2381 30.6735C83.271 30.5728 83.271 30.478 83.2306 30.3641L81.9918 26.6557H82.9113ZM85.5881 26.7349C85.8679 26.6698 86.2104 26.6277 86.5939 26.6277C87.1611 26.6277 87.6171 26.7349 87.9365 27.0369C88.2246 27.31 88.3678 27.7274 88.3678 28.1894C88.3678 28.7347 88.2172 29.1101 87.9694 29.3989C87.65 29.7784 87.129 29.9524 86.6738 29.9524C86.5874 29.9524 86.5158 29.9524 86.4359 29.9524V32.0529H85.5889V26.7349H85.5881ZM86.4351 29.2471C86.4976 29.2627 86.5618 29.2627 86.6433 29.2627C87.2006 29.2627 87.5126 28.8799 87.5126 28.2538C87.5126 27.7513 87.3043 27.3256 86.7298 27.3256C86.6178 27.3256 86.5067 27.3405 86.4351 27.3677V29.2471ZM91.3722 26.6557V27.3982H89.9103V32.0537H89.0551V26.6557H91.3722ZM96.2789 29.2817C96.2789 31.3137 95.5677 32.1181 94.6161 32.1181C93.5461 32.1181 93.011 30.9721 93.011 29.3469C93.011 27.7274 93.6185 26.5906 94.696 26.5906C95.8303 26.5906 96.2789 27.8297 96.2789 29.2817ZM93.8984 29.3543C93.8984 30.5283 94.1214 31.3698 94.6639 31.3698C95.2162 31.3698 95.3924 30.4045 95.3924 29.3197C95.3924 28.3412 95.231 27.3331 94.6565 27.3331C94.1206 27.3331 93.8984 28.2241 93.8984 29.3543ZM97.851 26.6557V28.8882H99.1318V26.6557H99.9862V32.0537H99.1318V29.6728H97.851V32.0537H96.9958V26.6557H97.851ZM103.724 26.6557V32.0537H102.869V27.3982H101.927V29.0095C101.927 30.3204 101.863 31.4284 101.216 31.9093C101.041 32.0463 100.822 32.1263 100.592 32.1263L100.417 31.4053C100.535 31.3789 100.657 31.3261 100.744 31.2427C101.063 30.9317 101.135 30.2758 101.135 29.0961V26.6557H103.724ZM105.457 30.6438L105.169 32.0537H104.34L105.539 26.6557H106.537L107.647 32.0537H106.817L106.53 30.6438H105.457ZM106.44 29.9797L106.217 28.7356C106.153 28.3833 106.081 27.8866 106.016 27.5121H105.994C105.937 27.8866 105.858 28.3981 105.793 28.7356L105.553 29.9797H106.44ZM109.06 26.6557V28.1754C109.06 29.1472 109.021 29.9681 108.974 30.6586H108.989C109.158 30.1397 109.437 29.4269 109.621 28.9377L110.501 26.6557H111.276V32.0537H110.526V30.5497C110.526 29.4269 110.548 28.6795 110.591 28.0657H110.573C110.423 28.6349 110.175 29.2553 109.981 29.752L109.094 32.0537H108.304V26.6557H109.06ZM109.39 25.6047C109.413 25.8703 109.51 26.0593 109.782 26.0593C110.037 26.0593 110.167 25.8703 110.189 25.6047H110.756C110.684 26.2234 110.35 26.461 109.782 26.461C109.247 26.461 108.871 26.2234 108.823 25.6047H109.39ZM113.105 26.6557V28.8882H114.384V26.6557H115.238V32.0537H114.384V29.6728H113.105V32.0537H112.25V26.6557H113.105Z" fill="#5D5D5D"/>
</svg>
