<svg width="129" height="27" viewBox="0 0 129 27" fill="none" xmlns="http://www.w3.org/2000/svg">
<path d="M14.0145 11.6584V24.8905L20.1439 26.8216V11.6584H24.0867V24.8905L30.1801 26.8216L34.1587 21.4573H30.2159V8.40404L24.1225 6.29405L20.1439 10.9432V8.40404L14.0506 6.29405L10.072 10.9432V8.40404L3.97861 6.29405L0 11.6584H3.9428V24.8905L10.072 26.8216V11.6584H14.0148H14.0145ZM79.823 21.4573V8.22537L73.6939 6.29405V24.7116L79.7872 26.8216L83.7658 22.1724V24.7116L89.8592 26.8216L93.8378 21.4573H89.895V8.22537L83.7658 6.29405V21.4573H79.823ZM125.057 8.94052L119.072 6.29405L111.974 9.65567L119.072 12.3021L109.322 16.987V24.64L115.451 26.8216L119.072 22.1367V24.7116L125.201 26.8216L129 21.4216H125.057V8.94052ZM42.0798 26.8216L49.1054 24.0321L42.0801 21.4213V17.6667L51.2917 13.2319L46.0587 6.29405L35.9509 11.1221V24.211L42.0801 26.8216H42.0798ZM107.996 21.0281L100.54 18.7751L107.53 9.90618L98.7841 6.29405L94.1961 12.0875L101.687 14.3764L94.5544 23.2097L103.408 26.8216L107.996 21.0281ZM115.451 21.4573V16.1645L119.072 14.4478V21.4573H115.451ZM42.0801 9.76297L45.1626 13.9829L42.0798 15.4492V9.76297H42.0801ZM52.8689 24.211L58.9981 26.8216L69.07 22.8162V6.97351L52.8689 0V6.17666L62.9409 10.1461V22.8519L58.9981 21.4216V10.2638L52.8689 12.1948V24.211Z" fill="black"/>
</svg>
