<svg width="135" height="26" viewBox="0 0 135 26" fill="none" xmlns="http://www.w3.org/2000/svg">
<path d="M44.6249 19.8399C40.1637 19.8399 38.4688 17.2834 38.4688 13.0951C38.4688 8.90683 40.1095 6.35034 44.6249 6.35034C49.1267 6.35034 50.7944 8.90683 50.7944 13.0951C50.7944 17.2834 49.086 19.8399 44.6249 19.8399ZM44.6249 10.0899C43.3638 10.0899 43.1333 11.1913 43.1333 13.0951C43.1333 14.9989 43.3231 16.1003 44.6249 16.1003C45.9402 16.1003 46.13 14.9989 46.13 13.0951C46.13 11.1913 45.8995 10.0899 44.6249 10.0899Z" fill="black"/>
<path d="M62.1439 12.9319C63.5948 13.2583 64.3677 14.2918 64.3677 16.0595C64.3677 18.5208 62.6456 19.8399 57.954 19.8399C55.4319 19.8399 53.7369 19.7719 52.9369 19.6495V6.54072C53.6284 6.47273 56.381 6.35034 57.8591 6.35034C62.2931 6.35034 63.866 7.71017 63.866 9.70913C63.866 11.0418 63.4728 12.4424 62.1303 12.8367V12.9319H62.1439ZM58.3065 11.5993C59.3913 11.5993 59.5404 11.0146 59.5404 10.4706C59.5404 9.70913 59.1201 9.38277 58.3201 9.38277C58.0489 9.38277 57.6828 9.40997 57.4387 9.42356V11.5857H58.3065V11.5993ZM57.4523 16.6987C57.4523 16.6987 57.9946 16.7667 58.3743 16.7667C59.6625 16.7667 59.7167 15.9372 59.7167 15.774C59.7167 15.298 59.4184 14.6997 58.6048 14.6997H57.4523V16.6987Z" fill="black"/>
<path d="M65.0728 22.3963V16.3043L65.8457 16.1819C67.0932 15.57 67.6491 15.0668 68.0424 6.5271H77.5884V16.1955L78.741 16.3043L78.6325 22.3963H74.4425L74.2798 19.6359H68.8288L68.6661 22.3963H65.0728ZM70.5645 16.2363L70.6187 16.3451H73.0866V10.185H71.7306C71.5272 14.0742 71.1069 15.8012 70.5645 16.2363Z" fill="black"/>
<path d="M79.9613 12.2112H85.3581V15.298H79.9613V12.2112Z" fill="black"/>
<path d="M98.6736 6.54077V19.6496H94.6735L91.3921 14.6182H91.2836L91.3921 16.1956V19.636H87.392V6.54077H91.3921L94.6735 13.068H94.782L94.6735 11.4906V6.54077H98.6736Z" fill="black"/>
<path d="M109.291 19.1326C109.291 19.1326 107.243 19.8397 105.115 19.8397C102.064 19.8397 99.7449 18.575 99.7449 14.9715C99.7449 11.4631 101.887 9.96729 105.115 9.96729C108.504 9.96729 109.698 12.279 109.698 14.5363C109.698 14.9851 109.603 15.6514 109.535 15.9913L104.152 16.0457C104.314 16.5489 104.694 16.7121 105.467 16.7121C106.633 16.7121 108.165 16.5217 108.748 16.3993L109.291 19.1326ZM104.098 14.0468L105.684 13.9788C105.684 13.2445 105.44 12.9861 104.952 12.9861C104.531 12.9861 104.206 13.1221 104.098 14.0468Z" fill="black"/>
<path d="M123.773 19.6359H118.62L118.132 16.4403L118.023 14.5094H117.834L117.711 16.4403L117.128 19.6359H112.193L109.318 10.1443H113.698L114.416 13.9654L114.539 16.5627H114.688L114.81 13.9654L115.298 10.1443H120.776L121.156 13.9654L121.223 16.5627H121.373L121.59 13.9654L122.484 10.1443H126.756L123.773 19.6359Z" fill="black"/>
<path d="M134.363 13.4349C133.373 13.1629 132.207 12.8637 131.705 12.8637C131.393 12.8637 131.271 12.9861 131.271 13.0949C131.271 13.3941 132.098 13.6388 133.034 14.1284C134.091 14.6723 135 15.393 135 16.916C135 18.711 133.752 19.8125 130.525 19.8533C130.376 19.8533 127.935 19.8805 126.349 19.5133L126.81 16.6305C128.152 16.9568 129.169 17.0248 129.535 17.0248C129.874 17.0248 130.037 16.9704 130.037 16.78C130.037 16.5217 129.698 16.3585 128.518 15.8146C127.217 15.2162 126.417 14.3731 126.417 12.9725C126.417 11.1367 127.786 9.96729 130.688 9.96729C131.529 9.96729 132.735 10.0625 134.919 10.5928L134.363 13.4349Z" fill="black"/>
<path d="M34.5636 0.870361H30.238V25.1298H34.5636V0.870361Z" fill="#FF6F37"/>
<path d="M13.2071 4.33787C15.6207 4.33787 17.6411 5.18096 19.3903 6.92155C21.126 8.64854 21.9667 10.6475 21.9667 13.0544C21.9667 15.4613 21.126 17.4467 19.4039 19.1192C17.6276 20.8462 15.5394 21.6757 13.0173 21.6757C10.8206 21.6757 8.89514 20.9278 7.10526 19.3776C5.20691 17.7186 4.32553 15.6653 4.32553 12.9048C4.32553 10.5659 5.16623 8.60774 6.91543 6.90795C8.67818 5.16736 10.7257 4.33787 13.2071 4.33787ZM13.2071 0C9.60024 0 6.46796 1.27824 3.89162 3.79393C1.31529 6.32322 0 9.38284 0 12.8912C0 16.8891 1.43732 20.1663 4.27129 22.6412C6.83407 24.8713 9.77652 26 13.0173 26C16.6648 26 19.8242 24.7218 22.4006 22.2197C24.9769 19.7176 26.2786 16.6308 26.2786 13.0408C26.2786 9.47803 24.9769 6.37761 22.4141 3.83473C19.8785 1.29184 16.7733 0 13.2071 0Z" fill="black"/>
</svg>
