<svg width="219" height="24" viewBox="0 0 219 24" fill="none" xmlns="http://www.w3.org/2000/svg">
<path d="M32.0106 23.3717H29.2065V3.70679H38.5324C42.3447 3.70679 44.6761 6.06281 44.6761 9.23558C44.6761 11.9686 43.0063 15.0785 38.5324 15.0785H32.0106V23.3717ZM32.0106 12.8167H37.5872C40.1077 12.8167 41.809 11.9372 41.809 9.267C41.809 6.81674 40.0132 5.99998 37.7132 5.99998H32.0421L32.0106 12.8167Z" fill="#222222"/>
<path d="M62.6343 3.70679V6.06281H50.8509V11.8115H57.5933C62.0987 11.8115 63.8 15.0785 63.8 17.8115C63.8 20.9843 61.4055 23.3403 57.6563 23.3403H48.0469V3.70679H62.6343ZM50.8509 21.0157H56.8371C59.1371 21.0157 60.9014 20.2932 60.9014 17.8115C60.9014 15.1728 59.1371 14.1989 56.6166 14.1989H50.8194V21.0157H50.8509Z" fill="#222222"/>
<path d="M69.9752 13.2251L80.0257 3.70679H83.8694L75.2682 11.6544L84.09 23.3717H80.4668L73.2203 13.5078L69.9752 16.4607V23.3717H67.2026V3.70679H69.9752V13.2251Z" fill="#222222"/>
<path d="M94.6765 14.5759H87.6191V16.555H94.6765V14.5759Z" fill="#222222"/>
<path d="M116.541 3.70683L108.791 20.2304C107.405 23.2461 105.987 23.8744 104.317 23.8744C103.592 23.8744 102.269 24.0629 101.702 23.9372V21.7382C102.175 21.8325 103.246 21.5498 103.907 21.5498C104.947 21.5498 105.262 21.267 106.176 19.6649L98.1733 3.67542H101.166L107.531 17.089L113.548 3.67542H116.541V3.70683Z" fill="#222222"/>
<path d="M121.866 13.2251L131.917 3.70679H135.761L127.159 11.6544L136.013 23.3717H132.389L125.143 13.5078L121.866 16.4607V23.3717H119.094V3.70679H121.866V13.2251Z" fill="#222222"/>
<path d="M141.117 23.3717H138.312V3.70679H147.638C151.451 3.70679 153.782 6.06281 153.782 9.23558C153.782 11.9686 152.112 15.0785 147.638 15.0785H141.117V23.3717ZM141.117 12.8167H146.662C149.182 12.8167 150.884 11.9372 150.884 9.267C150.884 6.81674 149.088 5.99998 146.788 5.99998H141.117V12.8167Z" fill="#222222"/>
<path d="M157.783 17.623L155.609 23.3717H152.742L160.524 3.73816H163.675L171.142 23.3717H168.086L166.038 17.623H157.783ZM165.061 15.2984L162.005 6.62821H161.942L158.634 15.2984H165.061Z" fill="#222222"/>
<path d="M172.024 0H174.576V2.13613H172.024V0ZM176.939 23.3717H174.135V3.70681H176.939V23.3717ZM176.561 0H179.113V2.13613H176.561V0Z" fill="#222222"/>
<path d="M184.438 11.8429H195.276V3.70679H198.048V23.3717H195.276V14.1989H184.438V23.3717H181.665V3.70679H184.438V11.8429Z" fill="#222222"/>
<path d="M205.61 17.623L203.436 23.3717H200.569L208.351 3.73816H211.502L218.969 23.3717H215.912L213.865 17.623H205.61ZM212.888 15.2984L209.832 6.62821H209.769L206.461 15.2984H212.888Z" fill="#222222"/>
<path d="M0.252441 23.3403V23.4345H5.79754V13.3193C2.5839 17.089 0.945579 21.0785 0.252441 23.3403Z" fill="#028AC5"/>
<path d="M13.2329 6.03139V3.80103H6.93164V10.4293C8.63298 8.79579 10.7124 7.25652 13.2329 6.03139Z" fill="#F9D028"/>
<path d="M5.79734 11.5288V3.80103H0.157715L0.189221 20.8586C1.16592 17.7801 3.0878 14.4188 5.79734 11.5288Z" fill="#F9D028"/>
<path d="M19.6918 3.80103H14.3042V5.52877C15.911 4.80626 17.7384 4.24082 19.6918 3.80103Z" fill="#F9D028"/>
<path d="M19.8493 5.05762C17.8014 5.49741 15.974 6.09427 14.3042 6.87961V23.4346H19.8493V5.05762Z" fill="#028AC5"/>
<path d="M6.8999 12.1256V23.4345H13.2012V7.41357C10.6807 8.76436 8.60124 10.3665 6.8999 12.1256Z" fill="#028AC5"/>
</svg>
