<svg width="183" height="28" viewBox="0 0 183 28" fill="none" xmlns="http://www.w3.org/2000/svg">
<path d="M3.32841 23.7781V7.91866H0.666687V4.25879H9.94575V7.91866H7.28403V23.7781H3.32841Z" fill="#244E92"/>
<path d="M18.0044 23.7781V15.4972H15.6754V23.7781H11.7197V4.25879H15.6754V11.9852H18.0044V4.25879H21.886V23.7781H18.0044Z" fill="#244E92"/>
<path d="M24.2895 23.7781V4.25879H33.051V7.91866H28.2451V11.9482H32.0898V15.4602H28.2082V20.1182H33.3098V23.7781H24.2895Z" fill="#244E92"/>
<path d="M40.5182 23.7781V7.91866H37.8565V4.25879H47.1356V7.91866H44.4738V23.7781H40.5182Z" fill="#244E92"/>
<path d="M49.0577 23.7781V4.25879H53.0133V23.7781H49.0577Z" fill="#244E92"/>
<path d="M65.3987 23.7781V11.8743H65.3617L63.2545 23.7781H60.9994L58.8183 11.8743H58.7813V23.7781H55.4542V4.25879H60.334L62.0345 14.3142H62.0715L63.9939 4.25879H68.6888V23.7781H65.3987Z" fill="#244E92"/>
<path d="M71.0912 23.7781V4.25879H79.8528V7.91866H75.0469V11.9482H78.8916V15.4602H75.0469V20.1182H80.1485V23.7781H71.0912Z" fill="#244E92"/>
<path d="M87.5054 9.50829C87.4315 8.51014 87.1727 7.40109 86.1745 7.40109C85.4721 7.40109 85.2134 7.88168 85.2134 8.51014C85.2134 12.17 91.2392 13.2051 91.2392 19.0092C91.2392 22.1145 89.3538 23.9999 86.1376 23.9999C82.5516 23.9999 81.4426 22.0775 81.2208 18.7134L84.8806 18.4546C84.9915 19.9334 85.2503 20.7097 86.2115 20.7097C86.8769 20.7097 87.3205 20.2291 87.3205 19.2679C87.3205 15.5341 81.4426 14.4621 81.4426 8.80589C81.4426 5.95932 83.0322 4 86.1376 4C89.8344 4 90.7956 6.40294 91.0174 9.21254L87.5054 9.50829Z" fill="#244E92"/>
<path d="M96.0824 14.0556C96.0824 6.69889 97.4133 4.03717 101.48 4.03717C105.546 4.03717 106.877 6.69889 106.877 14.0556C106.877 20.562 105.768 24.0001 101.48 24.0001C97.1915 24.0001 96.0824 20.562 96.0824 14.0556ZM102.737 14.0556C102.737 8.84306 102.478 7.6231 101.48 7.6231C100.519 7.6231 100.223 8.84306 100.223 14.0556C100.223 19.7857 100.667 20.599 101.48 20.599C102.293 20.562 102.737 19.7857 102.737 14.0556Z" fill="#244E92"/>
<path d="M108.688 23.7781V4.25879H117.449V7.91866H112.644V11.9482H116.488V15.4602H112.644V23.7781H108.688Z" fill="#244E92"/>
<path d="M122.515 23.7781V4.25879H126.47V23.7781H122.515Z" fill="#244E92"/>
<path d="M134.345 9.50829C134.271 8.51014 134.012 7.40109 133.014 7.40109C132.312 7.40109 132.053 7.88168 132.053 8.51014C132.053 12.17 138.079 13.2051 138.079 19.0092C138.079 22.1145 136.193 23.9999 132.977 23.9999C129.391 23.9999 128.282 22.0775 128.06 18.7134L131.72 18.4546C131.831 19.9334 132.09 20.7097 133.051 20.7097C133.716 20.7097 134.16 20.2291 134.16 19.2679C134.16 15.5341 128.282 14.4621 128.282 8.80589C128.282 5.95932 129.872 4 132.977 4C136.674 4 137.635 6.40294 137.857 9.21254L134.345 9.50829Z" fill="#244E92"/>
<path d="M145.953 23.7781L144.4 16.2365H143.513V23.8151H139.594V4.25879H144.363C147.801 4.25879 149.65 5.55268 149.65 9.69314C149.65 12.0221 148.91 13.39 147.801 14.1663L150.167 23.7781H145.953ZM143.846 12.9464C145.103 12.9464 145.509 12.3179 145.509 10.2107C145.509 7.58594 144.437 7.58594 143.846 7.58594H143.476V12.9094H143.846V12.9464Z" fill="#244E92"/>
<path d="M157.857 23.7781L157.376 19.5637H154.973L154.566 23.7781H150.537L153.568 4.25879H158.633L161.886 23.7781H157.857ZM155.343 16.0887H157.043L156.23 8.73196H156.082L155.343 16.0887Z" fill="#244E92"/>
<path d="M163.179 23.7781V4.25879H171.941V7.91866H167.135V11.9482H170.98V15.4602H167.135V20.1182H172.2V23.7781H163.179Z" fill="#244E92"/>
<path d="M173.753 23.7781V4.25879H177.708V20.1182H182.551V23.7781H173.753Z" fill="#244E92"/>
</svg>
