<svg width="64" height="32" viewBox="0 0 64 32" fill="none" xmlns="http://www.w3.org/2000/svg">
<path fill-rule="evenodd" clip-rule="evenodd" d="M0.00667381 31.8968H63.6008V0.0603027H0.00667381V31.8968Z" fill="#E3120B"/>
<path fill-rule="evenodd" clip-rule="evenodd" d="M29.3846 6.63157L29.4225 8.1684L29.0632 8.1871C29.0348 7.24664 28.8359 7.11822 27.401 7.11822H27.094V12.5021C27.094 13.2458 27.2838 13.4428 28.019 13.4634L28.0373 13.7204C27.3414 13.7113 26.8135 13.7113 26.4786 13.7113C26.1263 13.7113 25.5793 13.7113 24.862 13.7204L24.8804 13.4634C25.6174 13.4428 25.8076 13.2458 25.8076 12.5019V7.11801H25.4487C23.9748 7.11801 23.7757 7.24664 23.7567 8.1871L23.3994 8.1684L23.4349 6.63157C24.7801 6.64051 25.7868 6.65277 26.4621 6.65277C27.094 6.65277 28.0786 6.64051 29.3846 6.63157ZM29.9806 13.4823C30.6478 13.4823 30.7377 13.3536 30.7477 12.4223V7.93152C30.7377 6.99832 30.6476 6.86908 29.9806 6.86908L29.9606 6.63116C30.8674 6.58253 31.0751 6.55178 31.8939 6.40466V9.45775C32.421 8.89194 32.85 8.66399 33.4381 8.66399C34.4125 8.66399 34.9512 9.2591 34.9512 10.3897V12.4223C34.9612 13.3536 35.0509 13.4823 35.7166 13.4823L35.7337 13.7204C35.1608 13.7017 34.7226 13.6809 34.4337 13.6809C34.153 13.6809 33.7449 13.7017 33.1976 13.7204L33.2185 13.4823C33.7449 13.4039 33.7953 13.3063 33.8052 12.4223V10.9341C33.8052 9.68487 33.5872 9.26991 32.9296 9.26991C32.5797 9.26991 32.2022 9.49599 32.0431 9.84404C31.9832 9.96331 31.9432 10.0907 31.9031 10.2197C31.8939 10.2713 31.8939 10.3091 31.8939 10.3292V12.4223C31.8939 13.3063 31.9538 13.4039 32.4791 13.4823L32.5006 13.7204C31.9432 13.7017 31.5329 13.6809 31.2555 13.6809C30.9667 13.6809 30.5279 13.7017 29.9606 13.7204L29.9806 13.4823ZM37.3368 10.569C38.2518 10.5487 38.5302 10.5268 39.4383 10.429C39.3186 9.46752 38.9561 9.01079 38.3413 9.01079C37.7439 9.01079 37.4351 9.48581 37.3368 10.5692V10.569ZM40.4938 12.7486C39.8756 13.5128 39.2695 13.8312 38.4897 13.8312C37.1074 13.8312 36.1716 12.8192 36.1716 11.3397C36.1716 9.74555 37.1373 8.66357 38.5304 8.66357C39.2791 8.66357 39.8178 8.94014 40.1859 9.52653C40.4343 9.94399 40.5032 10.2303 40.5125 10.9451H37.3652C37.4069 12.4325 37.9527 13.2845 38.8626 13.2845C39.3986 13.2845 39.8562 13.0361 40.3451 12.472L40.4938 12.7486ZM3.80303 22.8853C4.61098 22.8647 4.82037 22.6453 4.82037 21.8199V16.6584C4.82037 15.8341 4.61098 15.6148 3.80303 15.592L3.77091 15.326L5.46439 15.3472L8.14226 15.3135L8.84718 15.326L8.89098 16.9219L8.44925 16.9551C8.37313 15.956 8.18564 15.8461 6.61437 15.8461H6.37036L6.26024 15.8557V18.8271C6.46797 18.8271 6.63648 18.8387 6.73617 18.8387C6.90532 18.8509 7.07483 18.8577 7.24442 18.8591C8.10826 18.8591 8.30743 18.6742 8.31661 17.8569H8.69347C8.6601 18.5111 8.6601 18.8498 8.6601 19.1789C8.6601 19.4436 8.6601 19.8152 8.67116 20.3093H8.31661C8.27323 19.5211 8.09554 19.3663 7.26674 19.3566L6.66881 19.3441L6.24919 19.3663V21.6666C6.24919 22.6021 6.30404 22.6453 7.23274 22.6453C8.46135 22.6453 8.82674 22.3702 8.9354 21.3223L9.37754 21.3458L9.12331 23.1716L8.27323 23.1835L5.58723 23.1619L3.7707 23.1716L3.80303 22.8853ZM14.9554 22.392C14.3262 23.0407 13.8256 23.2938 13.098 23.2938C11.6416 23.2938 10.7083 22.1615 10.7083 20.4554C10.7083 18.6746 11.694 17.5594 13.2853 17.5594C13.7045 17.5594 14.1282 17.6362 14.7821 17.8129L14.8008 19.1124L14.3041 19.1456C14.1195 18.1755 13.9255 17.9446 13.2853 17.9446C12.4581 17.9446 12.0277 18.6617 12.0277 20.0793C12.0277 21.7333 12.5445 22.6673 13.4842 22.6673C13.97 22.6673 14.3595 22.4576 14.791 21.9966L14.9554 22.392ZM17.4868 20.5196C17.5965 22.073 18.1161 22.9185 18.9659 22.9185C19.7605 22.9185 20.2367 22.0957 20.2367 20.7294C20.2367 19.1037 19.5828 17.977 18.679 17.977C17.8737 17.977 17.4637 18.6521 17.4637 20.0263C17.4637 20.1915 17.4637 20.3558 17.4868 20.5198V20.5196ZM16.135 20.6418V20.4749C16.135 18.6189 17.1386 17.5596 18.845 17.5596C20.4279 17.5596 21.5535 18.7294 21.5535 20.4313C21.5535 22.1391 20.46 23.294 18.8118 23.294C17.2389 23.294 16.1907 22.2384 16.135 20.6418ZM22.8578 22.9086C23.5779 22.9086 23.6874 22.7652 23.6874 21.7331V19.2001C23.6874 18.1977 23.5779 18.0545 22.8578 18.0433L22.8357 17.7913C23.7986 17.736 24.0211 17.7027 24.8583 17.5263L24.9148 18.5002C25.544 17.8127 26.0295 17.5594 26.6844 17.5594C27.757 17.5594 28.3629 18.253 28.3629 19.4767V21.7333C28.3529 21.8197 28.3529 21.9085 28.3529 21.9966C28.3529 22.6999 28.5399 22.9086 29.2142 22.9086L29.2359 23.1716C28.5956 23.1506 28.1097 23.128 27.7891 23.128C27.4805 23.128 27.0166 23.1506 26.4281 23.1716L26.4475 22.9086C27.0166 22.8198 27.0819 22.7112 27.0819 21.7331L27.094 21.059V20.0795C27.094 18.6962 26.8396 18.253 26.1407 18.253C25.709 18.253 25.3448 18.4732 25.1242 18.8718C25.036 19.0368 24.9594 19.2988 24.9594 19.4102V21.7333C24.9703 22.7114 25.0257 22.82 25.6103 22.9086L25.6443 23.1716C25.0257 23.1506 24.5621 23.128 24.253 23.128C23.9315 23.128 23.4599 23.1506 22.8357 23.1716L22.8578 22.9086ZM31.5354 20.5196C31.6468 22.073 32.164 22.9185 32.9968 22.9185C33.7918 22.9185 34.2669 22.0957 34.2669 20.7294C34.2669 19.1037 33.6158 17.977 32.7167 17.977C31.9229 17.977 31.5144 18.6521 31.5144 20.0263C31.5144 20.1915 31.5144 20.3558 31.5352 20.5198L31.5354 20.5196ZM30.1663 20.6418V20.4749C30.1663 18.6189 31.1723 17.5596 32.8769 17.5596C34.4777 17.5596 35.6023 18.7294 35.6023 20.4313C35.6023 22.1391 34.5097 23.294 32.8437 23.294C31.2816 23.294 30.2221 22.2384 30.1663 20.6418ZM36.8376 22.9086C37.579 22.9086 37.6895 22.7652 37.6895 21.7331V19.2001C37.6895 18.1977 37.579 18.0545 36.8376 18.0433L36.8152 17.7913C37.7982 17.736 38.0213 17.7027 38.8539 17.5263L38.9033 18.5002C39.5246 17.8241 40.0114 17.5594 40.6625 17.5594C41.4133 17.5594 41.8538 17.8677 42.167 18.5859C42.8417 17.8336 43.3374 17.5594 44.0119 17.5594C45.0539 17.5594 45.6372 18.2634 45.6372 19.4767V21.7333C45.6372 21.8197 45.6261 21.9085 45.6261 21.9966C45.6261 22.6999 45.8261 22.9086 46.4875 22.9086L46.5115 23.1716C45.8702 23.1506 45.3846 23.128 45.0737 23.128C44.7744 23.128 44.32 23.1506 43.7137 23.1716L43.7356 22.9086C44.3199 22.8198 44.3756 22.7112 44.3865 21.7331V20.0795C44.3865 18.7176 44.1462 18.253 43.4594 18.253C43.0513 18.253 42.6311 18.5002 42.4544 18.8718C42.3989 19.0027 42.3447 19.1357 42.3116 19.2896C42.3003 19.3441 42.2886 19.3881 42.2886 19.4102V21.7333C42.2886 22.7114 42.3549 22.82 42.9395 22.9086L42.9635 23.1716C42.3781 23.1506 41.9478 23.128 41.6556 23.128C41.3695 23.128 40.9378 23.1506 40.3634 23.1716L40.3866 22.9086C40.9716 22.8198 41.0268 22.7112 41.0362 21.7331V20.0795C41.0362 18.7176 40.7947 18.253 40.1088 18.253C39.6915 18.253 39.315 18.483 39.105 18.8718C39.0161 19.0469 38.945 19.2988 38.945 19.4102V21.7333C38.9561 22.7114 39.0055 22.82 39.5911 22.9086L39.6132 23.1716C39.0055 23.1506 38.5596 23.128 38.2518 23.128C37.93 23.128 37.4564 23.1506 36.8152 23.1716L36.8376 22.9086ZM48.1768 15.6926C48.1765 15.5968 48.1951 15.502 48.2317 15.4134C48.2682 15.3249 48.322 15.2445 48.3899 15.1767C48.4577 15.1089 48.5384 15.0552 48.6271 15.0185C48.7159 14.9819 48.8111 14.9631 48.9072 14.9632C49.317 14.9632 49.6469 15.3017 49.6469 15.6926C49.6469 16.1086 49.3276 16.4396 48.9072 16.4396C48.488 16.4396 48.1768 16.1202 48.1768 15.6926ZM49.5914 17.5263V21.059L49.6019 21.7331C49.6019 22.765 49.703 22.9081 50.4523 22.9081L50.4755 23.1716C49.7898 23.1506 49.2932 23.1282 48.9516 23.1282C48.621 23.1282 48.1365 23.1506 47.4683 23.1716L47.4892 22.9081C48.2183 22.9081 48.3224 22.765 48.3224 21.7331L48.3326 21.059V19.9045L48.3224 19.2005C48.3224 18.1977 48.2181 18.0545 47.4892 18.0435L47.4683 17.7911C48.4661 17.7256 48.6965 17.6917 49.5914 17.5263ZM51.805 22.9748L51.7617 21.8519L52.3237 21.8314C52.578 22.6779 52.7444 22.8421 53.33 22.8421C53.8368 22.8421 54.1692 22.579 54.1692 22.1838C54.1692 21.8083 53.9377 21.5357 53.2405 21.07C52.8881 20.8281 52.6457 20.6617 52.5135 20.564C52.2253 20.3444 52.0157 20.0795 51.9049 19.784C51.8374 19.6186 51.805 19.4216 51.805 19.1903C51.805 18.2098 52.4916 17.5594 53.5279 17.5594C53.914 17.5594 54.1353 17.5922 55.0112 17.8012L55.0352 18.8934L54.4739 18.9162C54.3488 18.1977 54.1246 17.9446 53.6063 17.9446C53.1094 17.9446 52.7552 18.2309 52.7552 18.6185C52.7552 19.0027 52.9331 19.2335 53.5069 19.5964C54.0249 19.9382 54.4218 20.2447 54.6915 20.4867C55.0012 20.7831 55.1787 21.1567 55.1787 21.5725C55.1787 22.5443 54.359 23.2938 53.3079 23.2938C52.9002 23.2938 52.5135 23.2034 51.805 22.9748ZM56.3478 17.8792C57.2188 17.8127 57.5483 17.4401 57.7981 16.2954H58.2945V17.78H59.6868L59.5312 18.3845H58.2945V21.07C58.2945 22.404 58.472 22.7213 59.2226 22.7213C59.3986 22.7213 59.5636 22.6997 59.8299 22.6237V22.9416C59.4551 23.1508 58.9362 23.2712 58.4069 23.2712C57.9183 23.2712 57.4657 22.9973 57.2759 22.5896C57.1099 22.2488 57.0557 21.9085 57.0557 21.1793V18.3845H56.3478V17.8792Z" fill="white"/>
</svg>
