<svg width="195" height="28" viewBox="0 0 195 28" fill="none" xmlns="http://www.w3.org/2000/svg">
<path fill-rule="evenodd" clip-rule="evenodd" d="M3.9842 10.3615C4.3656 9.3263 4.89231 8.509 5.56431 7.90965C5.65422 7.87219 5.74901 7.84773 5.84582 7.837C5.93663 7.82792 6.17274 7.81883 6.54507 7.81883C6.75393 7.81883 6.93556 7.837 7.08993 7.86424C7.26035 7.89507 7.42548 7.95011 7.58031 8.0277C7.78367 8.13104 7.98077 8.24627 8.17059 8.37278L5.31004 10.6431L5.98204 11.1879V18.7525C5.25398 18.3968 4.64967 17.8305 4.24755 17.127C3.68452 16.1553 3.41209 14.8567 3.41209 13.2221C3.41209 12.3412 3.59371 11.3877 3.9842 10.3525V10.3615ZM3.71176 7.45559C3.92891 7.46073 4.14496 7.48812 4.35652 7.53732L5.08301 7.70078C3.51198 8.39095 2.30419 9.54424 1.45057 11.1516C0.705878 12.5681 0.322212 14.1464 0.333589 15.7466C0.333589 17.799 1.06008 19.5607 2.47673 21.0137C3.1456 21.724 3.95573 22.2865 4.85502 22.665C5.75431 23.0435 6.72285 23.2296 7.69837 23.2113C9.67805 23.2113 11.349 22.4576 12.7111 20.941C14.0528 19.486 14.7842 17.5712 14.7544 15.5923C14.5953 15.9791 14.3845 16.3426 14.1278 16.6729C13.8301 17.0281 13.4986 17.3536 13.138 17.6446C12.906 17.8515 12.6535 18.0341 12.3842 18.1895C12.1002 18.3392 11.8093 18.4756 11.5124 18.5981V8.51808C11.9665 8.33646 12.3297 8.13667 12.6022 7.94597C12.8746 7.75527 13.1652 7.46467 13.483 7.09235C14.3911 6.18424 14.7544 5.15807 14.8452 4.04109C14.3404 4.38556 13.8019 4.67767 13.2378 4.91288C12.7656 5.0945 12.2208 5.22164 11.6305 5.27612C11.5397 5.27612 11.4035 5.28521 11.24 5.30337C10.2284 5.21478 9.23941 4.95371 8.31588 4.53147C7.01729 4.01385 5.99112 3.75958 5.24647 3.75958C3.77533 3.75958 2.5857 4.44974 1.68667 5.83007C0.887537 7.0651 0.478887 8.52716 0.478887 10.2253C0.612672 9.66718 0.8951 9.15567 1.29619 8.74511C1.61268 8.39288 1.97997 8.08986 2.38592 7.84608C2.79457 7.57364 3.24863 7.45559 3.72992 7.45559H3.71176ZM17.3516 23.0751L19.7853 20.3508L18.5503 19.0612V11.7782L19.2495 11.306L21.2111 12.7862V22.4031C21.2111 22.948 21.1747 23.402 21.1203 23.7925C21.0616 24.1542 20.9115 24.4949 20.6844 24.7823L19.9942 25.636C19.6854 26.0174 19.2949 26.3171 18.8318 26.5441C19.7672 26.4533 20.53 26.2444 21.1293 25.9084C21.7287 25.5724 22.3462 25.0639 22.9819 24.3646C23.4116 23.8981 23.7669 23.3682 24.0353 22.7936C24.2723 22.2597 24.4284 21.6935 24.4984 21.1136V10.3706L23.663 10.4251L20.9386 8.66338L19.1224 10.2344L18.5049 9.89841V4.57688L17.9419 3.36909L15.4536 5.80283V19.6061L14.6999 20.5142L17.3516 23.0751ZM25.7062 20.0238L30.2195 22.8753L34.5058 18.3711L32.181 20.0238L29.3205 17.9806V16.0736L34.4059 12.2595L31.1549 7.90057L25.9786 11.5148V19.4154L25.7062 20.0238ZM40.69 5.94813V11.1879C40.3797 11.2132 40.0742 11.2805 39.7819 11.3877C39.5458 11.4785 39.3006 11.642 39.0373 11.8599C38.2926 12.4411 37.9203 13.1858 37.9203 14.103C37.9135 14.3884 37.9502 14.6732 38.0293 14.9475C38.3017 14.7205 38.5469 14.5843 38.8012 14.4934C39.1063 14.4134 39.4212 14.3767 39.7365 14.3845C39.9182 14.3845 40.0725 14.4026 40.1906 14.439C40.3086 14.4753 40.463 14.5479 40.6991 14.666V19.815L44.5677 23.7199L48.1275 20.1056L52.4138 23.7199L58.6616 17.6718V7.31937L54.793 4.34985L51.9325 6.92889L48.0276 4.34985L44.5495 7.25581V5.54856C44.5495 4.98553 44.1499 4.34985 43.3417 3.64153L42.6516 3.1239C42.4336 2.94228 42.3065 2.69709 42.2702 2.37017C42.2374 2.10498 42.2192 1.83821 42.2157 1.57103C42.2157 0.935354 42.4336 0.435893 42.8513 0.0544865C42.6924 0.0248002 42.5316 0.00659106 42.37 0C41.5346 0 40.7899 0.345082 40.1452 1.05341C39.5004 1.76174 39.1826 2.53363 39.1826 3.39633C39.1826 3.52347 39.2007 3.70509 39.2371 3.9412C39.302 4.36835 39.4644 4.77482 39.7116 5.12914C39.9588 5.48346 40.2843 5.77612 40.6628 5.98445L40.69 5.94813ZM59.3971 20.1782L62.8752 22.612L65.3907 20.2236L68.3874 22.3123L70.9665 19.5425H70.0584L68.9141 18.362V10.1527L68.2966 10.2617L65.3907 7.82792L59.8694 11.642V19.6788L59.3971 20.1782ZM76.1064 8.40003C75.7527 8.23123 75.4204 8.02089 75.1165 7.77343L70.5487 10.9972V16.4277L70.9665 16.7637H73.6908L70.1492 22.8935C70.694 22.4394 71.1118 22.1216 71.4205 21.9672C71.8472 21.7587 72.3168 21.6529 72.7918 21.6584C73.3911 21.6584 73.8815 21.7311 74.2447 21.8673C74.608 22.0035 74.9985 22.2578 75.398 22.612L79.875 19.0885V13.5672L79.539 13.2312H76.5423V12.9587L79.203 8.28197C78.9306 8.46359 78.6945 8.55441 78.531 8.57257C78.2631 8.60736 77.993 8.62254 77.7228 8.61797H77.1325C76.7793 8.62422 76.429 8.55293 76.1064 8.40911V8.40003ZM83.2078 22.7028L85.6597 19.9603L84.4247 18.6708V11.3877L85.0967 10.9155L87.0945 12.423V22.0035C87.1012 22.4687 87.0678 22.9335 86.9946 23.3929C86.9311 23.7562 86.7767 24.0922 86.5406 24.3919L85.923 25.2092C85.586 25.6023 85.1758 25.9261 84.7153 26.1627C85.5091 26.1072 86.284 25.8942 86.9946 25.5361C87.7067 25.1507 88.3385 24.6329 88.8562 24.0105C89.2831 23.5019 89.6191 22.9843 89.8552 22.4303C90.0913 21.8764 90.2547 21.3134 90.3274 20.7322V9.96198L89.5101 10.0528L86.8493 8.29105L85.0331 9.83484L84.4156 9.49884V4.20455L83.8707 2.96952L81.3462 5.40326V19.2247L80.5924 20.0874L83.2078 22.7028ZM96.6842 6.14791L94.1596 4.10466L92.1164 6.3477L94.2413 8.28197L96.6842 6.14791ZM92.7339 12.4774V20.1056L92.189 20.9229H93.1425L95.322 22.7663L97.6195 20.6777L100.562 23.0569L103.141 20.2055L102.324 19.1702V12.0234L102.996 11.6874L104.485 13.322V20.3144L107.091 22.5847L109.616 19.7242H108.435L107.763 18.6344V11.0063L108.099 10.3071L107.427 10.4433L104.766 8.38186L102.242 10.9881L99.2995 8.66338L96.8658 11.3877H97.8193L98.6366 12.3412V19.3337L97.002 19.8967L95.9668 19.0794V11.2333L96.3028 10.7611L93.3968 8.60889L91.0175 11.1334L91.8349 11.3877L92.7339 12.4774ZM143.098 19.8331L142.28 18.7979V11.6601L142.952 11.3241L144.442 12.9587V19.9875L147.048 22.2306L149.563 19.37H148.383L147.711 18.2803V10.6521L148.047 9.98014L147.375 10.0891L144.796 8.04586L142.28 10.6521L139.338 8.32738L136.904 11.0517H137.858L138.675 12.0052V19.034L137.676 20.378L140.782 22.4213L143.098 19.8331ZM110.161 19.8876C110.507 19.8825 110.853 19.9284 111.187 20.0238C111.517 20.1299 111.825 20.2962 112.095 20.5142C112.394 20.7503 112.612 20.9683 112.749 21.1862C112.885 21.4042 113.003 21.6948 113.112 22.0671L111.659 23.9469L110.115 26.0174C110.425 25.8243 110.766 25.686 111.123 25.6087C111.396 25.5633 111.813 25.5361 112.358 25.5361C112.925 25.5698 113.479 25.7214 113.984 25.9811C114.468 26.2524 114.889 26.6239 115.219 27.0708C116.127 26.7348 117.153 25.9811 118.343 24.8278C119.532 23.6745 120.123 22.7209 120.123 21.9672C120.032 21.5535 119.895 21.1514 119.714 20.7685C119.44 20.0904 119.302 19.3656 119.305 18.6344V9.91657L115.4 7.48283L110.497 10.9609V19.2519L110.161 19.8876ZM119.823 10.3071H121.457V20.0238L121.067 20.7776H122.02L124.064 22.3486L126.788 19.3518H125.644L124.89 18.5345V10.5068L126.543 8.46359H124.89V3.10574L121.557 6.21148V8.33646L119.823 10.3071ZM126.906 19.8876L130.375 22.3395L136.423 18.1077V9.87117L135.806 10.0074L132.9 7.55548L127.387 11.3695V19.4063L126.906 19.8876ZM155.33 5.99353V8.59981C154.913 8.59065 154.497 8.64266 154.095 8.75419C153.759 8.845 153.441 9.05387 153.132 9.35354C152.824 9.65322 152.642 9.98922 152.587 10.3888C152.533 10.7884 152.497 11.2969 152.497 11.9326C152.497 12.205 152.488 12.3685 152.469 12.4774C152.878 11.8236 153.45 11.5512 154.177 11.6601C154.667 11.7328 155.048 11.9326 155.321 12.2777V16.6184C154.469 17.0594 153.708 17.6571 153.078 18.3802C152.37 19.2247 151.897 20.0874 151.652 20.9864C151.968 20.7368 152.306 20.515 152.66 20.3235C152.933 20.1873 153.332 20.0511 153.841 19.8876L154.476 19.706C154.722 19.6424 155.003 19.6152 155.321 19.6152V27.988L158.99 24.9912L160.225 25.8993V21.1317L161.796 21.6766L167.09 18.0078V5.66661L163.703 2.94228L160.225 5.84823V4.30445L159.553 3.74142V6.19332L158.99 6.5838V4.00477L156.129 1.8253L152.742 5.15807C153.014 4.97645 153.314 4.9038 153.605 4.9038C153.85 4.9038 154.077 4.94012 154.304 5.01277C154.812 5.19439 155.139 5.52131 155.303 5.96629L155.33 5.99353ZM167.571 20.1601L171.049 22.5938L177.134 18.362V10.1527L176.516 10.2617L173.574 7.82792L168.053 11.642V19.6788L167.571 20.1601ZM183.645 8.26381C183.284 8.08557 182.938 7.87909 182.61 7.64629L178.069 10.8428V16.2733L178.46 16.6093H181.184L177.642 22.7391C178.033 22.4031 178.369 22.1488 178.623 21.9854C179.124 21.6648 179.709 21.5004 180.303 21.5131C180.884 21.5131 181.356 21.5858 181.729 21.722C182.101 21.8582 182.482 22.1125 182.873 22.4667L187.35 18.9432V13.4128L187.014 13.0768H184.017V12.8044L186.678 8.12759C186.406 8.29105 186.169 8.40003 186.006 8.41819C185.738 8.45368 185.468 8.46886 185.198 8.46359H184.607C184.244 8.46359 183.908 8.40003 183.627 8.26381H183.645ZM187.459 10.4433H189.094V20.1601L188.703 20.9138H189.657L191.673 22.4848L194.333 19.4881H193.189L192.435 18.6708V10.634L194.07 8.59073H192.435V3.23287L189.103 6.33861V8.46359L187.459 10.4433ZM63.2112 10.6975L65.3907 12.3321V18.8705L64.6914 19.6243L63.2021 18.3348V10.7066L63.2112 10.6975ZM117.425 22.1852C117.879 22.503 118.097 22.9116 118.097 23.3929C118.097 23.62 118.079 23.7834 118.043 23.8924C117.934 24.0559 117.843 24.1648 117.789 24.2284C117.637 24.381 117.439 24.4798 117.226 24.5099C116.98 24.5462 116.663 24.4191 116.272 24.1648C115.882 23.9106 115.291 23.7562 114.51 23.7562C114.002 23.7562 113.548 23.8016 113.148 23.8924C112.701 24.0004 112.268 24.162 111.859 24.3737L115.945 19.3337V19.9694C115.939 20.2811 115.972 20.5924 116.045 20.8956C116.109 21.1408 116.254 21.3678 116.481 21.5949L117.435 22.1852H117.425ZM113.811 10.3615L115.936 11.9326V18.2621L115.319 18.9341L113.811 17.4176V10.3615ZM29.3114 15.2653V11.1788L31.3547 13.7579L29.3114 15.2653ZM77.2869 10.634L75.4707 14.0212H74.045V10.3525C74.608 10.7157 75.2073 10.8973 75.8612 10.8973C76.3879 10.8973 76.8873 10.8065 77.3777 10.6431L77.2869 10.634ZM130.702 10.407L132.881 12.0597V18.5981L132.182 19.3518L130.693 18.0351V10.407H130.702ZM74.3991 16.0645H76.4424V19.6788C76.1551 19.5779 75.8607 19.4989 75.5615 19.4427C75.1568 19.4093 74.7506 19.3972 74.3446 19.4063C73.9874 19.4007 73.6308 19.4373 73.2821 19.5153C72.9825 19.588 72.6283 19.7151 72.2197 19.8785L74.3991 16.0645ZM158.899 8.43635L159.462 7.96413V23.9469L158.899 23.6109V8.43635ZM160.134 7.52824L161.841 6.43851L163.076 7.34662V17.8807L162.123 17.3358L161.505 17.1361C161.047 17.0272 160.59 16.9152 160.134 16.8001V7.53732V7.52824ZM10.4772 8.76327C10.6588 8.76327 10.8132 8.74511 10.9312 8.70878V18.9523C10.2257 19.3028 9.44883 19.4861 8.66097 19.4881C8.20691 19.4881 7.72561 19.4336 7.26248 19.3246C6.79934 19.2156 6.42701 19.0522 6.17274 18.8705L9.36929 15.674V8.68154C9.50265 8.75743 9.65194 8.80098 9.80519 8.80868L10.1321 8.81776L10.4772 8.76327ZM171.276 10.6703L173.456 12.3049V18.8433L172.784 19.597L171.267 18.3075L171.276 10.6703ZM44.5586 8.05494L45.5938 7.23764L47.7461 9.41711V19.4699L46.8743 20.378L44.5495 18.135V8.05494H44.5586ZM184.099 10.7157C184.344 10.6794 184.571 10.6249 184.798 10.5159L182.982 13.9032H181.556V10.2344C182.111 10.5845 182.753 10.7703 183.409 10.7702C183.67 10.7718 183.931 10.7536 184.19 10.7157H184.099ZM182.01 15.9555H184.054V19.5698C183.767 19.4663 183.472 19.3873 183.173 19.3337C182.973 19.3064 182.573 19.2883 181.956 19.2883C181.599 19.2818 181.242 19.3184 180.893 19.3972C180.539 19.491 180.193 19.6125 179.858 19.7605L182.01 15.9555ZM51.9143 8.05494L52.9132 7.23764L55.0927 9.41711V19.4699L54.1846 20.378L51.8871 18.135L51.9143 8.05494Z" fill="black"/>
</svg>
