<svg width="257" height="35" viewBox="0 0 257 35" fill="none" xmlns="http://www.w3.org/2000/svg">
<path d="M17.9028 11.5C18.0865 10.9354 18.2245 10.3568 18.3153 9.77001C18.3481 9.43667 18.3647 9.21612 18.3653 9.10834C18.3849 8.79753 18.3162 8.48752 18.1669 8.21417C18.0501 8.02388 17.8851 7.8678 17.6886 7.76167C17.5254 7.67213 17.3456 7.61711 17.1603 7.6C16.9981 7.58889 16.8828 7.58334 16.8144 7.58334H16.4811V6.87167H21.4294V7.58334C20.7632 7.74581 20.1741 8.13463 19.7628 8.68334C19.4862 9.1384 19.2699 9.6275 19.1194 10.1383L15.3619 22.4908C15.0986 23.3108 14.8403 24.0761 14.5869 24.7867C14.3649 25.4344 14.0661 26.0533 13.6969 26.63C13.3868 27.1144 12.9831 27.532 12.5094 27.8583C12.0338 28.1667 11.4761 28.3242 10.9094 28.31C10.4005 28.3141 9.89775 28.1981 9.44195 27.9717C8.9961 27.7493 8.59807 27.4419 8.27028 27.0667C7.93242 26.6763 7.66967 26.2268 7.49528 25.7408C7.30711 25.2282 7.21228 24.6861 7.21528 24.14C7.19513 23.7905 7.24448 23.4405 7.36049 23.1102C7.47649 22.78 7.65685 22.476 7.89111 22.2158C8.07949 22.0026 8.31005 21.8307 8.56824 21.7111C8.82643 21.5914 9.10662 21.5267 9.39111 21.5208C9.65042 21.5252 9.90598 21.5834 10.1416 21.6919C10.3771 21.8004 10.5876 21.9566 10.7594 22.1508C10.9704 22.3848 11.133 22.6582 11.2378 22.9552C11.3427 23.2523 11.3877 23.5671 11.3703 23.8817C11.3926 24.3112 11.2895 24.738 11.0736 25.11C10.9249 25.3557 10.7352 25.5741 10.5128 25.7558C10.3956 25.8463 10.268 25.9224 10.1328 25.9825C9.98945 26.0467 9.85195 26.1117 9.72028 26.1758C9.59812 26.2343 9.48201 26.3046 9.37361 26.3858C9.32842 26.416 9.29128 26.4567 9.26542 26.5045C9.23957 26.5523 9.22579 26.6057 9.22528 26.66C9.24389 26.7867 9.29059 26.9075 9.36196 27.0138C9.43334 27.1201 9.52758 27.209 9.63778 27.2742C10.0138 27.5194 10.4602 27.6336 10.9078 27.5992C11.1072 27.5969 11.3059 27.5754 11.5011 27.535C11.7481 27.4789 11.9793 27.3682 12.1778 27.2108C12.448 26.9977 12.6868 26.7475 12.8869 26.4675C13.1749 26.051 13.3974 25.5929 13.5469 25.1092L7.28028 7.58334H5.82861V6.87167H12.9878V7.58334H11.2378L15.5594 19.7733L17.9028 11.5ZM27.4361 16.61C27.7521 16.6135 28.0675 16.5808 28.3761 16.5125C28.6661 16.438 28.9221 16.267 29.1019 16.0275C29.3462 15.6901 29.515 15.3042 29.5969 14.8958C29.7369 14.2259 29.8086 13.5435 29.8111 12.8592C29.8358 11.8253 29.9237 10.7939 30.0744 9.77084C30.1638 9.10521 30.3529 8.45684 30.6353 7.8475C30.8268 7.42487 31.159 7.08176 31.5753 6.87667C32.0307 6.69171 32.5198 6.604 33.0111 6.61917C33.4559 6.60584 33.8973 6.70018 34.2978 6.89417C34.6273 7.05914 34.9151 7.29678 35.1394 7.58917C35.3439 7.86224 35.5001 8.16834 35.6011 8.49417C35.6949 8.78715 35.7449 9.0924 35.7494 9.4C35.7617 10.0484 35.5778 10.6854 35.2219 11.2275C35.0607 11.481 34.8356 11.6877 34.5693 11.8266C34.3029 11.9656 34.0046 12.032 33.7044 12.0192C33.428 12.0418 33.1504 11.9923 32.8989 11.8754C32.6473 11.7586 32.4304 11.5784 32.2694 11.3525C31.9884 10.9604 31.833 10.4923 31.8236 10.01V9.71834C31.8238 9.63089 31.835 9.54382 31.8569 9.45917C31.9011 9.30917 31.9453 9.17334 31.9894 9.05501C32.0368 8.91444 32.0591 8.76663 32.0553 8.61834C32.0552 8.48822 32.0444 8.35832 32.0228 8.23001C32.016 8.19781 32.003 8.16725 31.9844 8.1401C31.9659 8.11295 31.9421 8.08972 31.9146 8.07176C31.887 8.0538 31.8562 8.04146 31.8238 8.03544C31.7915 8.02941 31.7583 8.02983 31.7261 8.03667C31.576 8.04379 31.4318 8.09743 31.3136 8.19015C31.1953 8.28288 31.1088 8.4101 31.0661 8.55417C30.8945 8.96187 30.7822 9.39209 30.7328 9.83167C30.6655 10.3569 30.6271 10.8855 30.6178 11.415C30.6067 11.965 30.59 12.4447 30.5678 12.8542C30.5608 13.6873 30.4613 14.5171 30.2711 15.3283C30.1221 15.8489 29.8098 16.3078 29.3803 16.6375L29.4169 16.7667C29.8119 16.7816 30.2044 16.8357 30.5886 16.9283C31.1274 17.0568 31.6366 17.2873 32.0886 17.6075C32.6502 18.015 33.1172 18.5388 33.4578 19.1433C33.9133 19.9962 34.1673 20.942 34.2003 21.9083C34.2442 22.4906 34.2661 23.0889 34.2661 23.7033C34.2661 24.3178 34.2886 24.8781 34.3336 25.3842C34.3602 25.8168 34.4547 26.2426 34.6136 26.6458C34.6629 26.7941 34.7585 26.9227 34.8863 27.0127C35.0141 27.1027 35.1674 27.1494 35.3236 27.1458C35.4368 27.1389 35.5475 27.1096 35.6493 27.0597C35.7512 27.0098 35.8421 26.9402 35.9169 26.855L36.2136 27.34C35.8829 27.6516 35.4894 27.8889 35.0594 28.0358C34.7361 28.1496 34.4053 28.2412 34.0694 28.31C33.85 28.3312 33.6289 28.3312 33.4094 28.31C32.9153 28.294 32.4311 28.167 31.9928 27.9383C31.6131 27.7029 31.3183 27.3526 31.1511 26.9383C30.905 26.3329 30.744 25.6963 30.6728 25.0467C30.5617 24.2489 30.4628 23.2358 30.3761 22.0075C30.334 21.423 30.2784 20.8395 30.2094 20.2575C30.1538 19.7439 30.0317 19.2397 29.8461 18.7575C29.6897 18.3424 29.4215 17.9787 29.0711 17.7067C28.6483 17.4234 28.1441 17.2867 27.6361 17.3175H26.2194V27.3408H28.1661V28.0525H20.7394V27.3408H22.6561V7.58334H20.7394V6.87167H28.1619V7.58334H26.2153V16.6058H27.4361V16.61ZM38.7503 7.58334H36.8053V6.87167H44.0961C45.236 6.84245 46.3729 7.00125 47.4611 7.34167C48.2657 7.59705 49.0037 8.02766 49.6219 8.6025C50.1519 9.1165 50.5434 9.75599 50.7603 10.4617C50.9827 11.1843 51.0951 11.9364 51.0936 12.6925C51.0936 14.9558 50.5 16.5725 49.3128 17.5425C48.1256 18.5125 46.3425 18.9983 43.9636 19H42.3136V27.3408H44.4911V28.0525H36.8053V27.3408H38.7503V7.58334ZM43.4678 18.2867C43.9589 18.2892 44.4496 18.2569 44.9361 18.19C45.3682 18.1338 45.7688 17.9339 46.0736 17.6225C46.4291 17.2215 46.6786 16.7379 46.7994 16.2158C47.001 15.3583 47.0898 14.4781 47.0636 13.5975V11.3025C47.0661 10.7949 47.0383 10.2876 46.9803 9.78334C46.9387 9.36442 46.7913 8.96295 46.5519 8.61667C46.2908 8.27073 45.936 8.00696 45.5294 7.85667C44.9409 7.65132 44.319 7.55804 43.6961 7.58167H42.3136V18.2875H43.4686L43.4678 18.2867ZM59.0378 21.8758H54.2211L53.8603 23.2667C53.8255 23.3835 53.7976 23.5023 53.7769 23.6225C53.7436 23.7958 53.6719 24.215 53.5628 24.8833C53.5184 25.0967 53.4906 25.3132 53.4795 25.5308C53.469 25.7493 53.4972 25.968 53.5628 26.1767C53.6055 26.3714 53.6934 26.5534 53.8193 26.708C53.9452 26.8626 54.1057 26.9854 54.2878 27.0667C54.7274 27.2078 55.1813 27.2997 55.6411 27.3408V28.0525H50.3961V27.3408C50.7796 27.3381 51.1533 27.2199 51.4686 27.0017C51.7518 26.7865 51.9828 26.5102 52.1444 26.1933C52.33 25.8336 52.474 25.454 52.5736 25.0617C52.6847 24.6417 52.8058 24.1945 52.9369 23.72L57.3894 6.61417H58.9069L64.2503 27.3408H65.6361V28.0525H58.6436V27.3408H60.5236L59.0378 21.8758ZM56.6669 12.3692L54.3544 21.1667H58.9378L56.6669 12.3692ZM65.4053 3.28334C65.3838 2.95191 65.4717 2.62258 65.6553 2.34584C65.7979 2.14923 65.9842 1.98835 66.1994 1.87584C66.3805 1.78444 66.5758 1.72442 66.7769 1.69834C66.9611 1.67751 67.0769 1.66667 67.1211 1.66667C67.1869 1.66667 67.3078 1.67751 67.4836 1.69917C67.6791 1.72704 67.8686 1.78701 68.0444 1.87667C68.2568 1.98684 68.4381 2.14842 68.5719 2.34667C68.7438 2.62787 68.8247 2.95527 68.8036 3.28417C68.8234 3.72149 68.6742 4.14967 68.3869 4.48001C68.2199 4.64156 68.0202 4.76557 67.8013 4.84375C67.5825 4.92193 67.3494 4.95247 67.1178 4.93334C66.8826 4.95086 66.6464 4.91799 66.425 4.83694C66.2035 4.75589 66.0019 4.62852 65.8336 4.46334C65.5439 4.14004 65.3904 3.71722 65.4053 3.28334ZM66.0978 7.58334V6.87167H73.5536V7.58334H71.6069V27.3408H73.5528V28.0525H66.0978V27.3408H68.0436V7.58334H66.0978ZM70.8478 3.2825C70.8266 2.9511 70.9144 2.62185 71.0978 2.345C71.2406 2.14823 71.4272 1.98733 71.6428 1.87501C71.8236 1.78366 72.0186 1.72365 72.2194 1.69751C72.4044 1.67751 72.5194 1.66667 72.5636 1.66667C72.6078 1.66667 72.7228 1.67751 72.9103 1.69917C73.1111 1.72538 73.3061 1.78539 73.4869 1.87667C73.7024 1.9892 73.889 2.15006 74.0319 2.34667C74.2153 2.62355 74.3031 2.95277 74.2819 3.28417C74.3026 3.7237 74.1486 4.15356 73.8536 4.48001C73.6824 4.64083 73.4796 4.76421 73.258 4.84227C73.0365 4.92032 72.8011 4.95134 72.5669 4.93334C72.3315 4.95149 72.0949 4.91909 71.873 4.83832C71.651 4.75755 71.449 4.63026 71.2803 4.465C70.989 4.14175 70.8343 3.71823 70.8486 3.28334L70.8478 3.2825ZM82.9886 6.87167V7.58334H81.3719V16.5083H86.7503V7.58334H85.1336V6.87167H92.2261V7.58334H90.3094V27.3408H92.2261V28.0525H85.1336V27.3408H86.7503V17.2208H81.3719V27.3408H82.9886V28.0525H75.8961V27.3408H77.8128V7.58334H75.8961V6.87167H82.9886ZM105.717 13.695C105.532 12.019 104.95 10.4113 104.019 9.00584C103.722 8.51648 103.309 8.10734 102.817 7.81419C102.326 7.52103 101.77 7.35279 101.198 7.32417C100.807 7.30016 100.416 7.36975 100.057 7.52715C99.6988 7.68455 99.383 7.92522 99.1361 8.22917C98.6483 8.86448 98.3048 9.59845 98.1294 10.38C97.9322 11.2071 97.8219 12.0525 97.8003 12.9025C97.7781 13.7542 97.7669 14.4281 97.7669 14.9242L97.7344 19.3542C97.7104 20.7083 97.8154 22.0616 98.0478 23.3958C98.1963 24.2705 98.4685 25.1195 98.8561 25.9175C99.1006 26.4452 99.4822 26.8976 99.9611 27.2275C100.32 27.4614 100.737 27.5904 101.165 27.6C101.644 27.5837 102.113 27.4562 102.534 27.2275C103.089 26.9302 103.577 26.523 103.969 26.0308C104.489 25.3784 104.901 24.6469 105.189 23.8642C105.58 22.7974 105.824 21.6825 105.915 20.55H106.74L106.542 28.05H105.717C105.643 27.782 105.48 27.5469 105.255 27.3833C105.095 27.291 104.913 27.2411 104.728 27.2383C104.474 27.2414 104.224 27.3078 104.002 27.4317C103.759 27.5611 103.506 27.6903 103.243 27.8192C103.004 27.9454 102.756 28.0537 102.501 28.1433C102.122 28.2626 101.726 28.317 101.329 28.3042C100.178 28.3228 99.0513 27.9724 98.1136 27.3042C97.1527 26.6075 96.3444 25.7215 95.7386 24.7008C95.0723 23.5943 94.5719 22.396 94.2536 21.1442C93.9165 19.8726 93.7445 18.563 93.7419 17.2475C93.7471 15.9845 93.9249 14.7282 94.2703 13.5133C94.5989 12.3056 95.0987 11.1511 95.7544 10.085C96.3556 9.10363 97.1476 8.25293 98.0836 7.58334C98.9722 6.94461 100.041 6.60518 101.135 6.61417C101.695 6.6089 102.253 6.6959 102.784 6.87167C103.29 7.04501 103.752 7.21778 104.17 7.39001C104.262 7.42714 104.355 7.45941 104.45 7.48667C104.542 7.51046 104.636 7.52139 104.731 7.51917C104.882 7.50722 105.028 7.46288 105.16 7.38917C105.255 7.33516 105.337 7.26061 105.4 7.17094C105.463 7.08128 105.505 6.97875 105.523 6.87084H106.38V13.6942H105.717V13.695ZM114.36 15.9583C115.294 15.9467 116.224 16.0831 117.115 16.3625C117.897 16.6083 118.62 17.0096 119.243 17.5425C119.845 18.0704 120.318 18.7284 120.628 19.4667C120.972 20.3023 121.14 21.1998 121.123 22.1033C121.174 23.1941 120.959 24.281 120.496 25.27C120.127 25.9913 119.582 26.6085 118.913 27.065C118.286 27.4806 117.577 27.7563 116.834 27.8733C116.147 27.9864 115.452 28.0457 114.756 28.0508H107.894V27.3408H109.841V7.58334H107.894V6.87167H115.317V7.58334H113.4V15.9592H114.357L114.36 15.9583ZM114.229 27.34C114.66 27.3478 115.089 27.2822 115.499 27.1458C115.86 27.0173 116.175 26.7855 116.406 26.4792C116.673 26.1092 116.853 25.684 116.934 25.235C117.056 24.5849 117.112 23.924 117.1 23.2625V20.7442C117.105 20.1654 117.066 19.5872 116.984 19.0142C116.925 18.5666 116.784 18.1338 116.568 17.7375C116.376 17.3993 116.089 17.1243 115.744 16.9458C115.311 16.7446 114.837 16.6489 114.36 16.6667H113.404V27.3408H114.229V27.34ZM128.974 16.605C129.29 16.6085 129.606 16.5758 129.914 16.5075C130.204 16.4328 130.46 16.2618 130.64 16.0225C130.884 15.6849 131.053 15.2991 131.135 14.8908C131.275 14.2209 131.347 13.5386 131.349 12.8542C131.374 11.8203 131.462 10.7889 131.613 9.76584C131.702 9.09993 131.891 8.45141 132.175 7.8425C132.366 7.41908 132.698 7.07562 133.115 6.87167C133.57 6.68668 134.059 6.59897 134.55 6.61417C134.995 6.60084 135.436 6.69519 135.836 6.88917C136.166 7.05397 136.453 7.29165 136.677 7.58417C136.882 7.85716 137.038 8.16327 137.139 8.48917C137.234 8.78207 137.284 9.08734 137.289 9.39501C137.3 10.0437 137.116 10.6808 136.759 11.2225C136.597 11.4759 136.372 11.6824 136.106 11.8213C135.84 11.9603 135.542 12.0268 135.242 12.0142C134.966 12.0366 134.688 11.987 134.436 11.8702C134.185 11.7533 133.968 11.5732 133.807 11.3475C133.526 10.9553 133.371 10.4873 133.361 10.005V9.71834C133.361 9.63094 133.372 9.54389 133.394 9.45917C133.439 9.30917 133.483 9.17334 133.526 9.05501C133.574 8.91463 133.597 8.76672 133.593 8.61834C133.593 8.48822 133.582 8.35832 133.56 8.23001C133.554 8.19763 133.54 8.16692 133.522 8.13964C133.503 8.11236 133.479 8.08905 133.451 8.07107C133.424 8.05309 133.393 8.04079 133.36 8.03488C133.328 8.02898 133.294 8.02959 133.262 8.03667C133.112 8.04408 132.968 8.09784 132.85 8.19053C132.732 8.28323 132.646 8.41029 132.603 8.55417C132.432 8.96214 132.32 9.39224 132.269 9.83167C132.203 10.357 132.165 10.8856 132.155 11.415C132.144 11.965 132.127 12.445 132.105 12.8542C132.099 13.6873 132 14.5172 131.809 15.3283C131.66 15.8488 131.347 16.3076 130.918 16.6375L130.951 16.7658C131.346 16.7808 131.739 16.835 132.123 16.9275C132.662 17.0558 133.171 17.2864 133.623 17.6067C134.184 18.0143 134.652 18.5381 134.993 19.1425C135.448 19.9954 135.701 20.9413 135.734 21.9075C135.777 22.4908 135.801 23.0883 135.801 23.7025C135.801 24.3167 135.823 24.8767 135.866 25.3833C135.893 25.816 135.988 26.2418 136.147 26.645C136.196 26.793 136.291 26.9214 136.419 27.0114C136.546 27.1014 136.699 27.1482 136.855 27.145C136.969 27.1382 137.08 27.1089 137.182 27.059C137.284 27.0091 137.375 26.9395 137.45 26.8542L137.746 27.3392C137.415 27.6505 137.022 27.8878 136.592 28.035C136.269 28.1491 135.938 28.2407 135.602 28.3092C135.383 28.3303 135.162 28.3303 134.943 28.3092C134.449 28.293 133.965 28.166 133.526 27.9375C133.147 27.7014 132.853 27.3513 132.685 26.9375C132.439 26.3321 132.278 25.6955 132.207 25.0458C132.096 24.2481 131.997 23.235 131.909 22.0067C131.869 21.422 131.813 20.8385 131.743 20.2567C131.689 19.7428 131.567 19.2383 131.379 18.7567C131.223 18.3413 130.955 17.9775 130.604 17.7058C130.182 17.4224 129.677 17.2856 129.169 17.3167H127.753V27.3408H129.699V28.0525H122.277V27.3408H124.194V7.58334H122.277V6.87167H129.699V7.58334H127.75V16.6058H128.971L128.974 16.605ZM145.141 21.8758H140.325L139.962 23.2667C139.927 23.3835 139.899 23.5023 139.879 23.6225C139.846 23.7958 139.775 24.215 139.664 24.8833C139.62 25.0967 139.592 25.3132 139.581 25.5308C139.57 25.7494 139.598 25.9681 139.664 26.1767C139.707 26.3716 139.795 26.5538 139.922 26.7084C140.048 26.863 140.209 26.9858 140.391 27.0667C140.83 27.2078 141.283 27.2997 141.743 27.3408V28.0525H136.498V27.3408C136.881 27.3383 137.255 27.2201 137.569 27.0017C137.853 26.787 138.085 26.5106 138.246 26.1933C138.431 25.8335 138.575 25.4538 138.675 25.0617C138.786 24.6417 138.907 24.1945 139.038 23.72L143.491 6.61417H145.009L150.354 27.3408H151.739V28.0525H144.745V27.3408H146.625L145.141 21.8758ZM142.766 12.3692L140.454 21.1667H145.038L142.766 12.3692ZM164.7 27.3408H166.316V28.0525H159.191V27.3408H161.137V7.58334H159.191V6.87167H175.619V7.58334H173.673V27.3408H175.619V28.0525H168.494V27.3408H170.11V7.58334H164.7V27.3408ZM179.182 7.58334H177.235V6.87167H184.526C185.666 6.84251 186.803 7.00131 187.891 7.34167C188.696 7.59693 189.433 8.02757 190.051 8.6025C190.581 9.11641 190.973 9.75591 191.19 10.4617C191.413 11.1843 191.525 11.9364 191.524 12.6925C191.524 14.9558 190.93 16.5725 189.742 17.5425C188.554 18.5125 186.772 18.9983 184.394 19H182.744V27.3408H184.922V28.0525H177.235V27.3408H179.182V7.58334ZM183.899 18.2867C184.39 18.2892 184.881 18.2568 185.367 18.19C185.799 18.1339 186.2 17.934 186.505 17.6225C186.86 17.2213 187.11 16.7378 187.231 16.2158C187.432 15.3582 187.521 14.478 187.494 13.5975V11.3025C187.497 10.7949 187.469 10.2876 187.411 9.78334C187.369 9.36442 187.221 8.96302 186.982 8.61667C186.721 8.27049 186.366 8.00667 185.959 7.85667C185.371 7.65133 184.749 7.55806 184.126 7.58167H182.741V18.2875H183.896L183.899 18.2867ZM199.47 21.8758H194.654L194.291 23.2667C194.256 23.3835 194.228 23.5023 194.208 23.6225C194.175 23.7958 194.104 24.215 193.994 24.8833C193.949 25.0967 193.922 25.3132 193.91 25.5308C193.9 25.7493 193.928 25.968 193.994 26.1767C194.037 26.3716 194.125 26.5537 194.251 26.7083C194.377 26.8629 194.538 26.9857 194.72 27.0667C195.159 27.2078 195.613 27.2997 196.072 27.3408V28.0525H190.827V27.3408C191.21 27.3383 191.584 27.2201 191.899 27.0017C192.182 26.787 192.414 26.5106 192.575 26.1933C192.76 25.8335 192.904 25.4538 193.004 25.0617C193.116 24.6417 193.236 24.1945 193.367 23.72L197.82 6.61417H199.339L204.683 27.3408H206.068V28.0525H199.074V27.3408H200.955L199.47 21.8758ZM197.095 12.3692L194.786 21.1667H199.369L197.095 12.3692ZM213.194 6.86917C214.244 6.84507 215.293 6.96507 216.311 7.22584C217.033 7.41246 217.712 7.73612 218.311 8.17917C218.792 8.54602 219.163 9.03852 219.383 9.6025C219.592 10.1552 219.698 10.7415 219.696 11.3325C219.737 11.9373 219.641 12.5435 219.415 13.1061C219.189 13.6687 218.84 14.1733 218.393 14.5825C217.348 15.4115 216.122 15.9825 214.814 16.2492L214.847 16.4108C215.851 16.6551 216.809 17.0589 217.684 17.6067C218.303 18.0016 218.846 18.5056 219.284 19.0942C219.622 19.5589 219.864 20.0869 219.994 20.6467C220.097 21.1033 220.153 21.5694 220.16 22.0375C220.176 22.9087 220.007 23.7734 219.665 24.575C219.349 25.3004 218.875 25.9466 218.279 26.4667C217.648 27.0053 216.913 27.4071 216.119 27.6467C215.216 27.9248 214.276 28.0612 213.331 28.0508H205.834V27.3408H207.75V7.58334H205.834V6.87167H213.19L213.194 6.86917ZM212.962 15.8592C213.045 15.8592 213.243 15.8417 213.539 15.81C213.876 15.7633 214.197 15.642 214.48 15.455C214.842 15.2159 215.141 14.8943 215.354 14.5167C215.637 13.9624 215.768 13.343 215.734 12.7217V10.555C215.734 10.4042 215.722 10.1667 215.7 9.84334C215.672 9.49955 215.577 9.16458 215.42 8.8575C215.237 8.50243 214.971 8.19702 214.644 7.9675C214.192 7.68133 213.662 7.54541 213.128 7.57917H211.314V15.8575H212.962V15.8592ZM212.795 27.3375C213.43 27.3701 214.064 27.2483 214.642 26.9825C215.051 26.7732 215.394 26.4537 215.632 26.06C215.86 25.6574 216 25.2113 216.044 24.7508C216.1 24.2461 216.128 23.7386 216.128 23.2308V21C216.124 20.535 216.096 20.0705 216.044 19.6083C215.993 19.1067 215.866 18.616 215.665 18.1533C215.468 17.7028 215.155 17.3124 214.758 17.0217C214.265 16.6958 213.681 16.5371 213.091 16.5692H211.311V27.3408H212.795V27.3375ZM235.787 6.86917V7.58334H233.87V27.3408H236.311L236.549 34.1667H235.624C235.504 32.9972 235.192 31.8555 234.701 30.7875C234.372 30.0925 233.907 29.4703 233.334 28.9575C232.915 28.5863 232.41 28.3249 231.865 28.1967C231.464 28.1099 231.056 28.0613 230.645 28.0517H225.861C225.44 28.0553 225.021 28.1039 224.611 28.1967C224.128 28.3211 223.693 28.5858 223.361 28.9575C222.888 29.4936 222.518 30.1134 222.272 30.785C221.871 31.8761 221.603 33.0115 221.473 34.1667H220.549L220.813 27.3433H222.858C223.298 26.5334 223.647 25.677 223.898 24.79C224.204 23.6066 224.365 22.39 224.375 21.1675L224.672 12.76C224.694 11.9842 224.717 11.26 224.738 10.5933C224.768 10.0242 224.724 9.45347 224.606 8.89584C224.522 8.4727 224.28 8.09721 223.93 7.845C223.453 7.58181 222.9 7.49033 222.363 7.58584V6.87167H235.789L235.787 6.86917ZM230.311 7.58084H227.804C227.457 7.57755 227.11 7.59369 226.765 7.62917C226.634 7.64259 226.507 7.68432 226.393 7.75149C226.279 7.81867 226.181 7.9097 226.105 8.01834C225.899 8.35775 225.769 8.73836 225.725 9.13334C225.616 9.87279 225.55 10.6179 225.528 11.365L225.134 21.1667C225.099 21.9186 225.039 22.669 224.952 23.4167C224.889 23.9841 224.784 24.5462 224.639 25.0983C224.526 25.5281 224.383 25.9494 224.211 26.3592C224.056 26.7142 223.902 27.0442 223.749 27.345H230.314V7.58334L230.311 7.58084ZM244.232 21.8733H239.417L239.054 23.2642C239.019 23.3811 238.991 23.4999 238.97 23.62C238.939 23.7933 238.867 24.2125 238.757 24.8808C238.713 25.0942 238.685 25.3107 238.674 25.5283C238.663 25.7468 238.691 25.9655 238.757 26.1742C238.8 26.3691 238.887 26.5512 239.014 26.7058C239.14 26.8605 239.3 26.9832 239.483 27.0642C239.922 27.2052 240.375 27.2972 240.834 27.3383V28.05H235.589V27.3408C235.975 27.339 236.351 27.2201 236.667 27C236.951 26.7853 237.182 26.5089 237.344 26.1917C237.53 25.8321 237.674 25.4524 237.773 25.06C237.884 24.64 238.005 24.1928 238.136 23.7183L242.584 6.61417H244.102L249.447 27.3408H250.834V28.0525H243.84V27.3408H245.72L244.232 21.8733ZM241.857 12.3667L239.55 21.1667H244.134L241.857 12.3667Z" fill="#73141D"/>
</svg>
