<svg width="55" height="28" viewBox="0 0 55 28" fill="none" xmlns="http://www.w3.org/2000/svg">
<path d="M25.3195 0.35924H26.0829L26.1727 0H16.5631L16.4732 0.35924H17.8653C19.0777 0.35924 20.0656 1.21244 20.0656 2.87392C20.0656 3.81693 19.6615 5.02936 18.9879 6.51123L12.7461 20.2971L11.2194 2.37997C11.0846 0.98791 11.8031 0.35924 13.3748 0.35924H14.2729L14.3627 0H0.801402L0.666687 0.35924H1.51988C2.5976 0.35924 3.00175 1.03282 3.09156 2.29016L5.51643 25.4611H11.2194L20.7841 5.20898C22.266 2.20035 23.7928 0.35924 25.3195 0.35924ZM24.1969 25.5509C23.3437 25.5509 22.8049 25.2815 22.8049 23.8446C22.8049 22.0484 23.4784 18.5009 24.1969 15.2677C24.2867 16.7496 25.3195 18.2314 26.8463 18.2314C27.2055 18.2314 27.5199 18.1865 27.8342 18.1416C26.3973 24.2936 25.8584 25.5509 24.1969 25.5509ZM51.4093 13.3817C53.2055 13.3817 54.3731 11.8998 54.3731 10.1934C54.3731 8.75648 53.3403 7.67876 51.8584 7.67876C49.209 7.67876 47.9517 9.78929 45.7513 13.6511C45.3023 11.2263 44.1796 8.0829 41.3955 8.0829C38.2522 8.0829 34.6149 12.5734 31.2919 15.3575C29.7651 16.6598 28.1036 17.468 26.7565 17.468C25.3644 17.468 24.5561 16.076 24.5561 13.6062C25.5441 9.56477 26.038 8.53195 27.5648 8.53195C28.5976 8.53195 29.0466 9.11572 29.0466 10.3282C29.0466 11.6304 28.7772 13.7858 28.1935 16.525C29.6753 16.076 31.9206 14.19 33.8066 12.1693C32.8187 9.78929 30.6632 8.17271 27.6097 8.17271C21.9068 8.17271 16.8774 13.2919 16.8774 19.0397C16.8774 22.9914 19.7064 26 24.1071 26C31.3817 26 34.4353 19.7133 34.4353 15.3126C34.4353 14.6839 34.3903 14.2349 34.3454 13.6511C35.4681 12.4387 36.905 11.2712 38.0726 11.2712C39.4197 11.2712 40.4974 14.639 41.5302 19.7133C40.5872 20.7461 39.6442 22.7219 39.1952 23.0812C39.0156 21.285 37.8031 20.1623 36.2315 20.1623C34.4353 20.1623 33.2228 21.8687 33.2228 23.3057C33.2228 24.9223 34.3454 26 35.8273 26C38.9258 26 39.7789 23.0812 41.7099 20.4767C42.2936 23.2608 43.6857 26 46.0656 26C48.8947 26 51.4992 23.5751 52.8463 21.8687L52.5769 21.4646C51.7237 22.3178 50.8705 22.8566 49.8826 22.8566C48.1313 22.8566 46.8739 19.0846 45.9309 14.5043C46.5147 13.7409 47.4128 11.7651 48.0415 11.0466C48.4456 11.8549 49.3437 13.3817 51.4093 13.3817Z" fill="#333333"/>
</svg>
